  0
SECTION
  2
HEADER
  9
$ACADVER
  1
AC1015
  9
$ACADMAINTVER
 70
     6
  9
$DWGCODEPAGE
  3
ANSI_1252
  9
$INSBASE
 10
0.0
 20
0.0
 30
0.0
  9
$EXTMIN
 10
-1.0481095202
 20
-1.0481095202
 30
0.0
  9
$EXTMAX
 10
1.0481095202
 20
1.0481095202
 30
0.0
  9
$LIMMIN
 10
0.0
 20
0.0
  9
$LIMMAX
 10
12.0
 20
9.0
  9
$ORTHOMODE
 70
     0
  9
$REGENMODE
 70
     1
  9
$FILLMODE
 70
     1
  9
$QTEXTMODE
 70
     0
  9
$MIRRTEXT
 70
     1
  9
$LTSCALE
 40
1.0
  9
$ATTMODE
 70
     1
  9
$TEXTSIZE
 40
0.1377952756
  9
$TRACEWID
 40
0.05
  9
$TEXTSTYLE
  7
Standard
  9
$CLAYER
  8
0
  9
$CELTYPE
  6
ByLayer
  9
$CECOLOR
 62
   256
  9
$CELTSCALE
 40
1.0
  9
$DISPSILH
 70
     0
  9
$DIMSCALE
 40
1.0
  9
$DIMASZ
 40
0.14
  9
$DIMEXO
 40
0.0
  9
$DIMDLI
 40
0.38
  9
$DIMRND
 40
0.0
  9
$DIMDLE
 40
0.0
  9
$DIMEXE
 40
0.0393700787
  9
$DIMTP
 40
0.0
  9
$DIMTM
 40
0.0
  9
$DIMTXT
 40
0.1377952756
  9
$DIMCEN
 40
0.09
  9
$DIMTSZ
 40
0.0
  9
$DIMTOL
 70
     0
  9
$DIMLIM
 70
     0
  9
$DIMTIH
 70
     1
  9
$DIMTOH
 70
     1
  9
$DIMSE1
 70
     0
  9
$DIMSE2
 70
     0
  9
$DIMTAD
 70
     1
  9
$DIMZIN
 70
     1
  9
$DIMBLK
  1

  9
$DIMASO
 70
     1
  9
$DIMSHO
 70
     1
  9
$DIMPOST
  1

  9
$DIMAPOST
  1

  9
$DIMALT
 70
     0
  9
$DIMALTD
 70
     2
  9
$DIMALTF
 40
25.4
  9
$DIMLFAC
 40
1.0
  9
$DIMTOFL
 70
     0
  9
$DIMTVP
 40
0.0
  9
$DIMTIX
 70
     0
  9
$DIMSOXD
 70
     0
  9
$DIMSAH
 70
     0
  9
$DIMBLK1
  1

  9
$DIMBLK2
  1

  9
$DIMSTYLE
  2
Standard
  9
$DIMCLRD
 70
     0
  9
$DIMCLRE
 70
     0
  9
$DIMCLRT
 70
     0
  9
$DIMTFAC
 40
1.0
  9
$DIMGAP
 40
0.06
  9
$DIMJUST
 70
     0
  9
$DIMSD1
 70
     0
  9
$DIMSD2
 70
     0
  9
$DIMTOLJ
 70
     1
  9
$DIMTZIN
 70
     1
  9
$DIMALTZ
 70
     0
  9
$DIMALTTZ
 70
     0
  9
$DIMUPT
 70
     0
  9
$DIMDEC
 70
     2
  9
$DIMTDEC
 70
     2
  9
$DIMALTU
 70
     2
  9
$DIMALTTD
 70
     2
  9
$DIMTXSTY
  7
Standard
  9
$DIMAUNIT
 70
     0
  9
$DIMADEC
 70
     2
  9
$DIMALTRND
 40
0.0
  9
$DIMAZIN
 70
     0
  9
$DIMDSEP
 70
    46
  9
$DIMATFIT
 70
     3
  9
$DIMFRAC
 70
     0
  9
$DIMLDRBLK
  1

  9
$DIMLUNIT
 70
     2
  9
$DIMLWD
 70
    -2
  9
$DIMLWE
 70
    -2
  9
$DIMTMOVE
 70
     0
  9
$LUNITS
 70
     2
  9
$LUPREC
 70
     2
  9
$SKETCHINC
 40
0.1
  9
$FILLETRAD
 40
0.0
  9
$AUNITS
 70
     0
  9
$AUPREC
 70
     2
  9
$MENU
  1
.
  9
$ELEVATION
 40
0.0
  9
$PELEVATION
 40
0.0
  9
$THICKNESS
 40
0.0
  9
$LIMCHECK
 70
     0
  9
$CHAMFERA
 40
0.0
  9
$CHAMFERB
 40
0.0
  9
$CHAMFERC
 40
0.0
  9
$CHAMFERD
 40
0.0
  9
$SKPOLY
 70
     0
  9
$TDCREATE
 40
2460062.810785046
  9
$TDUCREATE
 40
2460063.102451713
  9
$TDUPDATE
 40
2460062.810920926
  9
$TDUUPDATE
 40
2460063.102587593
  9
$TDINDWG
 40
0.0000000116
  9
$TDUSRTIMER
 40
0.0000000116
  9
$USRTIMER
 70
     1
  9
$ANGBASE
 50
0.0
  9
$ANGDIR
 70
     0
  9
$PDMODE
 70
     0
  9
$PDSIZE
 40
-1.0
  9
$PLINEWID
 40
0.0
  9
$SPLFRAME
 70
     0
  9
$SPLINETYPE
 70
     6
  9
$SPLINESEGS
 70
     8
  9
$HANDSEED
  5
34E
  9
$SURFTAB1
 70
     6
  9
$SURFTAB2
 70
     6
  9
$SURFTYPE
 70
     6
  9
$SURFU
 70
     6
  9
$SURFV
 70
     6
  9
$UCSBASE
  2

  9
$UCSNAME
  2

  9
$UCSORG
 10
0.0
 20
0.0
 30
0.0
  9
$UCSXDIR
 10
1.0
 20
0.0
 30
0.0
  9
$UCSYDIR
 10
0.0
 20
1.0
 30
0.0
  9
$UCSORTHOREF
  2

  9
$UCSORTHOVIEW
 70
     0
  9
$UCSORGTOP
 10
0.0
 20
0.0
 30
0.0
  9
$UCSORGBOTTOM
 10
0.0
 20
0.0
 30
0.0
  9
$UCSORGLEFT
 10
0.0
 20
0.0
 30
0.0
  9
$UCSORGRIGHT
 10
0.0
 20
0.0
 30
0.0
  9
$UCSORGFRONT
 10
0.0
 20
0.0
 30
0.0
  9
$UCSORGBACK
 10
0.0
 20
0.0
 30
0.0
  9
$PUCSBASE
  2

  9
$PUCSNAME
  2

  9
$PUCSORG
 10
0.0
 20
0.0
 30
0.0
  9
$PUCSXDIR
 10
1.0
 20
0.0
 30
0.0
  9
$PUCSYDIR
 10
0.0
 20
1.0
 30
0.0
  9
$PUCSORTHOREF
  2

  9
$PUCSORTHOVIEW
 70
     0
  9
$PUCSORGTOP
 10
0.0
 20
0.0
 30
0.0
  9
$PUCSORGBOTTOM
 10
0.0
 20
0.0
 30
0.0
  9
$PUCSORGLEFT
 10
0.0
 20
0.0
 30
0.0
  9
$PUCSORGRIGHT
 10
0.0
 20
0.0
 30
0.0
  9
$PUCSORGFRONT
 10
0.0
 20
0.0
 30
0.0
  9
$PUCSORGBACK
 10
0.0
 20
0.0
 30
0.0
  9
$USERI1
 70
     0
  9
$USERI2
 70
     0
  9
$USERI3
 70
     0
  9
$USERI4
 70
     0
  9
$USERI5
 70
     0
  9
$USERR1
 40
0.0
  9
$USERR2
 40
0.0
  9
$USERR3
 40
0.0
  9
$USERR4
 40
0.0
  9
$USERR5
 40
0.0
  9
$WORLDVIEW
 70
     1
  9
$SHADEDGE
 70
     3
  9
$SHADEDIF
 70
    70
  9
$TILEMODE
 70
     1
  9
$MAXACTVP
 70
    64
  9
$PINSBASE
 10
0.0
 20
0.0
 30
0.0
  9
$PLIMCHECK
 70
     0
  9
$PEXTMIN
 10
1.0000000000E+20
 20
1.0000000000E+20
 30
1.0000000000E+20
  9
$PEXTMAX
 10
-1.0000000000E+20
 20
-1.0000000000E+20
 30
-1.0000000000E+20
  9
$PLIMMIN
 10
0.0
 20
0.0
  9
$PLIMMAX
 10
12.0
 20
9.0
  9
$UNITMODE
 70
     0
  9
$VISRETAIN
 70
     1
  9
$PLINEGEN
 70
     0
  9
$PSLTSCALE
 70
     1
  9
$TREEDEPTH
 70
  3020
  9
$CMLSTYLE
  2
Standard
  9
$CMLJUST
 70
     0
  9
$CMLSCALE
 40
1.0
  9
$PROXYGRAPHICS
 70
     1
  9
$MEASUREMENT
 70
     0
  9
$CELWEIGHT
370
    -1
  9
$ENDCAPS
280
     0
  9
$JOINSTYLE
280
     0
  9
$LWDISPLAY
290
     1
  9
$INSUNITS
 70
     1
  9
$HYPERLINKBASE
  1

  9
$STYLESHEET
  1

  9
$XEDIT
290
     1
  9
$CEPSNTYPE
380
     0
  9
$PSTYLEMODE
290
     1
  9
$FINGERPRINTGUID
  2
{e06f6e44-d7e9-4978-b4b0-e91a09a7ffa6}
  9
$VERSIONGUID
  2
{FAEB1C32-E019-11D5-929B-00C0DF256EC4}
  9
$EXTNAMES
290
     1
  9
$PSVPSCALE
 40
0.0
  9
$OLESTARTUP
290
     0
  0
ENDSEC
  0
SECTION
  2
CLASSES
  0
CLASS
  1
ACDBDICTIONARYWDFLT
  2
AcDbDictionaryWithDefault
  3
ObjectDBX Classes
 90
        0
280
     0
281
     0
  0
CLASS
  1
VISUALSTYLE
  2
AcDbVisualStyle
  3
ObjectDBX Classes
 90
     4095
280
     0
281
     0
  0
CLASS
  1
MATERIAL
  2
AcDbMaterial
  3
ObjectDBX Classes
 90
     1153
280
     0
281
     0
  0
CLASS
  1
SCALE
  2
AcDbScale
  3
ObjectDBX Classes
 90
     1153
280
     0
281
     0
  0
CLASS
  1
TABLESTYLE
  2
AcDbTableStyle
  3
ObjectDBX Classes
 90
     4095
280
     0
281
     0
  0
CLASS
  1
MLEADERSTYLE
  2
AcDbMLeaderStyle
  3
ACDB_MLEADERSTYLE_CLASS
 90
     4095
280
     0
281
     0
  0
CLASS
  1
SUN
  2
AcDbSun
  3
SCENEOE
 90
     1153
280
     0
281
     0
  0
CLASS
  1
ACDBPLACEHOLDER
  2
AcDbPlaceHolder
  3
ObjectDBX Classes
 90
        0
280
     0
281
     0
  0
CLASS
  1
LAYOUT
  2
AcDbLayout
  3
ObjectDBX Classes
 90
        0
280
     0
281
     0
  0
ENDSEC
  0
SECTION
  2
TABLES
  0
TABLE
  2
VPORT
  5
8
330
0
100
AcDbSymbolTable
 70
     1
  0
VPORT
  5
29
330
8
100
AcDbSymbolTableRecord
100
AcDbViewportTableRecord
  2
*Active
 70
     0
 10
0.0
 20
0.0
 11
1.0
 21
1.0
 12
0.0
 22
0.0
 13
0.0
 23
0.0
 14
0.5
 24
0.5
 15
0.5
 25
0.5
 16
0.0
 26
0.0
 36
1.0
 17
0.0
 27
0.0
 37
0.0
 40
2.1381434212
 41
1.0
 42
50.0
 43
0.0
 44
0.0
 50
0.0
 51
0.0
 71
     0
 72
   100
 73
     1
 74
     3
 75
     0
 76
     0
 77
     0
 78
     0
281
     0
 65
     1
110
0.0
120
0.0
130
0.0
111
1.0
121
0.0
131
0.0
112
0.0
122
1.0
132
0.0
 79
     0
146
0.0
  0
ENDTAB
  0
TABLE
  2
LTYPE
  5
5
330
0
100
AcDbSymbolTable
 70
     6
  0
LTYPE
  5
14
330
5
100
AcDbSymbolTableRecord
100
AcDbLinetypeTableRecord
  2
ByBlock
 70
     0
  3

 72
    65
 73
     0
 40
0.0
  0
LTYPE
  5
15
330
5
100
AcDbSymbolTableRecord
100
AcDbLinetypeTableRecord
  2
ByLayer
 70
     0
  3

 72
    65
 73
     0
 40
0.0
  0
LTYPE
  5
16
330
5
100
AcDbSymbolTableRecord
100
AcDbLinetypeTableRecord
  2
Continuous
 70
     0
  3
Solid line
 72
    65
 73
     0
 40
0.0
  0
LTYPE
  5
5E
330
5
100
AcDbSymbolTableRecord
100
AcDbLinetypeTableRecord
  2
HIDDEN
 70
     0
  3
Hidden __ __ __ __ __ __ __ __ __ __ __ __ __ __
 72
    65
 73
     2
 40
0.075
 49
0.05
 74
     0
 49
-0.025
 74
     0
  0
LTYPE
  5
5F
330
5
100
AcDbSymbolTableRecord
100
AcDbLinetypeTableRecord
  2
PHANTOM
 70
     0
  3
Phantom ______  __  __  ______  __  __  ______
 72
    65
 73
     6
 40
0.5
 49
0.25
 74
     0
 49
-0.05
 74
     0
 49
0.05
 74
     0
 49
-0.05
 74
     0
 49
0.05
 74
     0
 49
-0.05
 74
     0
  0
LTYPE
  5
60
330
5
100
AcDbSymbolTableRecord
100
AcDbLinetypeTableRecord
  2
CENTER
 70
     0
  3
Center ____ _ ____ _ ____ _ ____ _ ____ _ ____
 72
    65
 73
     4
 40
0.4
 49
0.25
 74
     0
 49
-0.05
 74
     0
 49
0.05
 74
     0
 49
-0.05
 74
     0
  0
LTYPE
  5
61
330
5
100
AcDbSymbolTableRecord
100
AcDbLinetypeTableRecord
  2
CENTERX2
 70
     0
  3
Center (2x) ________  __  ________  __  _____
 72
    65
 73
     4
 40
0.8
 49
0.5
 74
     0
 49
-0.1
 74
     0
 49
0.1
 74
     0
 49
-0.1
 74
     0
  0
LTYPE
  5
62
330
5
100
AcDbSymbolTableRecord
100
AcDbLinetypeTableRecord
  2
DOT2
 70
     0
  3
Dot (.5x) ........................................
 72
    65
 73
     2
 40
0.025
 49
0.0
 74
     0
 49
-0.025
 74
     0
  0
ENDTAB
  0
TABLE
  2
LAYER
  5
2
330
0
100
AcDbSymbolTable
 70
     1
  0
LAYER
  5
10
330
2
100
AcDbSymbolTableRecord
100
AcDbLayerTableRecord
  2
0
 70
     0
 62
     7
  6
Continuous
370
    -3
390
F
  0
ENDTAB
  0
TABLE
  2
STYLE
  5
3
330
0
100
AcDbSymbolTable
 70
     2
  0
STYLE
  5
11
330
3
100
AcDbSymbolTableRecord
100
AcDbTextStyleTableRecord
  2
Standard
 70
     0
 40
0.0
 41
1.0
 50
0.0
 71
     0
 42
0.1377952756
  3
txt
  4

  0
STYLE
  5
34A
330
3
100
AcDbSymbolTableRecord
100
AcDbTextStyleTableRecord
  2
SLDTEXTSTYLE0
 70
     0
 40
0.0
 41
0.7
 50
0.0
 71
     0
 42
0.1377952756
  3
TXT
  4

  0
ENDTAB
  0
TABLE
  2
VIEW
  5
6
330
0
100
AcDbSymbolTable
 70
     0
  0
ENDTAB
  0
TABLE
  2
UCS
  5
7
330
0
100
AcDbSymbolTable
 70
     0
  0
ENDTAB
  0
TABLE
  2
APPID
  5
9
330
0
100
AcDbSymbolTable
 70
     1
  0
APPID
  5
12
330
9
100
AcDbSymbolTableRecord
100
AcDbRegAppTableRecord
  2
ACAD
 70
     0
  0
ENDTAB
  0
TABLE
  2
DIMSTYLE
  5
A
330
0
100
AcDbSymbolTable
 70
     1
100
AcDbDimStyleTable
  0
DIMSTYLE
105
27
330
A
100
AcDbSymbolTableRecord
100
AcDbDimStyleTableRecord
  2
Standard
 70
     0
178
     0
340
11
  0
ENDTAB
  0
TABLE
  2
BLOCK_RECORD
  5
1
330
0
100
AcDbSymbolTable
 70
     1
  0
BLOCK_RECORD
  5
1F
330
1
100
AcDbSymbolTableRecord
100
AcDbBlockTableRecord
  2
*Model_Space
340
22
  0
BLOCK_RECORD
  5
1B
330
1
100
AcDbSymbolTableRecord
100
AcDbBlockTableRecord
  2
*Paper_Space
340
1E
  0
BLOCK_RECORD
  5
23
330
1
100
AcDbSymbolTableRecord
100
AcDbBlockTableRecord
  2
*Paper_Space0
340
26
  0
ENDTAB
  0
ENDSEC
  0
SECTION
  2
BLOCKS
  0
BLOCK
  5
20
330
1F
100
AcDbEntity
  8
0
100
AcDbBlockBegin
  2
*Model_Space
 70
     0
 10
0.0
 20
0.0
 30
0.0
  3
*Model_Space
  1

  0
ENDBLK
  5
21
330
1F
100
AcDbEntity
  8
0
100
AcDbBlockEnd
  0
BLOCK
  5
1C
330
1B
100
AcDbEntity
 67
     1
  8
0
100
AcDbBlockBegin
  2
*Paper_Space
 70
     0
 10
0.0
 20
0.0
 30
0.0
  3
*Paper_Space
  1

  0
ENDBLK
  5
1D
330
1B
100
AcDbEntity
 67
     1
  8
0
100
AcDbBlockEnd
  0
BLOCK
  5
24
330
23
100
AcDbEntity
  8
0
100
AcDbBlockBegin
  2
*Paper_Space0
 70
     0
 10
0.0
 20
0.0
 30
0.0
  3
*Paper_Space0
  1

  0
ENDBLK
  5
25
330
23
100
AcDbEntity
  8
0
100
AcDbBlockEnd
  0
ENDSEC
  0
SECTION
  2
ENTITIES
  0
ARC
  5
63
330
1F
100
AcDbEntity
  8
0
  6
Continuous
 62
     7
100
AcDbCircle
 10
0.9266757769
 20
0.2803245587
 30
0.0
 40
0.4000000000000001
100
AcDbArc
 50
282.6170940698
 51
287.2148062461
  0
ARC
  5
64
330
1F
100
AcDbEntity
  8
0
  6
Continuous
 62
     7
100
AcDbCircle
 10
0.871414438
 20
-0.4218373276
 30
0.0
 40
0.3999999999999999
100
AcDbArc
 50
63.7851937539
 51
68.3829059302
  0
ARC
  5
65
330
1F
100
AcDbEntity
  8
0
  6
Continuous
 62
     7
100
AcDbCircle
 10
0.0
 20
0.0
 30
0.0
 40
1.05
100
AcDbArc
 50
354.4386991641
 51
356.5613008359
  0
ARC
  5
66
330
1F
100
AcDbEntity
  8
0
  6
Continuous
 62
     7
100
AcDbCircle
 10
0.871414438
 20
0.4218373276
 30
0.0
 40
0.3999999999999997
100
AcDbArc
 50
291.6170940698
 51
296.2148062461
  0
ARC
  5
67
330
1F
100
AcDbEntity
  8
0
  6
Continuous
 62
     7
100
AcDbCircle
 10
0.9266757769
 20
-0.2803245587
 30
0.0
 40
0.4000000000000005
100
AcDbArc
 50
72.7851937539
 51
77.3829059302
  0
ARC
  5
68
330
1F
100
AcDbEntity
  8
0
  6
Continuous
 62
     7
100
AcDbCircle
 10
0.0
 20
0.0
 30
0.0
 40
1.050000000000001
100
AcDbArc
 50
3.4386991641
 51
5.5613008359
  0
ARC
  5
69
330
1F
100
AcDbEntity
  8
0
  6
Continuous
 62
     7
100
AcDbCircle
 10
0.7946959836
 20
0.5529630615
 30
0.0
 40
0.4
100
AcDbArc
 50
300.6170940698
 51
305.2148062461
  0
ARC
  5
6A
330
1F
100
AcDbEntity
  8
0
  6
Continuous
 62
     7
100
AcDbCircle
 10
0.9591192827
 20
-0.1319092688
 30
0.0
 40
0.3999999999999999
100
AcDbArc
 50
81.7851937539
 51
86.3829059302
  0
ARC
  5
6B
330
1F
100
AcDbEntity
  8
0
  6
Continuous
 62
     7
100
AcDbCircle
 10
0.0
 20
0.0
 30
0.0
 40
1.05
100
AcDbArc
 50
12.4386991641
 51
14.5613008359
  0
ARC
  5
6C
330
1F
100
AcDbEntity
  8
0
  6
Continuous
 62
     7
100
AcDbCircle
 10
0.6984094766
 20
0.6704730097
 30
0.0
 40
0.4000000000000002
100
AcDbArc
 50
309.6170940698
 51
314.2148062461
  0
ARC
  5
6D
330
1F
100
AcDbEntity
  8
0
  6
Continuous
 62
     7
100
AcDbCircle
 10
0.9679460887
 20
0.0197540651
 30
0.0
 40
0.4000000000000009
100
AcDbArc
 50
90.7851937539
 51
95.3829059302
  0
ARC
  5
6E
330
1F
100
AcDbEntity
  8
0
  6
Continuous
 62
     7
100
AcDbCircle
 10
0.0
 20
0.0
 30
0.0
 40
1.05
100
AcDbArc
 50
21.4386991641
 51
23.5613008359
  0
ARC
  5
6F
330
1F
100
AcDbEntity
  8
0
  6
Continuous
 62
     7
100
AcDbCircle
 10
0.9591192827
 20
0.1319092688
 30
0.0
 40
0.3999999999999999
100
AcDbArc
 50
273.6170940698
 51
278.2148062461
  0
ARC
  5
70
330
1F
100
AcDbEntity
  8
0
  6
Continuous
 62
     7
100
AcDbCircle
 10
0.7946959836
 20
-0.5529630615
 30
0.0
 40
0.3999999999999996
100
AcDbArc
 50
54.7851937539
 51
59.3829059302
  0
ARC
  5
71
330
1F
100
AcDbEntity
  8
0
  6
Continuous
 62
     7
100
AcDbCircle
 10
0.0
 20
0.0
 30
0.0
 40
1.05
100
AcDbArc
 50
345.4386991641
 51
347.5613008359
  0
ARC
  5
72
330
1F
100
AcDbEntity
  8
0
  6
Continuous
 62
     7
100
AcDbCircle
 10
0.9679460887
 20
-0.0197540651
 30
0.0
 40
0.3999999999999999
100
AcDbArc
 50
264.6170940698
 51
269.2148062461
  0
ARC
  5
73
330
1F
100
AcDbEntity
  8
0
  6
Continuous
 62
     7
100
AcDbCircle
 10
0.6984094766
 20
-0.6704730097
 30
0.0
 40
0.4000000000000022
100
AcDbArc
 50
45.7851937539
 51
50.3829059302
  0
ARC
  5
74
330
1F
100
AcDbEntity
  8
0
  6
Continuous
 62
     7
100
AcDbCircle
 10
0.0
 20
0.0
 30
0.0
 40
1.050000000000001
100
AcDbArc
 50
336.4386991641
 51
338.5613008359
  0
ARC
  5
75
330
1F
100
AcDbEntity
  8
0
  6
Continuous
 62
     7
100
AcDbCircle
 10
0.9529388495
 20
-0.1709309884
 30
0.0
 40
0.4000000000000003
100
AcDbArc
 50
255.6170940698
 51
260.2148062461
  0
ARC
  5
76
330
1F
100
AcDbEntity
  8
0
  6
Continuous
 62
     7
100
AcDbCircle
 10
0.5849258104
 20
-0.7714736872
 30
0.0
 40
0.4000000000000011
100
AcDbArc
 50
36.7851937539
 51
41.3829059302
  0
ARC
  5
77
330
1F
100
AcDbEntity
  8
0
  6
Continuous
 62
     7
100
AcDbCircle
 10
0.0
 20
0.0
 30
0.0
 40
1.05
100
AcDbArc
 50
327.4386991641
 51
329.5613008359
  0
ARC
  5
78
330
1F
100
AcDbEntity
  8
0
  6
Continuous
 62
     7
100
AcDbCircle
 10
0.9144670932
 20
-0.3178990234
 30
0.0
 40
0.3999999999999995
100
AcDbArc
 50
246.6170940698
 51
251.2148062461
  0
ARC
  5
79
330
1F
100
AcDbEntity
  8
0
  6
Continuous
 62
     7
100
AcDbCircle
 10
0.4570393294
 20
-0.8534781222
 30
0.0
 40
0.4000000000000005
100
AcDbArc
 50
27.7851937539
 51
32.3829059302
  0
ARC
  5
7A
330
1F
100
AcDbEntity
  8
0
  6
Continuous
 62
     7
100
AcDbCircle
 10
0.0
 20
0.0
 30
0.0
 40
1.05
100
AcDbArc
 50
318.4386991641
 51
320.5613008359
  0
ARC
  5
7B
330
1F
100
AcDbEntity
  8
0
  6
Continuous
 62
     7
100
AcDbCircle
 10
0.8534781222
 20
-0.4570393294
 30
0.0
 40
0.4000000000000004
100
AcDbArc
 50
237.6170940698
 51
242.2148062461
  0
ARC
  5
7C
330
1F
100
AcDbEntity
  8
0
  6
Continuous
 62
     7
100
AcDbCircle
 10
0.3178990234
 20
-0.9144670932
 30
0.0
 40
0.3999999999999992
100
AcDbArc
 50
18.7851937539
 51
23.3829059302
  0
ARC
  5
7D
330
1F
100
AcDbEntity
  8
0
  6
Continuous
 62
     7
100
AcDbCircle
 10
0.0
 20
0.0
 30
0.0
 40
1.050000000000001
100
AcDbArc
 50
309.4386991641
 51
311.5613008359
  0
ARC
  5
7E
330
1F
100
AcDbEntity
  8
0
  6
Continuous
 62
     7
100
AcDbCircle
 10
0.7714736872
 20
-0.5849258104
 30
0.0
 40
0.4
100
AcDbArc
 50
228.6170940698
 51
233.2148062461
  0
ARC
  5
7F
330
1F
100
AcDbEntity
  8
0
  6
Continuous
 62
     7
100
AcDbCircle
 10
0.1709309884
 20
-0.9529388495
 30
0.0
 40
0.3999999999999997
100
AcDbArc
 50
9.7851937539
 51
14.3829059302
  0
ARC
  5
80
330
1F
100
AcDbEntity
  8
0
  6
Continuous
 62
     7
100
AcDbCircle
 10
0.0
 20
0.0
 30
0.0
 40
1.05
100
AcDbArc
 50
300.4386991641
 51
302.5613008359
  0
ARC
  5
81
330
1F
100
AcDbEntity
  8
0
  6
Continuous
 62
     7
100
AcDbCircle
 10
0.6704730097
 20
-0.6984094766
 30
0.0
 40
0.3999999999999999
100
AcDbArc
 50
219.6170940698
 51
224.2148062461
  0
ARC
  5
82
330
1F
100
AcDbEntity
  8
0
  6
Continuous
 62
     7
100
AcDbCircle
 10
0.0197540651
 20
-0.9679460887
 30
0.0
 40
0.3999999999999998
100
AcDbArc
 50
0.7851937539
 51
5.3829059302
  0
ARC
  5
83
330
1F
100
AcDbEntity
  8
0
  6
Continuous
 62
     7
100
AcDbCircle
 10
0.0
 20
0.0
 30
0.0
 40
1.05
100
AcDbArc
 50
291.4386991641
 51
293.5613008359
  0
ARC
  5
84
330
1F
100
AcDbEntity
  8
0
  6
Continuous
 62
     7
100
AcDbCircle
 10
0.5529630615
 20
-0.7946959836
 30
0.0
 40
0.4000000000000069
100
AcDbArc
 50
210.6170940698
 51
215.2148062461
  0
ARC
  5
85
330
1F
100
AcDbEntity
  8
0
  6
Continuous
 62
     7
100
AcDbCircle
 10
-0.1319092688
 20
-0.9591192827
 30
0.0
 40
0.3999999999999934
100
AcDbArc
 50
351.7851937539
 51
356.3829059302
  0
ARC
  5
86
330
1F
100
AcDbEntity
  8
0
  6
Continuous
 62
     7
100
AcDbCircle
 10
0.0
 20
0.0
 30
0.0
 40
1.05
100
AcDbArc
 50
282.4386991641
 51
284.5613008359
  0
ARC
  5
87
330
1F
100
AcDbEntity
  8
0
  6
Continuous
 62
     7
100
AcDbCircle
 10
0.4218373276
 20
-0.871414438
 30
0.0
 40
0.4000000000000007
100
AcDbArc
 50
201.6170940698
 51
206.2148062461
  0
ARC
  5
88
330
1F
100
AcDbEntity
  8
0
  6
Continuous
 62
     7
100
AcDbCircle
 10
-0.2803245587
 20
-0.9266757769
 30
0.0
 40
0.4
100
AcDbArc
 50
342.7851937539
 51
347.3829059302
  0
ARC
  5
89
330
1F
100
AcDbEntity
  8
0
  6
Continuous
 62
     7
100
AcDbCircle
 10
0.0
 20
0.0
 30
0.0
 40
1.05
100
AcDbArc
 50
273.4386991641
 51
275.5613008359
  0
ARC
  5
8A
330
1F
100
AcDbEntity
  8
0
  6
Continuous
 62
     7
100
AcDbCircle
 10
0.2803245587
 20
-0.9266757769
 30
0.0
 40
0.4000000000000002
100
AcDbArc
 50
192.6170940698
 51
197.2148062461
  0
ARC
  5
8B
330
1F
100
AcDbEntity
  8
0
  6
Continuous
 62
     7
100
AcDbCircle
 10
-0.4218373276
 20
-0.871414438
 30
0.0
 40
0.3999999999999997
100
AcDbArc
 50
333.7851937539
 51
338.3829059302
  0
ARC
  5
8C
330
1F
100
AcDbEntity
  8
0
  6
Continuous
 62
     7
100
AcDbCircle
 10
0.0
 20
0.0
 30
0.0
 40
1.05
100
AcDbArc
 50
264.4386991641
 51
266.5613008359
  0
ARC
  5
8D
330
1F
100
AcDbEntity
  8
0
  6
Continuous
 62
     7
100
AcDbCircle
 10
0.1319092688
 20
-0.9591192827
 30
0.0
 40
0.4000000000000001
100
AcDbArc
 50
183.6170940698
 51
188.2148062461
  0
ARC
  5
8E
330
1F
100
AcDbEntity
  8
0
  6
Continuous
 62
     7
100
AcDbCircle
 10
-0.5529630615
 20
-0.7946959836
 30
0.0
 40
0.4000000000000002
100
AcDbArc
 50
324.7851937539
 51
329.3829059302
  0
ARC
  5
8F
330
1F
100
AcDbEntity
  8
0
  6
Continuous
 62
     7
100
AcDbCircle
 10
0.0
 20
0.0
 30
0.0
 40
1.05
100
AcDbArc
 50
255.4386991641
 51
257.5613008359
  0
ARC
  5
90
330
1F
100
AcDbEntity
  8
0
  6
Continuous
 62
     7
100
AcDbCircle
 10
-0.0197540651
 20
-0.9679460887
 30
0.0
 40
0.3999999999999999
100
AcDbArc
 50
174.6170940698
 51
179.2148062461
  0
ARC
  5
91
330
1F
100
AcDbEntity
  8
0
  6
Continuous
 62
     7
100
AcDbCircle
 10
-0.6704730097
 20
-0.6984094766
 30
0.0
 40
0.3999999999999994
100
AcDbArc
 50
315.7851937539
 51
320.3829059302
  0
ARC
  5
92
330
1F
100
AcDbEntity
  8
0
  6
Continuous
 62
     7
100
AcDbCircle
 10
0.0
 20
0.0
 30
0.0
 40
1.05
100
AcDbArc
 50
246.4386991641
 51
248.5613008359
  0
ARC
  5
93
330
1F
100
AcDbEntity
  8
0
  6
Continuous
 62
     7
100
AcDbCircle
 10
-0.1709309884
 20
-0.9529388495
 30
0.0
 40
0.3999999999999999
100
AcDbArc
 50
165.6170940698
 51
170.2148062461
  0
ARC
  5
94
330
1F
100
AcDbEntity
  8
0
  6
Continuous
 62
     7
100
AcDbCircle
 10
-0.7714736872
 20
-0.5849258104
 30
0.0
 40
0.4000000000000002
100
AcDbArc
 50
306.7851937539
 51
311.3829059302
  0
ARC
  5
95
330
1F
100
AcDbEntity
  8
0
  6
Continuous
 62
     7
100
AcDbCircle
 10
0.0
 20
0.0
 30
0.0
 40
1.050000000000001
100
AcDbArc
 50
237.4386991641
 51
239.5613008359
  0
ARC
  5
96
330
1F
100
AcDbEntity
  8
0
  6
Continuous
 62
     7
100
AcDbCircle
 10
-0.3178990234
 20
-0.9144670932
 30
0.0
 40
0.4000000000000009
100
AcDbArc
 50
156.6170940698
 51
161.2148062461
  0
ARC
  5
97
330
1F
100
AcDbEntity
  8
0
  6
Continuous
 62
     7
100
AcDbCircle
 10
-0.8534781222
 20
-0.4570393294
 30
0.0
 40
0.4000000000000015
100
AcDbArc
 50
297.7851937539
 51
302.3829059302
  0
ARC
  5
98
330
1F
100
AcDbEntity
  8
0
  6
Continuous
 62
     7
100
AcDbCircle
 10
0.0
 20
0.0
 30
0.0
 40
1.050000000000001
100
AcDbArc
 50
228.4386991641
 51
230.5613008359
  0
ARC
  5
99
330
1F
100
AcDbEntity
  8
0
  6
Continuous
 62
     7
100
AcDbCircle
 10
-0.4570393294
 20
-0.8534781222
 30
0.0
 40
0.4000000000000002
100
AcDbArc
 50
147.6170940698
 51
152.2148062461
  0
ARC
  5
9A
330
1F
100
AcDbEntity
  8
0
  6
Continuous
 62
     7
100
AcDbCircle
 10
-0.9144670932
 20
-0.3178990234
 30
0.0
 40
0.4000000000000007
100
AcDbArc
 50
288.7851937539
 51
293.3829059302
  0
ARC
  5
9B
330
1F
100
AcDbEntity
  8
0
  6
Continuous
 62
     7
100
AcDbCircle
 10
0.0
 20
0.0
 30
0.0
 40
1.05
100
AcDbArc
 50
219.4386991641
 51
221.5613008359
  0
ARC
  5
9C
330
1F
100
AcDbEntity
  8
0
  6
Continuous
 62
     7
100
AcDbCircle
 10
-0.5849258104
 20
-0.7714736872
 30
0.0
 40
0.4000000000000002
100
AcDbArc
 50
138.6170940698
 51
143.2148062461
  0
ARC
  5
9D
330
1F
100
AcDbEntity
  8
0
  6
Continuous
 62
     7
100
AcDbCircle
 10
-0.9529388495
 20
-0.1709309884
 30
0.0
 40
0.4000000000000007
100
AcDbArc
 50
279.7851937539
 51
284.3829059302
  0
ARC
  5
9E
330
1F
100
AcDbEntity
  8
0
  6
Continuous
 62
     7
100
AcDbCircle
 10
0.0
 20
0.0
 30
0.0
 40
1.05
100
AcDbArc
 50
210.4386991641
 51
212.5613008359
  0
ARC
  5
9F
330
1F
100
AcDbEntity
  8
0
  6
Continuous
 62
     7
100
AcDbCircle
 10
-0.6984094766
 20
-0.6704730097
 30
0.0
 40
0.4000000000000005
100
AcDbArc
 50
129.6170940698
 51
134.2148062461
  0
ARC
  5
A0
330
1F
100
AcDbEntity
  8
0
  6
Continuous
 62
     7
100
AcDbCircle
 10
-0.9679460887
 20
-0.0197540651
 30
0.0
 40
0.4000000000000005
100
AcDbArc
 50
270.7851937539
 51
275.3829059302
  0
ARC
  5
A1
330
1F
100
AcDbEntity
  8
0
  6
Continuous
 62
     7
100
AcDbCircle
 10
0.0
 20
0.0
 30
0.0
 40
1.050000000000001
100
AcDbArc
 50
201.4386991641
 51
203.5613008359
  0
ARC
  5
A2
330
1F
100
AcDbEntity
  8
0
  6
Continuous
 62
     7
100
AcDbCircle
 10
-0.7946959836
 20
-0.5529630615
 30
0.0
 40
0.3999999999999995
100
AcDbArc
 50
120.6170940698
 51
125.2148062461
  0
ARC
  5
A3
330
1F
100
AcDbEntity
  8
0
  6
Continuous
 62
     7
100
AcDbCircle
 10
-0.9591192827
 20
0.1319092688
 30
0.0
 40
0.3999999999999999
100
AcDbArc
 50
261.7851937539
 51
266.3829059302
  0
ARC
  5
A4
330
1F
100
AcDbEntity
  8
0
  6
Continuous
 62
     7
100
AcDbCircle
 10
0.0
 20
0.0
 30
0.0
 40
1.050000000000001
100
AcDbArc
 50
192.4386991641
 51
194.5613008359
  0
ARC
  5
A5
330
1F
100
AcDbEntity
  8
0
  6
Continuous
 62
     7
100
AcDbCircle
 10
-0.871414438
 20
-0.4218373276
 30
0.0
 40
0.4000000000000004
100
AcDbArc
 50
111.6170940698
 51
116.2148062461
  0
ARC
  5
A6
330
1F
100
AcDbEntity
  8
0
  6
Continuous
 62
     7
100
AcDbCircle
 10
-0.9266757769
 20
0.2803245587
 30
0.0
 40
0.4000000000000004
100
AcDbArc
 50
252.7851937539
 51
257.3829059302
  0
ARC
  5
A7
330
1F
100
AcDbEntity
  8
0
  6
Continuous
 62
     7
100
AcDbCircle
 10
0.0
 20
0.0
 30
0.0
 40
1.050000000000001
100
AcDbArc
 50
183.4386991641
 51
185.5613008359
  0
ARC
  5
A8
330
1F
100
AcDbEntity
  8
0
  6
Continuous
 62
     7
100
AcDbCircle
 10
-0.9266757769
 20
-0.2803245587
 30
0.0
 40
0.4
100
AcDbArc
 50
102.6170940698
 51
107.2148062461
  0
ARC
  5
A9
330
1F
100
AcDbEntity
  8
0
  6
Continuous
 62
     7
100
AcDbCircle
 10
-0.871414438
 20
0.4218373276
 30
0.0
 40
0.3999999999999999
100
AcDbArc
 50
243.7851937539
 51
248.3829059302
  0
ARC
  5
AA
330
1F
100
AcDbEntity
  8
0
  6
Continuous
 62
     7
100
AcDbCircle
 10
0.0
 20
0.0
 30
0.0
 40
1.05
100
AcDbArc
 50
174.4386991641
 51
176.5613008359
  0
ARC
  5
AB
330
1F
100
AcDbEntity
  8
0
  6
Continuous
 62
     7
100
AcDbCircle
 10
-0.9591192827
 20
-0.1319092688
 30
0.0
 40
0.4000000000000002
100
AcDbArc
 50
93.6170940698
 51
98.2148062461
  0
ARC
  5
AC
330
1F
100
AcDbEntity
  8
0
  6
Continuous
 62
     7
100
AcDbCircle
 10
-0.7946959836
 20
0.5529630615
 30
0.0
 40
0.3999999999999989
100
AcDbArc
 50
234.7851937539
 51
239.3829059302
  0
ARC
  5
AD
330
1F
100
AcDbEntity
  8
0
  6
Continuous
 62
     7
100
AcDbCircle
 10
0.0
 20
0.0
 30
0.0
 40
1.049999999999999
100
AcDbArc
 50
165.4386991641
 51
167.5613008359
  0
ARC
  5
AE
330
1F
100
AcDbEntity
  8
0
  6
Continuous
 62
     7
100
AcDbCircle
 10
-0.9679460887
 20
0.0197540651
 30
0.0
 40
0.4000000000000001
100
AcDbArc
 50
84.6170940698
 51
89.2148062461
  0
ARC
  5
AF
330
1F
100
AcDbEntity
  8
0
  6
Continuous
 62
     7
100
AcDbCircle
 10
-0.6984094766
 20
0.6704730097
 30
0.0
 40
0.4000000000000007
100
AcDbArc
 50
225.7851937539
 51
230.3829059302
  0
ARC
  5
B0
330
1F
100
AcDbEntity
  8
0
  6
Continuous
 62
     7
100
AcDbCircle
 10
0.0
 20
0.0
 30
0.0
 40
1.05
100
AcDbArc
 50
156.4386991641
 51
158.5613008359
  0
ARC
  5
B1
330
1F
100
AcDbEntity
  8
0
  6
Continuous
 62
     7
100
AcDbCircle
 10
-0.9529388495
 20
0.1709309884
 30
0.0
 40
0.3999999999999997
100
AcDbArc
 50
75.6170940698
 51
80.2148062461
  0
ARC
  5
B2
330
1F
100
AcDbEntity
  8
0
  6
Continuous
 62
     7
100
AcDbCircle
 10
-0.5849258104
 20
0.7714736872
 30
0.0
 40
0.400000000000001
100
AcDbArc
 50
216.7851937539
 51
221.3829059302
  0
ARC
  5
B3
330
1F
100
AcDbEntity
  8
0
  6
Continuous
 62
     7
100
AcDbCircle
 10
0.0
 20
0.0
 30
0.0
 40
1.05
100
AcDbArc
 50
147.4386991641
 51
149.5613008359
  0
ARC
  5
B4
330
1F
100
AcDbEntity
  8
0
  6
Continuous
 62
     7
100
AcDbCircle
 10
-0.9144670932
 20
0.3178990234
 30
0.0
 40
0.3999999999999996
100
AcDbArc
 50
66.6170940698
 51
71.2148062461
  0
ARC
  5
B5
330
1F
100
AcDbEntity
  8
0
  6
Continuous
 62
     7
100
AcDbCircle
 10
-0.4570393294
 20
0.8534781222
 30
0.0
 40
0.4000000000000006
100
AcDbArc
 50
207.7851937539
 51
212.3829059302
  0
ARC
  5
B6
330
1F
100
AcDbEntity
  8
0
  6
Continuous
 62
     7
100
AcDbCircle
 10
0.0
 20
0.0
 30
0.0
 40
1.05
100
AcDbArc
 50
138.4386991641
 51
140.5613008359
  0
ARC
  5
B7
330
1F
100
AcDbEntity
  8
0
  6
Continuous
 62
     7
100
AcDbCircle
 10
-0.8534781222
 20
0.4570393294
 30
0.0
 40
0.3999999999999994
100
AcDbArc
 50
57.6170940698
 51
62.2148062461
  0
ARC
  5
B8
330
1F
100
AcDbEntity
  8
0
  6
Continuous
 62
     7
100
AcDbCircle
 10
-0.3178990234
 20
0.9144670932
 30
0.0
 40
0.4000000000000013
100
AcDbArc
 50
198.7851937539
 51
203.3829059302
  0
ARC
  5
B9
330
1F
100
AcDbEntity
  8
0
  6
Continuous
 62
     7
100
AcDbCircle
 10
0.0
 20
0.0
 30
0.0
 40
1.05
100
AcDbArc
 50
129.4386991641
 51
131.5613008359
  0
ARC
  5
BA
330
1F
100
AcDbEntity
  8
0
  6
Continuous
 62
     7
100
AcDbCircle
 10
-0.7714736872
 20
0.5849258104
 30
0.0
 40
0.4000000000000002
100
AcDbArc
 50
48.6170940698
 51
53.2148062461
  0
ARC
  5
BB
330
1F
100
AcDbEntity
  8
0
  6
Continuous
 62
     7
100
AcDbCircle
 10
-0.1709309884
 20
0.9529388495
 30
0.0
 40
0.4000000000000004
100
AcDbArc
 50
189.7851937539
 51
194.3829059302
  0
ARC
  5
BC
330
1F
100
AcDbEntity
  8
0
  6
Continuous
 62
     7
100
AcDbCircle
 10
0.0
 20
0.0
 30
0.0
 40
1.05
100
AcDbArc
 50
120.4386991641
 51
122.5613008359
  0
ARC
  5
BD
330
1F
100
AcDbEntity
  8
0
  6
Continuous
 62
     7
100
AcDbCircle
 10
-0.6704730097
 20
0.6984094766
 30
0.0
 40
0.3999999999999991
100
AcDbArc
 50
39.6170940698
 51
44.2148062461
  0
ARC
  5
BE
330
1F
100
AcDbEntity
  8
0
  6
Continuous
 62
     7
100
AcDbCircle
 10
-0.0197540651
 20
0.9679460887
 30
0.0
 40
0.4000000000000001
100
AcDbArc
 50
180.7851937539
 51
185.3829059302
  0
ARC
  5
BF
330
1F
100
AcDbEntity
  8
0
  6
Continuous
 62
     7
100
AcDbCircle
 10
0.0
 20
0.0
 30
0.0
 40
1.049999999999999
100
AcDbArc
 50
111.4386991641
 51
113.5613008359
  0
ARC
  5
C0
330
1F
100
AcDbEntity
  8
0
  6
Continuous
 62
     7
100
AcDbCircle
 10
-0.5529630615
 20
0.7946959836
 30
0.0
 40
0.3999999999999995
100
AcDbArc
 50
30.6170940698
 51
35.2148062461
  0
ARC
  5
C1
330
1F
100
AcDbEntity
  8
0
  6
Continuous
 62
     7
100
AcDbCircle
 10
0.1319092688
 20
0.9591192827
 30
0.0
 40
0.3999999999999999
100
AcDbArc
 50
171.7851937539
 51
176.3829059302
  0
ARC
  5
C2
330
1F
100
AcDbEntity
  8
0
  6
Continuous
 62
     7
100
AcDbCircle
 10
0.0
 20
0.0
 30
0.0
 40
1.05
100
AcDbArc
 50
102.4386991641
 51
104.5613008359
  0
ARC
  5
C3
330
1F
100
AcDbEntity
  8
0
  6
Continuous
 62
     7
100
AcDbCircle
 10
-0.4218373276
 20
0.871414438
 30
0.0
 40
0.4
100
AcDbArc
 50
21.6170940698
 51
26.2148062461
  0
ARC
  5
C4
330
1F
100
AcDbEntity
  8
0
  6
Continuous
 62
     7
100
AcDbCircle
 10
0.2803245587
 20
0.9266757769
 30
0.0
 40
0.4000000000000138
100
AcDbArc
 50
162.7851937539
 51
167.3829059302
  0
ARC
  5
C5
330
1F
100
AcDbEntity
  8
0
  6
Continuous
 62
     7
100
AcDbCircle
 10
0.0
 20
0.0
 30
0.0
 40
1.049999999999999
100
AcDbArc
 50
93.4386991641
 51
95.5613008359
  0
ARC
  5
C6
330
1F
100
AcDbEntity
  8
0
  6
Continuous
 62
     7
100
AcDbCircle
 10
-0.2803245587
 20
0.9266757769
 30
0.0
 40
0.4000000000000002
100
AcDbArc
 50
12.6170940698
 51
17.2148062461
  0
ARC
  5
C7
330
1F
100
AcDbEntity
  8
0
  6
Continuous
 62
     7
100
AcDbCircle
 10
0.4218373276
 20
0.871414438
 30
0.0
 40
0.4000000000000133
100
AcDbArc
 50
153.7851937539
 51
158.3829059302
  0
ARC
  5
C8
330
1F
100
AcDbEntity
  8
0
  6
Continuous
 62
     7
100
AcDbCircle
 10
0.0
 20
0.0
 30
0.0
 40
1.05
100
AcDbArc
 50
84.4386991641
 51
86.5613008359
  0
ARC
  5
C9
330
1F
100
AcDbEntity
  8
0
  6
Continuous
 62
     7
100
AcDbCircle
 10
-0.1319092688
 20
0.9591192827
 30
0.0
 40
0.4000000000000001
100
AcDbArc
 50
3.6170940698
 51
8.2148062461
  0
ARC
  5
CA
330
1F
100
AcDbEntity
  8
0
  6
Continuous
 62
     7
100
AcDbCircle
 10
0.5529630615
 20
0.7946959836
 30
0.0
 40
0.4
100
AcDbArc
 50
144.7851937539
 51
149.3829059302
  0
ARC
  5
CB
330
1F
100
AcDbEntity
  8
0
  6
Continuous
 62
     7
100
AcDbCircle
 10
0.0
 20
0.0
 30
0.0
 40
1.050000000000001
100
AcDbArc
 50
75.4386991641
 51
77.5613008359
  0
ARC
  5
CC
330
1F
100
AcDbEntity
  8
0
  6
Continuous
 62
     7
100
AcDbCircle
 10
0.0197540651
 20
0.9679460887
 30
0.0
 40
0.3999999999999998
100
AcDbArc
 50
354.6170940698
 51
359.2148062461
  0
ARC
  5
CD
330
1F
100
AcDbEntity
  8
0
  6
Continuous
 62
     7
100
AcDbCircle
 10
0.6704730097
 20
0.6984094766
 30
0.0
 40
0.4000000000000004
100
AcDbArc
 50
135.7851937539
 51
140.3829059302
  0
ARC
  5
CE
330
1F
100
AcDbEntity
  8
0
  6
Continuous
 62
     7
100
AcDbCircle
 10
0.0
 20
0.0
 30
0.0
 40
1.049999999999999
100
AcDbArc
 50
66.4386991641
 51
68.5613008359
  0
ARC
  5
CF
330
1F
100
AcDbEntity
  8
0
  6
Continuous
 62
     7
100
AcDbCircle
 10
0.1709309884
 20
0.9529388495
 30
0.0
 40
0.4000000000000002
100
AcDbArc
 50
345.6170940698
 51
350.2148062461
  0
ARC
  5
D0
330
1F
100
AcDbEntity
  8
0
  6
Continuous
 62
     7
100
AcDbCircle
 10
0.7714736872
 20
0.5849258104
 30
0.0
 40
0.4000000000000009
100
AcDbArc
 50
126.7851937539
 51
131.3829059302
  0
ARC
  5
D1
330
1F
100
AcDbEntity
  8
0
  6
Continuous
 62
     7
100
AcDbCircle
 10
0.0
 20
0.0
 30
0.0
 40
1.05
100
AcDbArc
 50
57.4386991641
 51
59.5613008359
  0
ARC
  5
D2
330
1F
100
AcDbEntity
  8
0
  6
Continuous
 62
     7
100
AcDbCircle
 10
0.3178990234
 20
0.9144670932
 30
0.0
 40
0.4000000000000001
100
AcDbArc
 50
336.6170940698
 51
341.2148062461
  0
ARC
  5
D3
330
1F
100
AcDbEntity
  8
0
  6
Continuous
 62
     7
100
AcDbCircle
 10
0.8534781222
 20
0.4570393294
 30
0.0
 40
0.3999999999999999
100
AcDbArc
 50
117.7851937539
 51
122.3829059302
  0
ARC
  5
D4
330
1F
100
AcDbEntity
  8
0
  6
Continuous
 62
     7
100
AcDbCircle
 10
0.0
 20
0.0
 30
0.0
 40
1.050000000000001
100
AcDbArc
 50
48.4386991641
 51
50.5613008359
  0
ARC
  5
D5
330
1F
100
AcDbEntity
  8
0
  6
Continuous
 62
     7
100
AcDbCircle
 10
0.4570393294
 20
0.8534781222
 30
0.0
 40
0.4000000000000014
100
AcDbArc
 50
327.6170940698
 51
332.2148062461
  0
ARC
  5
D6
330
1F
100
AcDbEntity
  8
0
  6
Continuous
 62
     7
100
AcDbCircle
 10
0.9144670932
 20
0.3178990234
 30
0.0
 40
0.4000000000000004
100
AcDbArc
 50
108.7851937539
 51
113.3829059302
  0
ARC
  5
D7
330
1F
100
AcDbEntity
  8
0
  6
Continuous
 62
     7
100
AcDbCircle
 10
0.0
 20
0.0
 30
0.0
 40
1.050000000000001
100
AcDbArc
 50
39.4386991641
 51
41.5613008359
  0
ARC
  5
D8
330
1F
100
AcDbEntity
  8
0
  6
Continuous
 62
     7
100
AcDbCircle
 10
0.5849258104
 20
0.7714736872
 30
0.0
 40
0.4000000000000011
100
AcDbArc
 50
318.6170940698
 51
323.2148062461
  0
ARC
  5
D9
330
1F
100
AcDbEntity
  8
0
  6
Continuous
 62
     7
100
AcDbCircle
 10
0.9529388495
 20
0.1709309884
 30
0.0
 40
0.3999999999999996
100
AcDbArc
 50
99.7851937539
 51
104.3829059302
  0
ARC
  5
DA
330
1F
100
AcDbEntity
  8
0
  6
Continuous
 62
     7
100
AcDbCircle
 10
0.0
 20
0.0
 30
0.0
 40
1.05
100
AcDbArc
 50
30.4386991641
 51
32.5613008359
  0
ARC
  5
DB
330
1F
100
AcDbEntity
  8
0
  6
Continuous
 62
     7
100
AcDbCircle
 10
-0.7714736872
 20
0.5849258104
 30
0.0
 40
0.4000000000000003
100
AcDbArc
 50
36.5243514544
 51
48.6170940698
  0
ARC
  5
DC
330
1F
100
AcDbEntity
  8
0
  6
Continuous
 62
     7
100
AcDbCircle
 10
0.0
 20
0.0
 30
0.0
 40
0.9380000000000005
100
AcDbArc
 50
115.3290731059
 51
118.6709268941
  0
ARC
  5
DD
330
1F
100
AcDbEntity
  8
0
  6
Continuous
 62
     7
100
AcDbCircle
 10
-0.0197540651
 20
0.9679460887
 30
0.0
 40
0.4000000000000001
100
AcDbArc
 50
185.3829059302
 51
197.4756485456
  0
ARC
  5
DE
330
1F
100
AcDbEntity
  8
0
  6
Continuous
 62
     7
100
AcDbCircle
 10
-0.6704730097
 20
0.6984094766
 30
0.0
 40
0.3999999999999991
100
AcDbArc
 50
27.5243514544
 51
39.6170940698
  0
ARC
  5
DF
330
1F
100
AcDbEntity
  8
0
  6
Continuous
 62
     7
100
AcDbCircle
 10
0.0
 20
0.0
 30
0.0
 40
0.9380000000000004
100
AcDbArc
 50
106.3290731059
 51
109.6709268941
  0
ARC
  5
E0
330
1F
100
AcDbEntity
  8
0
  6
Continuous
 62
     7
100
AcDbCircle
 10
0.1319092688
 20
0.9591192827
 30
0.0
 40
0.3999999999999999
100
AcDbArc
 50
180.0
 51
188.4756485456
  0
ARC
  5
E1
330
1F
100
AcDbEntity
  8
0
  6
Continuous
 62
     7
100
AcDbCircle
 10
0.1319092688
 20
0.9591192827
 30
0.0
 40
0.3999999999999998
100
AcDbArc
 50
176.3829059302
 51
180.0
  0
ARC
  5
E2
330
1F
100
AcDbEntity
  8
0
  6
Continuous
 62
     7
100
AcDbCircle
 10
-0.5529630615
 20
0.7946959836
 30
0.0
 40
0.3999999999999999
100
AcDbArc
 50
18.5243514544
 51
30.6170940698
  0
ARC
  5
E3
330
1F
100
AcDbEntity
  8
0
  6
Continuous
 62
     7
100
AcDbCircle
 10
0.0
 20
0.0
 30
0.0
 40
0.9380000000000005
100
AcDbArc
 50
97.3290731059
 51
100.6709268941
  0
ARC
  5
E4
330
1F
100
AcDbEntity
  8
0
  6
Continuous
 62
     7
100
AcDbCircle
 10
0.2803245587
 20
0.9266757769
 30
0.0
 40
0.4000000000000138
100
AcDbArc
 50
167.3829059302
 51
179.4756485456
  0
ARC
  5
E5
330
1F
100
AcDbEntity
  8
0
  6
Continuous
 62
     7
100
AcDbCircle
 10
-0.4218373276
 20
0.871414438
 30
0.0
 40
0.4
100
AcDbArc
 50
9.5243514544
 51
21.6170940698
  0
ARC
  5
E6
330
1F
100
AcDbEntity
  8
0
  6
Continuous
 62
     7
100
AcDbCircle
 10
0.0
 20
0.0
 30
0.0
 40
0.9379999999999995
100
AcDbArc
 50
88.3290731059
 51
91.6709268941
  0
ARC
  5
E7
330
1F
100
AcDbEntity
  8
0
  6
Continuous
 62
     7
100
AcDbCircle
 10
0.4218373276
 20
0.871414438
 30
0.0
 40
0.4000000000000133
100
AcDbArc
 50
158.3829059302
 51
170.4756485456
  0
ARC
  5
E8
330
1F
100
AcDbEntity
  8
0
  6
Continuous
 62
     7
100
AcDbCircle
 10
-0.2803245587
 20
0.9266757769
 30
0.0
 40
0.3999999999999997
100
AcDbArc
 50
0.5243514544
 51
12.6170940698
  0
ARC
  5
E9
330
1F
100
AcDbEntity
  8
0
  6
Continuous
 62
     7
100
AcDbCircle
 10
0.0
 20
0.0
 30
0.0
 40
0.9380000000000001
100
AcDbArc
 50
79.3290731059
 51
82.6709268941
  0
ARC
  5
EA
330
1F
100
AcDbEntity
  8
0
  6
Continuous
 62
     7
100
AcDbCircle
 10
0.5529630615
 20
0.7946959836
 30
0.0
 40
0.3999999999999996
100
AcDbArc
 50
149.3829059302
 51
161.4756485456
  0
ARC
  5
EB
330
1F
100
AcDbEntity
  8
0
  6
Continuous
 62
     7
100
AcDbCircle
 10
-0.1319092688
 20
0.9591192827
 30
0.0
 40
0.4000000000000001
100
AcDbArc
 50
351.5243514544
 51
3.6170940698
  0
ARC
  5
EC
330
1F
100
AcDbEntity
  8
0
  6
Continuous
 62
     7
100
AcDbCircle
 10
0.0
 20
0.0
 30
0.0
 40
0.938000000000001
100
AcDbArc
 50
70.3290731059
 51
73.6709268941
  0
ARC
  5
ED
330
1F
100
AcDbEntity
  8
0
  6
Continuous
 62
     7
100
AcDbCircle
 10
0.6704730097
 20
0.6984094766
 30
0.0
 40
0.4000000000000004
100
AcDbArc
 50
140.3829059302
 51
152.4756485456
  0
ARC
  5
EE
330
1F
100
AcDbEntity
  8
0
  6
Continuous
 62
     7
100
AcDbCircle
 10
0.0197540651
 20
0.9679460887
 30
0.0
 40
0.3999999999999998
100
AcDbArc
 50
342.5243514544
 51
354.6170940698
  0
ARC
  5
EF
330
1F
100
AcDbEntity
  8
0
  6
Continuous
 62
     7
100
AcDbCircle
 10
0.0
 20
0.0
 30
0.0
 40
0.9380000000000005
100
AcDbArc
 50
61.3290731059
 51
64.6709268941
  0
ARC
  5
F0
330
1F
100
AcDbEntity
  8
0
  6
Continuous
 62
     7
100
AcDbCircle
 10
0.7714736872
 20
0.5849258104
 30
0.0
 40
0.4000000000000004
100
AcDbArc
 50
131.3829059302
 51
143.4756485456
  0
ARC
  5
F1
330
1F
100
AcDbEntity
  8
0
  6
Continuous
 62
     7
100
AcDbCircle
 10
0.1709309884
 20
0.9529388495
 30
0.0
 40
0.4000000000000003
100
AcDbArc
 50
333.5243514544
 51
345.6170940698
  0
ARC
  5
F2
330
1F
100
AcDbEntity
  8
0
  6
Continuous
 62
     7
100
AcDbCircle
 10
0.0
 20
0.0
 30
0.0
 40
0.9379999999999996
100
AcDbArc
 50
52.3290731059
 51
55.6709268941
  0
ARC
  5
F3
330
1F
100
AcDbEntity
  8
0
  6
Continuous
 62
     7
100
AcDbCircle
 10
0.8534781222
 20
0.4570393294
 30
0.0
 40
0.3999999999999999
100
AcDbArc
 50
122.3829059302
 51
134.4756485456
  0
ARC
  5
F4
330
1F
100
AcDbEntity
  8
0
  6
Continuous
 62
     7
100
AcDbCircle
 10
0.3178990234
 20
0.9144670932
 30
0.0
 40
0.4000000000000001
100
AcDbArc
 50
324.5243514544
 51
336.6170940698
  0
ARC
  5
F5
330
1F
100
AcDbEntity
  8
0
  6
Continuous
 62
     7
100
AcDbCircle
 10
0.0
 20
0.0
 30
0.0
 40
0.9380000000000009
100
AcDbArc
 50
43.3290731059
 51
46.6709268941
  0
ARC
  5
F6
330
1F
100
AcDbEntity
  8
0
  6
Continuous
 62
     7
100
AcDbCircle
 10
0.9144670932
 20
0.3178990234
 30
0.0
 40
0.4000000000000004
100
AcDbArc
 50
113.3829059302
 51
125.4756485456
  0
ARC
  5
F7
330
1F
100
AcDbEntity
  8
0
  6
Continuous
 62
     7
100
AcDbCircle
 10
0.4570393294
 20
0.8534781222
 30
0.0
 40
0.4000000000000001
100
AcDbArc
 50
315.5243514544
 51
327.6170940698
  0
ARC
  5
F8
330
1F
100
AcDbEntity
  8
0
  6
Continuous
 62
     7
100
AcDbCircle
 10
0.0
 20
0.0
 30
0.0
 40
0.9380000000000009
100
AcDbArc
 50
34.3290731059
 51
37.6709268941
  0
ARC
  5
F9
330
1F
100
AcDbEntity
  8
0
  6
Continuous
 62
     7
100
AcDbCircle
 10
0.9529388495
 20
0.1709309884
 30
0.0
 40
0.3999999999999996
100
AcDbArc
 50
104.3829059302
 51
116.4756485456
  0
ARC
  5
FA
330
1F
100
AcDbEntity
  8
0
  6
Continuous
 62
     7
100
AcDbCircle
 10
0.5849258104
 20
0.7714736872
 30
0.0
 40
0.4000000000000011
100
AcDbArc
 50
306.5243514544
 51
318.6170940698
  0
ARC
  5
FB
330
1F
100
AcDbEntity
  8
0
  6
Continuous
 62
     7
100
AcDbCircle
 10
0.0
 20
0.0
 30
0.0
 40
0.9380000000000012
100
AcDbArc
 50
25.3290731059
 51
28.6709268941
  0
ARC
  5
FC
330
1F
100
AcDbEntity
  8
0
  6
Continuous
 62
     7
100
AcDbCircle
 10
0.9679460887
 20
0.0197540651
 30
0.0
 40
0.4000000000000009
100
AcDbArc
 50
95.3829059302
 51
107.4756485456
  0
ARC
  5
FD
330
1F
100
AcDbEntity
  8
0
  6
Continuous
 62
     7
100
AcDbCircle
 10
0.6984094766
 20
0.6704730097
 30
0.0
 40
0.4000000000000002
100
AcDbArc
 50
297.5243514544
 51
309.6170940698
  0
ARC
  5
FE
330
1F
100
AcDbEntity
  8
0
  6
Continuous
 62
     7
100
AcDbCircle
 10
0.0
 20
0.0
 30
0.0
 40
0.9379999999999992
100
AcDbArc
 50
16.3290731059
 51
19.6709268941
  0
ARC
  5
FF
330
1F
100
AcDbEntity
  8
0
  6
Continuous
 62
     7
100
AcDbCircle
 10
0.9591192827
 20
-0.1319092688
 30
0.0
 40
0.3999999999999999
100
AcDbArc
 50
86.3829059302
 51
98.4756485456
  0
ARC
  5
100
330
1F
100
AcDbEntity
  8
0
  6
Continuous
 62
     7
100
AcDbCircle
 10
0.7946959836
 20
0.5529630615
 30
0.0
 40
0.3999999999999996
100
AcDbArc
 50
288.5243514544
 51
300.6170940698
  0
ARC
  5
101
330
1F
100
AcDbEntity
  8
0
  6
Continuous
 62
     7
100
AcDbCircle
 10
0.0
 20
0.0
 30
0.0
 40
0.9380000000000005
100
AcDbArc
 50
7.3290731059
 51
10.6709268941
  0
ARC
  5
102
330
1F
100
AcDbEntity
  8
0
  6
Continuous
 62
     7
100
AcDbCircle
 10
0.9266757769
 20
-0.2803245587
 30
0.0
 40
0.4000000000000005
100
AcDbArc
 50
77.3829059302
 51
89.4756485456
  0
ARC
  5
103
330
1F
100
AcDbEntity
  8
0
  6
Continuous
 62
     7
100
AcDbCircle
 10
0.871414438
 20
0.4218373276
 30
0.0
 40
0.3999999999999999
100
AcDbArc
 50
279.5243514544
 51
291.6170940698
  0
ARC
  5
104
330
1F
100
AcDbEntity
  8
0
  6
Continuous
 62
     7
100
AcDbCircle
 10
0.0
 20
0.0
 30
0.0
 40
0.9380000000000012
100
AcDbArc
 50
358.3290731059
 51
1.6709268941
  0
ARC
  5
105
330
1F
100
AcDbEntity
  8
0
  6
Continuous
 62
     7
100
AcDbCircle
 10
0.871414438
 20
-0.4218373276
 30
0.0
 40
0.3999999999999999
100
AcDbArc
 50
68.3829059302
 51
80.4756485456
  0
ARC
  5
106
330
1F
100
AcDbEntity
  8
0
  6
Continuous
 62
     7
100
AcDbCircle
 10
0.9266757769
 20
0.2803245587
 30
0.0
 40
0.4000000000000001
100
AcDbArc
 50
270.5243514544
 51
282.6170940698
  0
ARC
  5
107
330
1F
100
AcDbEntity
  8
0
  6
Continuous
 62
     7
100
AcDbCircle
 10
0.0
 20
0.0
 30
0.0
 40
0.9380000000000006
100
AcDbArc
 50
349.3290731059
 51
352.6709268941
  0
ARC
  5
108
330
1F
100
AcDbEntity
  8
0
  6
Continuous
 62
     7
100
AcDbCircle
 10
0.7946959836
 20
-0.5529630615
 30
0.0
 40
0.3999999999999997
100
AcDbArc
 50
59.3829059302
 51
71.4756485456
  0
ARC
  5
109
330
1F
100
AcDbEntity
  8
0
  6
Continuous
 62
     7
100
AcDbCircle
 10
0.9591192827
 20
0.1319092688
 30
0.0
 40
0.3999999999999999
100
AcDbArc
 50
261.5243514544
 51
273.6170940698
  0
ARC
  5
10A
330
1F
100
AcDbEntity
  8
0
  6
Continuous
 62
     7
100
AcDbCircle
 10
0.0
 20
0.0
 30
0.0
 40
0.9380000000000002
100
AcDbArc
 50
340.3290731059
 51
343.6709268941
  0
ARC
  5
10B
330
1F
100
AcDbEntity
  8
0
  6
Continuous
 62
     7
100
AcDbCircle
 10
0.6984094766
 20
-0.6704730097
 30
0.0
 40
0.4000000000000019
100
AcDbArc
 50
50.3829059302
 51
62.4756485456
  0
ARC
  5
10C
330
1F
100
AcDbEntity
  8
0
  6
Continuous
 62
     7
100
AcDbCircle
 10
0.9679460887
 20
-0.0197540651
 30
0.0
 40
0.4000000000000002
100
AcDbArc
 50
252.5243514544
 51
264.6170940698
  0
ARC
  5
10D
330
1F
100
AcDbEntity
  8
0
  6
Continuous
 62
     7
100
AcDbCircle
 10
0.0
 20
0.0
 30
0.0
 40
0.9380000000000001
100
AcDbArc
 50
331.3290731059
 51
334.6709268941
  0
ARC
  5
10E
330
1F
100
AcDbEntity
  8
0
  6
Continuous
 62
     7
100
AcDbCircle
 10
0.5849258104
 20
-0.7714736872
 30
0.0
 40
0.4000000000000007
100
AcDbArc
 50
41.3829059302
 51
53.4756485456
  0
ARC
  5
10F
330
1F
100
AcDbEntity
  8
0
  6
Continuous
 62
     7
100
AcDbCircle
 10
0.9529388495
 20
-0.1709309884
 30
0.0
 40
0.3999999999999997
100
AcDbArc
 50
243.5243514544
 51
255.6170940698
  0
ARC
  5
110
330
1F
100
AcDbEntity
  8
0
  6
Continuous
 62
     7
100
AcDbCircle
 10
0.0
 20
0.0
 30
0.0
 40
0.9380000000000005
100
AcDbArc
 50
322.3290731059
 51
325.6709268941
  0
ARC
  5
111
330
1F
100
AcDbEntity
  8
0
  6
Continuous
 62
     7
100
AcDbCircle
 10
0.4570393294
 20
-0.8534781222
 30
0.0
 40
0.3999999999999996
100
AcDbArc
 50
32.3829059302
 51
44.4756485456
  0
ARC
  5
112
330
1F
100
AcDbEntity
  8
0
  6
Continuous
 62
     7
100
AcDbCircle
 10
0.9144670932
 20
-0.3178990234
 30
0.0
 40
0.3999999999999992
100
AcDbArc
 50
234.5243514544
 51
246.6170940698
  0
ARC
  5
113
330
1F
100
AcDbEntity
  8
0
  6
Continuous
 62
     7
100
AcDbCircle
 10
0.0
 20
0.0
 30
0.0
 40
0.9380000000000002
100
AcDbArc
 50
313.3290731059
 51
316.6709268941
  0
ARC
  5
114
330
1F
100
AcDbEntity
  8
0
  6
Continuous
 62
     7
100
AcDbCircle
 10
0.3178990234
 20
-0.9144670932
 30
0.0
 40
0.3999999999999992
100
AcDbArc
 50
23.3829059302
 51
35.4756485456
  0
ARC
  5
115
330
1F
100
AcDbEntity
  8
0
  6
Continuous
 62
     7
100
AcDbCircle
 10
0.8534781222
 20
-0.4570393294
 30
0.0
 40
0.4
100
AcDbArc
 50
225.5243514544
 51
237.6170940698
  0
ARC
  5
116
330
1F
100
AcDbEntity
  8
0
  6
Continuous
 62
     7
100
AcDbCircle
 10
0.0
 20
0.0
 30
0.0
 40
0.9380000000000007
100
AcDbArc
 50
304.3290731059
 51
307.6709268941
  0
ARC
  5
117
330
1F
100
AcDbEntity
  8
0
  6
Continuous
 62
     7
100
AcDbCircle
 10
0.1709309884
 20
-0.9529388495
 30
0.0
 40
0.3999999999999999
100
AcDbArc
 50
14.3829059302
 51
26.4756485456
  0
ARC
  5
118
330
1F
100
AcDbEntity
  8
0
  6
Continuous
 62
     7
100
AcDbCircle
 10
0.7714736872
 20
-0.5849258104
 30
0.0
 40
0.4
100
AcDbArc
 50
216.5243514544
 51
228.6170940698
  0
ARC
  5
119
330
1F
100
AcDbEntity
  8
0
  6
Continuous
 62
     7
100
AcDbCircle
 10
0.0
 20
0.0
 30
0.0
 40
0.9380000000000012
100
AcDbArc
 50
295.3290731059
 51
298.6709268941
  0
ARC
  5
11A
330
1F
100
AcDbEntity
  8
0
  6
Continuous
 62
     7
100
AcDbCircle
 10
0.0197540651
 20
-0.9679460887
 30
0.0
 40
0.3999999999999998
100
AcDbArc
 50
5.3829059302
 51
17.4756485456
  0
ARC
  5
11B
330
1F
100
AcDbEntity
  8
0
  6
Continuous
 62
     7
100
AcDbCircle
 10
0.6704730097
 20
-0.6984094766
 30
0.0
 40
0.3999999999999999
100
AcDbArc
 50
207.5243514544
 51
219.6170940698
  0
ARC
  5
11C
330
1F
100
AcDbEntity
  8
0
  6
Continuous
 62
     7
100
AcDbCircle
 10
0.0
 20
0.0
 30
0.0
 40
0.9380000000000003
100
AcDbArc
 50
286.3290731059
 51
289.6709268941
  0
ARC
  5
11D
330
1F
100
AcDbEntity
  8
0
  6
Continuous
 62
     7
100
AcDbCircle
 10
-0.1319092688
 20
-0.9591192827
 30
0.0
 40
0.3999999999999997
100
AcDbArc
 50
356.3829059302
 51
8.4756485456
  0
ARC
  5
11E
330
1F
100
AcDbEntity
  8
0
  6
Continuous
 62
     7
100
AcDbCircle
 10
0.5529630615
 20
-0.7946959836
 30
0.0
 40
0.4000000000000001
100
AcDbArc
 50
198.5243514544
 51
210.6170940698
  0
ARC
  5
11F
330
1F
100
AcDbEntity
  8
0
  6
Continuous
 62
     7
100
AcDbCircle
 10
0.0
 20
0.0
 30
0.0
 40
0.9380000000000006
100
AcDbArc
 50
277.3290731059
 51
280.6709268941
  0
ARC
  5
120
330
1F
100
AcDbEntity
  8
0
  6
Continuous
 62
     7
100
AcDbCircle
 10
-0.2803245587
 20
-0.9266757769
 30
0.0
 40
0.4
100
AcDbArc
 50
347.3829059302
 51
359.4756485456
  0
ARC
  5
121
330
1F
100
AcDbEntity
  8
0
  6
Continuous
 62
     7
100
AcDbCircle
 10
0.4218373276
 20
-0.871414438
 30
0.0
 40
0.4000000000000007
100
AcDbArc
 50
189.5243514544
 51
201.6170940698
  0
ARC
  5
122
330
1F
100
AcDbEntity
  8
0
  6
Continuous
 62
     7
100
AcDbCircle
 10
0.0
 20
0.0
 30
0.0
 40
0.9379999999999996
100
AcDbArc
 50
268.3290731059
 51
271.6709268941
  0
ARC
  5
123
330
1F
100
AcDbEntity
  8
0
  6
Continuous
 62
     7
100
AcDbCircle
 10
-0.4218373276
 20
-0.871414438
 30
0.0
 40
0.3999999999999997
100
AcDbArc
 50
338.3829059302
 51
350.4756485456
  0
ARC
  5
124
330
1F
100
AcDbEntity
  8
0
  6
Continuous
 62
     7
100
AcDbCircle
 10
0.2803245587
 20
-0.9266757769
 30
0.0
 40
0.4000000000000002
100
AcDbArc
 50
180.5243514544
 51
192.6170940698
  0
ARC
  5
125
330
1F
100
AcDbEntity
  8
0
  6
Continuous
 62
     7
100
AcDbCircle
 10
0.0
 20
0.0
 30
0.0
 40
0.9380000000000007
100
AcDbArc
 50
259.3290731059
 51
262.6709268941
  0
ARC
  5
126
330
1F
100
AcDbEntity
  8
0
  6
Continuous
 62
     7
100
AcDbCircle
 10
-0.5529630615
 20
-0.7946959836
 30
0.0
 40
0.4000000000000002
100
AcDbArc
 50
329.3829059302
 51
341.4756485456
  0
ARC
  5
127
330
1F
100
AcDbEntity
  8
0
  6
Continuous
 62
     7
100
AcDbCircle
 10
0.1319092688
 20
-0.9591192827
 30
0.0
 40
0.4000000000000002
100
AcDbArc
 50
180.0
 51
183.6170940698
  0
ARC
  5
128
330
1F
100
AcDbEntity
  8
0
  6
Continuous
 62
     7
100
AcDbCircle
 10
0.1319092688
 20
-0.9591192827
 30
0.0
 40
0.4000000000000002
100
AcDbArc
 50
171.5243514544
 51
180.0
  0
ARC
  5
129
330
1F
100
AcDbEntity
  8
0
  6
Continuous
 62
     7
100
AcDbCircle
 10
0.0
 20
0.0
 30
0.0
 40
0.9380000000000005
100
AcDbArc
 50
250.3290731059
 51
253.6709268941
  0
ARC
  5
12A
330
1F
100
AcDbEntity
  8
0
  6
Continuous
 62
     7
100
AcDbCircle
 10
-0.6704730097
 20
-0.6984094766
 30
0.0
 40
0.3999999999999994
100
AcDbArc
 50
320.3829059302
 51
332.4756485456
  0
ARC
  5
12B
330
1F
100
AcDbEntity
  8
0
  6
Continuous
 62
     7
100
AcDbCircle
 10
-0.0197540651
 20
-0.9679460887
 30
0.0
 40
0.3999999999999997
100
AcDbArc
 50
162.5243514544
 51
174.6170940698
  0
ARC
  5
12C
330
1F
100
AcDbEntity
  8
0
  6
Continuous
 62
     7
100
AcDbCircle
 10
0.0
 20
0.0
 30
0.0
 40
0.9379999999999993
100
AcDbArc
 50
241.3290731059
 51
244.6709268941
  0
ARC
  5
12D
330
1F
100
AcDbEntity
  8
0
  6
Continuous
 62
     7
100
AcDbCircle
 10
-0.7714736872
 20
-0.5849258104
 30
0.0
 40
0.4000000000000001
100
AcDbArc
 50
311.3829059302
 51
323.4756485456
  0
ARC
  5
12E
330
1F
100
AcDbEntity
  8
0
  6
Continuous
 62
     7
100
AcDbCircle
 10
-0.1709309884
 20
-0.9529388495
 30
0.0
 40
0.3999999999999996
100
AcDbArc
 50
153.5243514544
 51
165.6170940698
  0
ARC
  5
12F
330
1F
100
AcDbEntity
  8
0
  6
Continuous
 62
     7
100
AcDbCircle
 10
0.0
 20
0.0
 30
0.0
 40
0.938000000000001
100
AcDbArc
 50
232.3290731059
 51
235.6709268941
  0
ARC
  5
130
330
1F
100
AcDbEntity
  8
0
  6
Continuous
 62
     7
100
AcDbCircle
 10
-0.8534781222
 20
-0.4570393294
 30
0.0
 40
0.4000000000000014
100
AcDbArc
 50
302.3829059302
 51
314.4756485456
  0
ARC
  5
131
330
1F
100
AcDbEntity
  8
0
  6
Continuous
 62
     7
100
AcDbCircle
 10
-0.3178990234
 20
-0.9144670932
 30
0.0
 40
0.4000000000000016
100
AcDbArc
 50
144.5243514544
 51
156.6170940698
  0
ARC
  5
132
330
1F
100
AcDbEntity
  8
0
  6
Continuous
 62
     7
100
AcDbCircle
 10
0.0
 20
0.0
 30
0.0
 40
0.9380000000000002
100
AcDbArc
 50
223.3290731059
 51
226.6709268941
  0
ARC
  5
133
330
1F
100
AcDbEntity
  8
0
  6
Continuous
 62
     7
100
AcDbCircle
 10
-0.9144670932
 20
-0.3178990234
 30
0.0
 40
0.4000000000000007
100
AcDbArc
 50
293.3829059302
 51
305.4756485456
  0
ARC
  5
134
330
1F
100
AcDbEntity
  8
0
  6
Continuous
 62
     7
100
AcDbCircle
 10
-0.4570393294
 20
-0.8534781222
 30
0.0
 40
0.3999999999999994
100
AcDbArc
 50
135.5243514544
 51
147.6170940698
  0
ARC
  5
135
330
1F
100
AcDbEntity
  8
0
  6
Continuous
 62
     7
100
AcDbCircle
 10
0.0
 20
0.0
 30
0.0
 40
0.9380000000000007
100
AcDbArc
 50
214.3290731059
 51
217.6709268941
  0
ARC
  5
136
330
1F
100
AcDbEntity
  8
0
  6
Continuous
 62
     7
100
AcDbCircle
 10
-0.9529388495
 20
-0.1709309884
 30
0.0
 40
0.3999999999999999
100
AcDbArc
 50
284.3829059302
 51
296.4756485456
  0
ARC
  5
137
330
1F
100
AcDbEntity
  8
0
  6
Continuous
 62
     7
100
AcDbCircle
 10
-0.5849258104
 20
-0.7714736872
 30
0.0
 40
0.4000000000000005
100
AcDbArc
 50
126.5243514544
 51
138.6170940698
  0
ARC
  5
138
330
1F
100
AcDbEntity
  8
0
  6
Continuous
 62
     7
100
AcDbCircle
 10
0.0
 20
0.0
 30
0.0
 40
0.9379999999999998
100
AcDbArc
 50
205.3290731059
 51
208.6709268941
  0
ARC
  5
139
330
1F
100
AcDbEntity
  8
0
  6
Continuous
 62
     7
100
AcDbCircle
 10
-0.9679460887
 20
-0.0197540651
 30
0.0
 40
0.4000000000000005
100
AcDbArc
 50
275.3829059302
 51
287.4756485456
  0
ARC
  5
13A
330
1F
100
AcDbEntity
  8
0
  6
Continuous
 62
     7
100
AcDbCircle
 10
-0.6984094766
 20
-0.6704730097
 30
0.0
 40
0.4000000000000006
100
AcDbArc
 50
117.5243514544
 51
129.6170940698
  0
ARC
  5
13B
330
1F
100
AcDbEntity
  8
0
  6
Continuous
 62
     7
100
AcDbCircle
 10
0.0
 20
0.0
 30
0.0
 40
0.9380000000000007
100
AcDbArc
 50
196.3290731059
 51
199.6709268941
  0
ARC
  5
13C
330
1F
100
AcDbEntity
  8
0
  6
Continuous
 62
     7
100
AcDbCircle
 10
-0.9591192827
 20
0.1319092688
 30
0.0
 40
0.3999999999999999
100
AcDbArc
 50
266.3829059302
 51
278.4756485456
  0
ARC
  5
13D
330
1F
100
AcDbEntity
  8
0
  6
Continuous
 62
     7
100
AcDbCircle
 10
-0.7946959836
 20
-0.5529630615
 30
0.0
 40
0.3999999999999995
100
AcDbArc
 50
108.5243514544
 51
120.6170940698
  0
ARC
  5
13E
330
1F
100
AcDbEntity
  8
0
  6
Continuous
 62
     7
100
AcDbCircle
 10
0.0
 20
0.0
 30
0.0
 40
0.938000000000001
100
AcDbArc
 50
187.3290731059
 51
190.6709268941
  0
ARC
  5
13F
330
1F
100
AcDbEntity
  8
0
  6
Continuous
 62
     7
100
AcDbCircle
 10
-0.9266757769
 20
0.2803245587
 30
0.0
 40
0.4000000000000001
100
AcDbArc
 50
257.3829059302
 51
269.4756485456
  0
ARC
  5
140
330
1F
100
AcDbEntity
  8
0
  6
Continuous
 62
     7
100
AcDbCircle
 10
-0.871414438
 20
-0.4218373276
 30
0.0
 40
0.4000000000000004
100
AcDbArc
 50
99.5243514544
 51
111.6170940698
  0
ARC
  5
141
330
1F
100
AcDbEntity
  8
0
  6
Continuous
 62
     7
100
AcDbCircle
 10
0.0
 20
0.0
 30
0.0
 40
0.9380000000000001
100
AcDbArc
 50
180.0
 51
181.6709268941
  0
ARC
  5
142
330
1F
100
AcDbEntity
  8
0
  6
Continuous
 62
     7
100
AcDbCircle
 10
0.0
 20
0.0
 30
0.0
 40
0.9380000000000001
100
AcDbArc
 50
178.3290731059
 51
180.0
  0
ARC
  5
143
330
1F
100
AcDbEntity
  8
0
  6
Continuous
 62
     7
100
AcDbCircle
 10
-0.871414438
 20
0.4218373276
 30
0.0
 40
0.3999999999999999
100
AcDbArc
 50
248.3829059302
 51
260.4756485456
  0
ARC
  5
144
330
1F
100
AcDbEntity
  8
0
  6
Continuous
 62
     7
100
AcDbCircle
 10
-0.9266757769
 20
-0.2803245587
 30
0.0
 40
0.3999999999999999
100
AcDbArc
 50
90.5243514544
 51
102.6170940698
  0
ARC
  5
145
330
1F
100
AcDbEntity
  8
0
  6
Continuous
 62
     7
100
AcDbCircle
 10
0.0
 20
0.0
 30
0.0
 40
0.9379999999999998
100
AcDbArc
 50
169.3290731059
 51
172.6709268941
  0
ARC
  5
146
330
1F
100
AcDbEntity
  8
0
  6
Continuous
 62
     7
100
AcDbCircle
 10
-0.7946959836
 20
0.5529630615
 30
0.0
 40
0.3999999999999992
100
AcDbArc
 50
239.3829059302
 51
251.4756485456
  0
ARC
  5
147
330
1F
100
AcDbEntity
  8
0
  6
Continuous
 62
     7
100
AcDbCircle
 10
-0.9591192827
 20
-0.1319092688
 30
0.0
 40
0.4000000000000002
100
AcDbArc
 50
81.5243514544
 51
93.6170940698
  0
ARC
  5
148
330
1F
100
AcDbEntity
  8
0
  6
Continuous
 62
     7
100
AcDbCircle
 10
0.0
 20
0.0
 30
0.0
 40
0.9380000000000005
100
AcDbArc
 50
160.3290731059
 51
163.6709268941
  0
ARC
  5
149
330
1F
100
AcDbEntity
  8
0
  6
Continuous
 62
     7
100
AcDbCircle
 10
-0.6984094766
 20
0.6704730097
 30
0.0
 40
0.4000000000000007
100
AcDbArc
 50
230.3829059302
 51
242.4756485456
  0
ARC
  5
14A
330
1F
100
AcDbEntity
  8
0
  6
Continuous
 62
     7
100
AcDbCircle
 10
-0.9679460887
 20
0.0197540651
 30
0.0
 40
0.4000000000000001
100
AcDbArc
 50
72.5243514544
 51
84.6170940698
  0
ARC
  5
14B
330
1F
100
AcDbEntity
  8
0
  6
Continuous
 62
     7
100
AcDbCircle
 10
0.0
 20
0.0
 30
0.0
 40
0.9380000000000009
100
AcDbArc
 50
151.3290731059
 51
154.6709268941
  0
ARC
  5
14C
330
1F
100
AcDbEntity
  8
0
  6
Continuous
 62
     7
100
AcDbCircle
 10
-0.5849258104
 20
0.7714736872
 30
0.0
 40
0.400000000000001
100
AcDbArc
 50
221.3829059302
 51
233.4756485456
  0
ARC
  5
14D
330
1F
100
AcDbEntity
  8
0
  6
Continuous
 62
     7
100
AcDbCircle
 10
-0.9529388495
 20
0.1709309884
 30
0.0
 40
0.3999999999999992
100
AcDbArc
 50
63.5243514544
 51
75.6170940698
  0
ARC
  5
14E
330
1F
100
AcDbEntity
  8
0
  6
Continuous
 62
     7
100
AcDbCircle
 10
0.0
 20
0.0
 30
0.0
 40
0.9380000000000007
100
AcDbArc
 50
142.3290731059
 51
145.6709268941
  0
ARC
  5
14F
330
1F
100
AcDbEntity
  8
0
  6
Continuous
 62
     7
100
AcDbCircle
 10
-0.4570393294
 20
0.8534781222
 30
0.0
 40
0.4000000000000006
100
AcDbArc
 50
212.3829059302
 51
224.4756485456
  0
ARC
  5
150
330
1F
100
AcDbEntity
  8
0
  6
Continuous
 62
     7
100
AcDbCircle
 10
-0.9144670932
 20
0.3178990234
 30
0.0
 40
0.4000000000000007
100
AcDbArc
 50
54.5243514544
 51
66.6170940698
  0
ARC
  5
151
330
1F
100
AcDbEntity
  8
0
  6
Continuous
 62
     7
100
AcDbCircle
 10
0.0
 20
0.0
 30
0.0
 40
0.938
100
AcDbArc
 50
133.3290731059
 51
136.6709268941
  0
ARC
  5
152
330
1F
100
AcDbEntity
  8
0
  6
Continuous
 62
     7
100
AcDbCircle
 10
-0.3178990234
 20
0.9144670932
 30
0.0
 40
0.4000000000000004
100
AcDbArc
 50
203.3829059302
 51
215.4756485456
  0
ARC
  5
153
330
1F
100
AcDbEntity
  8
0
  6
Continuous
 62
     7
100
AcDbCircle
 10
-0.8534781222
 20
0.4570393294
 30
0.0
 40
0.3999999999999997
100
AcDbArc
 50
45.5243514544
 51
57.6170940698
  0
ARC
  5
154
330
1F
100
AcDbEntity
  8
0
  6
Continuous
 62
     7
100
AcDbCircle
 10
0.0
 20
0.0
 30
0.0
 40
0.9380000000000005
100
AcDbArc
 50
124.3290731059
 51
127.6709268941
  0
ARC
  5
155
330
1F
100
AcDbEntity
  8
0
  6
Continuous
 62
     7
100
AcDbCircle
 10
-0.1709309884
 20
0.9529388495
 30
0.0
 40
0.4000000000000004
100
AcDbArc
 50
194.3829059302
 51
206.4756485456
  0
CIRCLE
  5
156
330
1F
100
AcDbEntity
  8
0
  6
Continuous
 62
     7
100
AcDbCircle
 10
0.0
 20
0.0
 30
0.0
 40
0.1
  0
SPLINE
  5
157
330
1F
100
AcDbEntity
  8
0
  6
Continuous
 62
     7
370
    25
100
AcDbSpline
210
0.0
220
0.0
230
1.0
 70
    24
 71
     3
 72
    20
 73
    16
 74
     0
 42
0.00000001
 43
0.00000001
 40
0.0
 40
0.0
 40
0.0
 40
0.0
 40
0.0448363837450791
 40
0.0883872093184199
 40
0.1306873701651557
 40
0.1717749462187076
 40
0.2116914879402759
 40
0.2504823090042797
 40
0.3775944204126951
 40
0.4996431791327503
 40
0.6219803452379518
 40
0.7495347612504123
 40
0.8281976328822461
 40
0.9115796222280363
 40
1.0
 40
1.0
 40
1.0
 40
1.0
 10
-0.1443375672974058
 20
-0.25
 30
0.0
 10
-0.1402924560850305
 20
-0.25
 30
0.0
 10
-0.1323182159349483
 20
-0.2500000000000001
 30
0.0
 10
-0.1203345502510031
 20
-0.2499999999999999
 30
0.0
 10
-0.1085570595058936
 20
-0.2500000000000001
 30
0.0
 10
-0.0969726173793792
 20
-0.25
 30
0.0
 10
-0.0855837486267021
 20
-0.25
 30
0.0
 10
-0.0657987484435272
 20
-0.2500000000000001
 30
0.0
 10
-0.0374422895252915
 20
-0.2499999999999999
 30
0.0
 10
-0.0000839053754686
 20
-0.25
 30
0.0
 10
0.0373224156459918
 20
-0.25
 30
0.0
 10
0.0696780200816725
 20
-0.2499999999999999
 30
0.0
 10
0.0973572927068853
 20
-0.2499999999999999
 30
0.0
 10
0.1207751684301709
 20
-0.25
 30
0.0
 10
0.136331363958273
 20
-0.25
 30
0.0
 10
0.1443375672974072
 20
-0.25
 30
0.0
  0
SPLINE
  5
158
330
1F
100
AcDbEntity
  8
0
  6
Continuous
 62
     7
370
    25
100
AcDbSpline
210
0.0
220
0.0
230
1.0
 70
    24
 71
     3
 72
    20
 73
    16
 74
     0
 42
0.00000001
 43
0.00000001
 40
0.0
 40
0.0
 40
0.0
 40
0.0
 40
0.0444681898324288
 40
0.0876700545199475
 40
0.129639573688159
 40
0.170413808042337
 40
0.210033172706027
 40
0.248541719118036
 40
0.375971379034675
 40
0.4982538134825668
 40
0.6206220908020467
 40
0.7481580578912245
 40
0.8272308440569981
 40
0.9110696522264572
 40
1.0
 40
1.0
 40
1.0
 40
1.0
 10
0.1443375672974072
 20
-0.25
 30
0.0
 10
0.1463434467034083
 20
-0.2465257149549498
 30
0.0
 10
0.1502980838844415
 20
-0.2396760824318996
 30
0.0
 10
0.1562408648720728
 20
-0.2293828838230679
 30
0.0
 10
0.1620819989521855
 20
-0.2192657428224905
 30
0.0
 10
0.1678279409518935
 20
-0.209313479341652
 30
0.0
 10
0.1734774503401431
 20
-0.1995282420433666
 30
0.0
 10
0.1833523876420405
 20
-0.182424348914923
 30
0.0
 10
0.1975379191492126
 20
-0.1578542876121321
 30
0.0
 10
0.2162438860574233
 20
-0.1254546025224088
 30
0.0
 10
0.2349618359602289
 20
-0.0930341622772208
 30
0.0
 10
0.2511657308078822
 20
-0.0649681931205815
 30
0.0
 10
0.2650505867518054
 20
-0.040918917169932
 30
0.0
 10
0.2768265725916654
 20
-0.0205223113860828
 30
0.0
 10
0.2846487733499805
 20
-0.0069738622456771
 30
0.0
 10
0.2886751345948137
 20
0.0000000000000002
 30
0.0
  0
SPLINE
  5
15C
330
1F
100
AcDbEntity
  8
0
  6
Continuous
 62
     7
370
    25
100
AcDbSpline
210
0.0
220
0.0
230
1.0
 70
    24
 71
     3
 72
    20
 73
    16
 74
     0
 42
0.00000001
 43
0.00000001
 40
0.0
 40
0.0
 40
0.0
 40
0.0
 40
0.0444681898327387
 40
0.0876700545204432
 40
0.1296395736887164
 40
0.1704138080428329
 40
0.2100331727063386
 40
0.2485417191180419
 40
0.3759713790347458
 40
0.498253813482559
 40
0.6206220908016921
 40
0.7481580578912227
 40
0.8272308440569965
 40
0.9110696522264564
 40
1.0
 40
1.0
 40
1.0
 40
1.0
 10
-0.2886751345948123
 20
0.0
 30
0.0
 10
-0.2866692551887973
 20
-0.0034742850450742
 30
0.0
 10
-0.282714618007742
 20
-0.0103239175681629
 30
0.0
 10
-0.2767718370200858
 20
-0.0206171161770378
 30
0.0
 10
-0.2709307029399647
 20
-0.0307342571776295
 30
0.0
 10
-0.2651847609402651
 20
-0.0406865206584534
 30
0.0
 10
-0.2595352515520407
 20
-0.0504717579566951
 30
0.0
 10
-0.2496603142501589
 20
-0.0675756510851117
 30
0.0
 10
-0.2354747827429998
 20
-0.09214571238788
 30
0.0
 10
-0.2167688158348105
 20
-0.1245453974775663
 30
0.0
 10
-0.1980508659320065
 20
-0.1569658377227517
 30
0.0
 10
-0.1818469710843547
 20
-0.1850318068793884
 30
0.0
 10
-0.1679621151404143
 20
-0.2090810828300678
 30
0.0
 10
-0.1561861293005543
 20
-0.229477688613917
 30
0.0
 10
-0.148363928542239
 20
-0.2430261377543228
 30
0.0
 10
-0.1443375672974058
 20
-0.2500000000000002
 30
0.0
  0
SPLINE
  5
15E
330
1F
100
AcDbEntity
  8
0
  6
Continuous
 62
     7
370
    25
100
AcDbSpline
210
0.0
220
0.0
230
1.0
 70
    24
 71
     3
 72
    20
 73
    16
 74
     0
 42
0.00000001
 43
0.00000001
 40
0.0
 40
0.0
 40
0.0
 40
0.0
 40
0.0444681898321973
 40
0.0876700545195773
 40
0.1296395736877423
 40
0.1704138080419662
 40
0.2100331727057937
 40
0.2485417191180306
 40
0.3759713790347088
 40
0.498253813482574
 40
0.6206220908026596
 40
0.7481580578912288
 40
0.8272308440572991
 40
0.9110696522267578
 40
0.9999999999999999
 40
0.9999999999999999
 40
0.9999999999999999
 40
0.9999999999999999
 10
0.2886751345948137
 20
0.0
 30
0.0
 10
0.2866692551888229
 20
0.0034742850450322
 30
0.0
 10
0.2827146180078063
 20
0.0103239175680538
 30
0.0
 10
0.2767718370201938
 20
0.0206171161768532
 30
0.0
 10
0.2709307029400871
 20
0.0307342571774199
 30
0.0
 10
0.2651847609403728
 20
0.0406865206582691
 30
0.0
 10
0.2595352515521043
 20
0.0504717579565872
 30
0.0
 10
0.2496603142501911
 20
0.0675756510850582
 30
0.0
 10
0.2354747827430097
 20
0.0921457123878656
 30
0.0
 10
0.216768815834765
 20
0.1245453974776474
 30
0.0
 10
0.1980508659319621
 20
0.156965837722831
 30
0.0
 10
0.1818469710842937
 20
0.1850318068794961
 30
0.0
 10
0.1679621151403898
 20
0.2090810828301123
 30
0.0
 10
0.1561861293005289
 20
0.2294776886139633
 30
0.0
 10
0.148363928542227
 20
0.243026137754346
 30
0.0
 10
0.1443375672974072
 20
0.25
 30
0.0
  0
SPLINE
  5
15F
330
1F
100
AcDbEntity
  8
0
  6
Continuous
 62
     7
370
    25
100
AcDbSpline
210
0.0
220
0.0
230
1.0
 70
    24
 71
     3
 72
    20
 73
    16
 74
     0
 42
0.00000001
 43
0.00000001
 40
0.0
 40
0.0
 40
0.0
 40
0.0
 40
0.0448363837453731
 40
0.0883872093188902
 40
0.1306873701656846
 40
0.1717749462191781
 40
0.2116914879405717
 40
0.2504823090042859
 40
0.3775944204131008
 40
0.4996431791327491
 40
0.6219803452379508
 40
0.7495347612504115
 40
0.8281976328822457
 40
0.9115796222280359
 40
0.9999999999999999
 40
0.9999999999999999
 40
0.9999999999999999
 40
0.9999999999999999
 10
0.144337567297407
 20
0.25
 30
0.0
 10
0.1402924560850053
 20
0.25
 30
0.0
 10
0.1323182159348809
 20
0.25
 30
0.0
 10
0.1203345502508884
 20
0.2499999999999999
 30
0.0
 10
0.1085570595057631
 20
0.2499999999999999
 30
0.0
 10
0.0969726173792648
 20
0.2500000000000001
 30
0.0
 10
0.0855837486266354
 20
0.2499999999999999
 30
0.0
 10
0.0657987484434575
 20
0.2500000000000002
 30
0.0
 10
0.037442289525249
 20
0.2500000000000001
 30
0.0
 10
0.0000839053754293
 20
0.25
 30
0.0
 10
-0.0373224156459909
 20
0.2500000000000001
 30
0.0
 10
-0.0696780200816714
 20
0.25
 30
0.0
 10
-0.0973572927068841
 20
0.2500000000000001
 30
0.0
 10
-0.1207751684301698
 20
0.25
 30
0.0
 10
-0.1363313639582719
 20
0.25
 30
0.0
 10
-0.144337567297406
 20
0.25
 30
0.0
  0
SPLINE
  5
160
330
1F
100
AcDbEntity
  8
0
  6
Continuous
 62
     7
370
    25
100
AcDbSpline
210
0.0
220
0.0
230
1.0
 70
    24
 71
     3
 72
    20
 73
    16
 74
     0
 42
0.00000001
 43
0.00000001
 40
0.0
 40
0.0
 40
0.0
 40
0.0
 40
0.0444681898316682
 40
0.0876700545187309
 40
0.1296395736867903
 40
0.1704138080411197
 40
0.2100331727052617
 40
0.2485417191180206
 40
0.3759713790343306
 40
0.4982538134825837
 40
0.6206220908028031
 40
0.7481580578912268
 40
0.8272308440570585
 40
0.911069652226517
 40
1.0
 40
1.0
 40
1.0
 40
1.0
 10
-0.1443375672974058
 20
0.25
 30
0.0
 10
-0.1463434467033729
 20
0.246525714955009
 30
0.0
 10
-0.1502980838843516
 20
0.2396760824320531
 30
0.0
 10
-0.1562408648719215
 20
0.2293828838233273
 30
0.0
 10
-0.162081998952014
 20
0.2192657428227851
 30
0.0
 10
-0.1678279409517427
 20
0.2093134793419111
 30
0.0
 10
-0.1734774503400542
 20
0.1995282420435183
 30
0.0
 10
-0.1833523876419816
 20
0.1824243489150229
 30
0.0
 10
-0.1975379191491862
 20
0.1578542876121752
 30
0.0
 10
-0.216243886057443
 20
0.1254546025223725
 30
0.0
 10
-0.2349618359602616
 20
0.0930341622771617
 30
0.0
 10
-0.2511657308079208
 20
0.0649681931205126
 30
0.0
 10
-0.2650505867518088
 20
0.0409189171699235
 30
0.0
 10
-0.2768265725916693
 20
0.0205223113860737
 30
0.0
 10
-0.2846487733499818
 20
0.0069738622456725
 30
0.0
 10
-0.2886751345948123
 20
-0.0000000000000002
 30
0.0
  0
SPLINE
  5
164
330
1F
100
AcDbEntity
  8
0
  6
Continuous
 62
     7
370
    25
100
AcDbSpline
210
0.0
220
0.0
230
1.0
 70
     8
 71
     3
 72
     8
 73
     4
 74
     0
 42
0.00000001
 43
0.00000001
 40
0.0
 40
0.0
 40
0.0
 40
0.0
 40
1.0
 40
1.0
 40
1.0
 40
1.0
 10
1.045057737328954
 20
-0.1017562069305203
 30
0.0
 10
1.034770002764912
 20
-0.1049437062646494
 30
0.0
 10
1.024431519353048
 20
-0.1076921947520801
 30
0.0
 10
1.014049534631503
 20
-0.110016095702563
 30
0.0
  0
SPLINE
  5
166
330
1F
100
AcDbEntity
  8
0
  6
Continuous
 62
     7
370
    25
100
AcDbSpline
210
0.0
220
0.0
230
1.0
 70
     8
 71
     3
 72
     8
 73
     4
 74
     0
 42
0.00000001
 43
0.00000001
 40
0.0
 40
0.0
 40
0.0
 40
0.0
 40
1.0
 40
1.0
 40
1.0
 40
1.0
 10
1.018775211218507
 20
-0.0499706814711324
 30
0.0
 10
1.028665838278217
 20
-0.0538900715705935
 30
0.0
 10
1.038447079477351
 20
-0.0582220167257507
 30
0.0
 10
1.048109520204245
 20
-0.0629796289067266
 30
0.0
  0
SPLINE
  5
169
330
1F
100
AcDbEntity
  8
0
  6
Continuous
 62
     7
370
    25
100
AcDbSpline
210
0.0
220
0.0
230
1.0
 70
     8
 71
     3
 72
     8
 73
     4
 74
     0
 42
0.00000001
 43
0.00000001
 40
0.0
 40
0.0
 40
0.0
 40
0.0
 40
1.0
 40
1.0
 40
1.0
 40
1.0
 10
1.014049534631499
 20
0.110016095702585
 30
0.0
 10
1.024431519353044
 20
0.1076921947521018
 30
0.0
 10
1.03477000276491
 20
0.1049437062646714
 30
0.0
 10
1.045057737328954
 20
0.1017562069305427
 30
0.0
  0
SPLINE
  5
16A
330
1F
100
AcDbEntity
  8
0
  6
Continuous
 62
     7
370
    25
100
AcDbSpline
210
0.0
220
0.0
230
1.0
 70
     8
 71
     3
 72
     8
 73
     4
 74
     0
 42
0.00000001
 43
0.00000001
 40
0.0
 40
0.0
 40
0.0
 40
0.0
 40
1.0
 40
1.0
 40
1.0
 40
1.0
 10
1.048109520204243
 20
0.0629796289067488
 30
0.0
 10
1.038447079477351
 20
0.0582220167257728
 30
0.0
 10
1.028665838278217
 20
0.0538900715706154
 30
0.0
 10
1.018775211218505
 20
0.0499706814711536
 30
0.0
  0
SPLINE
  5
20D
330
1F
100
AcDbEntity
  8
0
  6
Continuous
 62
     7
370
    25
100
AcDbSpline
210
0.0
220
0.0
230
1.0
 70
     8
 71
     3
 72
     8
 73
     4
 74
     0
 42
0.00000001
 43
0.00000001
 40
0.0
 40
0.0
 40
0.0
 40
0.0
 40
1.0
 40
1.0
 40
1.0
 40
1.0
 10
1.025353368216036
 20
0.226164697262928
 30
0.0
 10
1.016554142684792
 20
0.2199541204366102
 30
0.0
 10
1.00757099031879
 20
0.2141453854803477
 30
0.0
 10
0.998415260984231
 20
0.2087270146238677
 30
0.0
  0
SPLINE
  5
20E
330
1F
100
AcDbEntity
  8
0
  6
Continuous
 62
     7
370
    25
100
AcDbSpline
210
0.0
220
0.0
230
1.0
 70
     8
 71
     3
 72
     8
 73
     4
 74
     0
 42
0.00000001
 43
0.00000001
 40
0.0
 40
0.0
 40
0.0
 40
0.0
 40
1.0
 40
1.0
 40
1.0
 40
1.0
 10
0.9843545930644082
 20
0.2672939114776158
 30
0.0
 10
0.9949722965281109
 20
0.2666227218300961
 30
0.0
 10
1.005613454379646
 20
0.2655253669186634
 30
0.0
 10
1.016273164612839
 20
0.2639864672436918
 30
0.0
  0
SPLINE
  5
210
330
1F
100
AcDbEntity
  8
0
  6
Continuous
 62
     7
370
    25
100
AcDbSpline
210
0.0
220
0.0
230
1.0
 70
     8
 71
     3
 72
     8
 73
     4
 74
     0
 42
0.00000001
 43
0.00000001
 40
0.0
 40
0.0
 40
0.0
 40
0.0
 40
1.0
 40
1.0
 40
1.0
 40
1.0
 10
0.9984152609842349
 20
-0.2087270146238461
 30
0.0
 10
1.007570990318794
 20
-0.2141453854803264
 30
0.0
 10
1.016554142684796
 20
-0.2199541204365886
 30
0.0
 10
1.02535336821604
 20
-0.2261646972629063
 30
0.0
  0
SPLINE
  5
211
330
1F
100
AcDbEntity
  8
0
  6
Continuous
 62
     7
370
    25
100
AcDbSpline
210
0.0
220
0.0
230
1.0
 70
     8
 71
     3
 72
     8
 73
     4
 74
     0
 42
0.00000001
 43
0.00000001
 40
0.0
 40
0.0
 40
0.0
 40
0.0
 40
1.0
 40
1.0
 40
1.0
 40
1.0
 10
1.016273164612845
 20
-0.2639864672436701
 30
0.0
 10
1.005613454379652
 20
-0.2655253669186421
 30
0.0
 10
0.9949722965281168
 20
-0.2666227218300752
 30
0.0
 10
0.9843545930644141
 20
-0.2672939114775949
 30
0.0
  0
SPLINE
  5
213
330
1F
100
AcDbEntity
  8
0
  6
Continuous
 62
     7
370
    25
100
AcDbSpline
210
0.0
220
0.0
230
1.0
 70
     8
 71
     3
 72
     8
 73
     4
 74
     0
 42
0.00000001
 43
0.00000001
 40
0.0
 40
0.0
 40
0.0
 40
0.0
 40
1.0
 40
1.0
 40
1.0
 40
1.0
 10
0.9624645737667075
 20
-0.419716504612426
 30
0.0
 10
0.9516953653078531
 20
-0.4195689118109276
 30
0.0
 10
0.9410135536389318
 20
-0.4189881126265315
 30
0.0
 10
0.9304215745304849
 20
-0.417990064054415
 30
0.0
  0
SPLINE
  5
214
330
1F
100
AcDbEntity
  8
0
  6
Continuous
 62
     7
370
    25
100
AcDbSpline
210
0.0
220
0.0
230
1.0
 70
     8
 71
     3
 72
     8
 73
     4
 74
     0
 42
0.00000001
 43
0.00000001
 40
0.0
 40
0.0
 40
0.0
 40
0.0
 40
1.0
 40
1.0
 40
1.0
 40
1.0
 10
0.9534710134742547
 20
-0.3623437959512748
 30
0.0
 10
0.9616664006413196
 20
-0.3691277292917457
 30
0.0
 10
0.9696302691495676
 20
-0.376270223716404
 30
0.0
 10
0.9773496133496287
 20
-0.3837808401748768
 30
0.0
  0
SPLINE
  5
216
330
1F
100
AcDbEntity
  8
0
  6
Continuous
 62
     7
370
    25
100
AcDbSpline
210
0.0
220
0.0
230
1.0
 70
     8
 71
     3
 72
     8
 73
     4
 74
     0
 42
0.00000001
 43
0.00000001
 40
0.0
 40
0.0
 40
0.0
 40
0.0
 40
1.0
 40
1.0
 40
1.0
 40
1.0
 10
0.9773496133496189
 20
0.3837808401748984
 30
0.0
 10
0.9696302691495597
 20
0.3762702237164253
 30
0.0
 10
0.9616664006413118
 20
0.369127729291767
 30
0.0
 10
0.9534710134742468
 20
0.3623437959512953
 30
0.0
  0
SPLINE
  5
217
330
1F
100
AcDbEntity
  8
0
  6
Continuous
 62
     7
370
    25
100
AcDbSpline
210
0.0
220
0.0
230
1.0
 70
     8
 71
     3
 72
     8
 73
     4
 74
     0
 42
0.00000001
 43
0.00000001
 40
0.0
 40
0.0
 40
0.0
 40
0.0
 40
1.0
 40
1.0
 40
1.0
 40
1.0
 10
0.9304215745304751
 20
0.4179900640544355
 30
0.0
 10
0.9410135536389219
 20
0.4189881126265519
 30
0.0
 10
0.9516953653078453
 20
0.4195689118109489
 30
0.0
 10
0.9624645737666976
 20
0.4197165046124472
 30
0.0
  0
SPLINE
  5
219
330
1F
100
AcDbEntity
  8
0
  6
Continuous
 62
     7
370
    25
100
AcDbSpline
210
0.0
220
0.0
230
1.0
 70
     8
 71
     3
 72
     8
 73
     4
 74
     0
 42
0.00000001
 43
0.00000001
 40
0.0
 40
0.0
 40
0.0
 40
0.0
 40
1.0
 40
1.0
 40
1.0
 40
1.0
 10
0.8535784889394338
 20
0.5583939140247449
 30
0.0
 10
0.8638839340142093
 20
0.5610366255483189
 30
0.0
 10
0.8743433778463294
 20
0.5632812776250639
 30
0.0
 10
0.8849569108776326
 20
0.5651117286784267
 30
0.0
  0
SPLINE
  5
21A
330
1F
100
AcDbEntity
  8
0
  6
Continuous
 62
     7
370
    25
100
AcDbSpline
210
0.0
220
0.0
230
1.0
 70
     8
 71
     3
 72
     8
 73
     4
 74
     0
 42
0.00000001
 43
0.00000001
 40
0.0
 40
0.0
 40
0.0
 40
0.0
 40
1.0
 40
1.0
 40
1.0
 40
1.0
 10
0.9052802673651347
 20
0.5319470251061772
 30
0.0
 10
0.8988308803694988
 20
0.5233213053190638
 30
0.0
 10
0.8920823925922448
 20
0.5150209233433244
 30
0.0
 10
0.8850491452236542
 20
0.5070384704722882
 30
0.0
  0
SPLINE
  5
21C
330
1F
100
AcDbEntity
  8
0
  6
Continuous
 62
     7
370
    25
100
AcDbSpline
210
0.0
220
0.0
230
1.0
 70
     8
 71
     3
 72
     8
 73
     4
 74
     0
 42
0.00000001
 43
0.00000001
 40
0.0
 40
0.0
 40
0.0
 40
0.0
 40
1.0
 40
1.0
 40
1.0
 40
1.0
 10
0.8849569108776444
 20
-0.5651117286784079
 30
0.0
 10
0.8743433778463432
 20
-0.5632812776250449
 30
0.0
 10
0.8638839340142211
 20
-0.5610366255483008
 30
0.0
 10
0.8535784889394457
 20
-0.558393914024726
 30
0.0
  0
SPLINE
  5
21D
330
1F
100
AcDbEntity
  8
0
  6
Continuous
 62
     7
370
    25
100
AcDbSpline
210
0.0
220
0.0
230
1.0
 70
     8
 71
     3
 72
     8
 73
     4
 74
     0
 42
0.00000001
 43
0.00000001
 40
0.0
 40
0.0
 40
0.0
 40
0.0
 40
1.0
 40
1.0
 40
1.0
 40
1.0
 10
0.8850491452236661
 20
-0.5070384704722701
 30
0.0
 10
0.8920823925922546
 20
-0.5150209233433047
 30
0.0
 10
0.8988308803695086
 20
-0.5233213053190441
 30
0.0
 10
0.9052802673651463
 20
-0.5319470251061575
 30
0.0
  0
SPLINE
  5
21F
330
1F
100
AcDbEntity
  8
0
  6
Continuous
 62
     7
370
    25
100
AcDbSpline
210
0.0
220
0.0
230
1.0
 70
     8
 71
     3
 72
     8
 73
     4
 74
     0
 42
0.00000001
 43
0.00000001
 40
0.0
 40
0.0
 40
0.0
 40
0.0
 40
1.0
 40
1.0
 40
1.0
 40
1.0
 10
0.7856586718391719
 20
-0.6965920264860257
 30
0.0
 10
0.7754621546429494
 20
-0.6931237889606496
 30
0.0
 10
0.7654826248676818
 20
-0.6892705547752619
 30
0.0
 10
0.7557174680861267
 20
-0.6850482526285966
 30
0.0
  0
SPLINE
  5
220
330
1F
100
AcDbEntity
  8
0
  6
Continuous
 62
     7
370
    25
100
AcDbSpline
210
0.0
220
0.0
230
1.0
 70
     8
 71
     3
 72
     8
 73
     4
 74
     0
 42
0.00000001
 43
0.00000001
 40
0.0
 40
0.0
 40
0.0
 40
0.0
 40
1.0
 40
1.0
 40
1.0
 40
1.0
 10
0.7948344297079613
 20
-0.6392481750860316
 30
0.0
 10
0.8005323553858491
 20
-0.6482325930057028
 30
0.0
 10
0.8058992922660874
 20
-0.6574864795808917
 30
0.0
 10
0.8109199167451798
 20
-0.6670149088483642
 30
0.0
  0
SPLINE
  5
222
330
1F
100
AcDbEntity
  8
0
  6
Continuous
 62
     7
370
    25
100
AcDbSpline
210
0.0
220
0.0
230
1.0
 70
     8
 71
     3
 72
     8
 73
     4
 74
     0
 42
0.00000001
 43
0.00000001
 40
0.0
 40
0.0
 40
0.0
 40
0.0
 40
1.0
 40
1.0
 40
1.0
 40
1.0
 10
0.7557174680861131
 20
0.6850482526286122
 30
0.0
 10
0.765482624867666
 20
0.6892705547752775
 30
0.0
 10
0.7754621546429357
 20
0.6931237889606673
 30
0.0
 10
0.7856586718391582
 20
0.6965920264860432
 30
0.0
  0
SPLINE
  5
223
330
1F
100
AcDbEntity
  8
0
  6
Continuous
 62
     7
370
    25
100
AcDbSpline
210
0.0
220
0.0
230
1.0
 70
     8
 71
     3
 72
     8
 73
     4
 74
     0
 42
0.00000001
 43
0.00000001
 40
0.0
 40
0.0
 40
0.0
 40
0.0
 40
1.0
 40
1.0
 40
1.0
 40
1.0
 10
0.8109199167451661
 20
0.6670149088483819
 30
0.0
 10
0.8058992922660736
 20
0.6574864795809094
 30
0.0
 10
0.8005323553858352
 20
0.6482325930057206
 30
0.0
 10
0.7948344297079475
 20
0.6392481750860473
 30
0.0
  0
SPLINE
  5
225
330
1F
100
AcDbEntity
  8
0
  6
Continuous
 62
     7
370
    25
100
AcDbSpline
210
0.0
220
0.0
230
1.0
 70
     8
 71
     3
 72
     8
 73
     4
 74
     0
 42
0.00000001
 43
0.00000001
 40
0.0
 40
0.0
 40
0.0
 40
0.0
 40
1.0
 40
1.0
 40
1.0
 40
1.0
 10
0.6965920264860243
 20
0.7856586718391753
 30
0.0
 10
0.6931237889606483
 20
0.7754621546429508
 30
0.0
 10
0.6892705547752604
 20
0.7654826248676831
 30
0.0
 10
0.6850482526285951
 20
0.755717468086128
 30
0.0
  0
SPLINE
  5
226
330
1F
100
AcDbEntity
  8
0
  6
Continuous
 62
     7
370
    25
100
AcDbSpline
210
0.0
220
0.0
230
1.0
 70
     8
 71
     3
 72
     8
 73
     4
 74
     0
 42
0.00000001
 43
0.00000001
 40
0.0
 40
0.0
 40
0.0
 40
0.0
 40
1.0
 40
1.0
 40
1.0
 40
1.0
 10
0.6392481750860283
 20
0.7948344297079627
 30
0.0
 10
0.6482325930057016
 20
0.8005323553858503
 30
0.0
 10
0.6574864795808905
 20
0.8058992922660886
 30
0.0
 10
0.6670149088483629
 20
0.810919916745181
 30
0.0
  0
SPLINE
  5
228
330
1F
100
AcDbEntity
  8
0
  6
Continuous
 62
     7
370
    25
100
AcDbSpline
210
0.0
220
0.0
230
1.0
 70
     8
 71
     3
 72
     8
 73
     4
 74
     0
 42
0.00000001
 43
0.00000001
 40
0.0
 40
0.0
 40
0.0
 40
0.0
 40
1.0
 40
1.0
 40
1.0
 40
1.0
 10
0.6670149088483807
 20
-0.8109199167451673
 30
0.0
 10
0.6574864795809082
 20
-0.8058992922660748
 30
0.0
 10
0.6482325930057192
 20
-0.8005323553858367
 30
0.0
 10
0.639248175086046
 20
-0.7948344297079489
 30
0.0
  0
SPLINE
  5
229
330
1F
100
AcDbEntity
  8
0
  6
Continuous
 62
     7
370
    25
100
AcDbSpline
210
0.0
220
0.0
230
1.0
 70
     8
 71
     3
 72
     8
 73
     4
 74
     0
 42
0.00000001
 43
0.00000001
 40
0.0
 40
0.0
 40
0.0
 40
0.0
 40
1.0
 40
1.0
 40
1.0
 40
1.0
 10
0.6850482526286109
 20
-0.7557174680861143
 30
0.0
 10
0.6892705547752763
 20
-0.7654826248676675
 30
0.0
 10
0.6931237889606661
 20
-0.775462154642937
 30
0.0
 10
0.6965920264860401
 20
-0.7856586718391594
 30
0.0
  0
SPLINE
  5
22B
330
1F
100
AcDbEntity
  8
0
  6
Continuous
 62
     7
370
    25
100
AcDbSpline
210
0.0
220
0.0
230
1.0
 70
     8
 71
     3
 72
     8
 73
     4
 74
     0
 42
0.00000001
 43
0.00000001
 40
0.0
 40
0.0
 40
0.0
 40
0.0
 40
1.0
 40
1.0
 40
1.0
 40
1.0
 10
0.5319470251061748
 20
-0.9052802673651359
 30
0.0
 10
0.5233213053190613
 20
-0.8988308803695
 30
0.0
 10
0.515020923343322
 20
-0.8920823925922441
 30
0.0
 10
0.5070384704722866
 20
-0.8850491452236556
 30
0.0
  0
SPLINE
  5
22C
330
1F
100
AcDbEntity
  8
0
  6
Continuous
 62
     7
370
    25
100
AcDbSpline
210
0.0
220
0.0
230
1.0
 70
     8
 71
     3
 72
     8
 73
     4
 74
     0
 42
0.00000001
 43
0.00000001
 40
0.0
 40
0.0
 40
0.0
 40
0.0
 40
1.0
 40
1.0
 40
1.0
 40
1.0
 10
0.5583939140247424
 20
-0.8535784889394351
 30
0.0
 10
0.5610366255483171
 20
-0.8638839340142106
 30
0.0
 10
0.5632812776250614
 20
-0.8743433778463326
 30
0.0
 10
0.5651117286784243
 20
-0.8849569108776338
 30
0.0
  0
SPLINE
  5
22E
330
1F
100
AcDbEntity
  8
0
  6
Continuous
 62
     7
370
    25
100
AcDbSpline
210
0.0
220
0.0
230
1.0
 70
     8
 71
     3
 72
     8
 73
     4
 74
     0
 42
0.00000001
 43
0.00000001
 40
0.0
 40
0.0
 40
0.0
 40
0.0
 40
1.0
 40
1.0
 40
1.0
 40
1.0
 10
0.5070384704722677
 20
0.8850491452236673
 30
0.0
 10
0.5150209233433031
 20
0.8920823925922559
 30
0.0
 10
0.5233213053190416
 20
0.8988308803695099
 30
0.0
 10
0.531947025106155
 20
0.9052802673651476
 30
0.0
  0
SPLINE
  5
22F
330
1F
100
AcDbEntity
  8
0
  6
Continuous
 62
     7
370
    25
100
AcDbSpline
210
0.0
220
0.0
230
1.0
 70
     8
 71
     3
 72
     8
 73
     4
 74
     0
 42
0.00000001
 43
0.00000001
 40
0.0
 40
0.0
 40
0.0
 40
0.0
 40
1.0
 40
1.0
 40
1.0
 40
1.0
 10
0.5651117286784054
 20
0.8849569108776456
 30
0.0
 10
0.5632812776250424
 20
0.8743433778463444
 30
0.0
 10
0.5610366255482984
 20
0.8638839340142224
 30
0.0
 10
0.5583939140247236
 20
0.8535784889394469
 30
0.0
  0
SPLINE
  5
231
330
1F
100
AcDbEntity
  8
0
  6
Continuous
 62
     7
370
    25
100
AcDbSpline
210
0.0
220
0.0
230
1.0
 70
     8
 71
     3
 72
     8
 73
     4
 74
     0
 42
0.00000001
 43
0.00000001
 40
0.0
 40
0.0
 40
0.0
 40
0.0
 40
1.0
 40
1.0
 40
1.0
 40
1.0
 10
0.3623437959512719
 20
0.953471013474254
 30
0.0
 10
0.3691277292917428
 20
0.961666400641321
 30
0.0
 10
0.3762702237164011
 20
0.969630269149569
 30
0.0
 10
0.383780840174874
 20
0.977349613349628
 30
0.0
  0
SPLINE
  5
232
330
1F
100
AcDbEntity
  8
0
  6
Continuous
 62
     7
370
    25
100
AcDbSpline
210
0.0
220
0.0
230
1.0
 70
     8
 71
     3
 72
     8
 73
     4
 74
     0
 42
0.00000001
 43
0.00000001
 40
0.0
 40
0.0
 40
0.0
 40
0.0
 40
1.0
 40
1.0
 40
1.0
 40
1.0
 10
0.4197165046124235
 20
0.9624645737667068
 30
0.0
 10
0.4195689118109259
 20
0.9516953653078544
 30
0.0
 10
0.418988112626529
 20
0.941013553638931
 30
0.0
 10
0.4179900640544126
 20
0.9304215745304864
 30
0.0
  0
SPLINE
  5
234
330
1F
100
AcDbEntity
  8
0
  6
Continuous
 62
     7
370
    25
100
AcDbSpline
210
0.0
220
0.0
230
1.0
 70
     8
 71
     3
 72
     8
 73
     4
 74
     0
 42
0.00000001
 43
0.00000001
 40
0.0
 40
0.0
 40
0.0
 40
0.0
 40
1.0
 40
1.0
 40
1.0
 40
1.0
 10
0.3837808401748952
 20
-0.9773496133496201
 30
0.0
 10
0.3762702237164224
 20
-0.9696302691495591
 30
0.0
 10
0.3691277292917637
 20
-0.961666400641313
 30
0.0
 10
0.3623437959512928
 20
-0.9534710134742481
 30
0.0
  0
SPLINE
  5
235
330
1F
100
AcDbEntity
  8
0
  6
Continuous
 62
     7
370
    25
100
AcDbSpline
210
0.0
220
0.0
230
1.0
 70
     8
 71
     3
 72
     8
 73
     4
 74
     0
 42
0.00000001
 43
0.00000001
 40
0.0
 40
0.0
 40
0.0
 40
0.0
 40
1.0
 40
1.0
 40
1.0
 40
1.0
 10
0.4179900640544322
 20
-0.9304215745304765
 30
0.0
 10
0.4189881126265495
 20
-0.9410135536389231
 30
0.0
 10
0.4195689118109456
 20
-0.9516953653078446
 30
0.0
 10
0.419716504612444
 20
-0.9624645737666988
 30
0.0
  0
SPLINE
  5
237
330
1F
100
AcDbEntity
  8
0
  6
Continuous
 62
     7
370
    25
100
AcDbSpline
210
0.0
220
0.0
230
1.0
 70
     8
 71
     3
 72
     8
 73
     4
 74
     0
 42
0.00000001
 43
0.00000001
 40
0.0
 40
0.0
 40
0.0
 40
0.0
 40
1.0
 40
1.0
 40
1.0
 40
1.0
 10
0.226164697262918
 20
-1.025353368216037
 30
0.0
 10
0.2199541204366007
 20
-1.016554142684793
 30
0.0
 10
0.2141453854803373
 20
-1.007570990318791
 30
0.0
 10
0.2087270146238645
 20
-0.9984152609842303
 30
0.0
  0
SPLINE
  5
238
330
1F
100
AcDbEntity
  8
0
  6
Continuous
 62
     7
370
    25
100
AcDbSpline
210
0.0
220
0.0
230
1.0
 70
     8
 71
     3
 72
     8
 73
     4
 74
     0
 42
0.00000001
 43
0.00000001
 40
0.0
 40
0.0
 40
0.0
 40
0.0
 40
1.0
 40
1.0
 40
1.0
 40
1.0
 10
0.2672939114776058
 20
-0.9843545930644115
 30
0.0
 10
0.2666227218300865
 20
-0.9949722965281143
 30
0.0
 10
0.2655253669186534
 20
-1.005613454379648
 30
0.0
 10
0.2639864672436818
 20
-1.016273164612842
 30
0.0
  0
SPLINE
  5
23A
330
1F
100
AcDbEntity
  8
0
  6
Continuous
 62
     7
370
    25
100
AcDbSpline
210
0.0
220
0.0
230
1.0
 70
     8
 71
     3
 72
     8
 73
     4
 74
     0
 42
0.00000001
 43
0.00000001
 40
0.0
 40
0.0
 40
0.0
 40
0.0
 40
1.0
 40
1.0
 40
1.0
 40
1.0
 10
0.2087270146238432
 20
0.9984152609842343
 30
0.0
 10
0.2141453854803235
 20
1.007570990318793
 30
0.0
 10
0.2199541204365857
 20
1.016554142684797
 30
0.0
 10
0.2261646972629034
 20
1.025353368216041
 30
0.0
  0
SPLINE
  5
23B
330
1F
100
AcDbEntity
  8
0
  6
Continuous
 62
     7
370
    25
100
AcDbSpline
210
0.0
220
0.0
230
1.0
 70
     8
 71
     3
 72
     8
 73
     4
 74
     0
 42
0.00000001
 43
0.00000001
 40
0.0
 40
0.0
 40
0.0
 40
0.0
 40
1.0
 40
1.0
 40
1.0
 40
1.0
 10
0.2639864672436673
 20
1.016273164612846
 30
0.0
 10
0.2655253669186393
 20
1.005613454379652
 30
0.0
 10
0.2666227218300724
 20
0.9949722965281161
 30
0.0
 10
0.267293911477592
 20
0.9843545930644155
 30
0.0
  0
SPLINE
  5
23D
330
1F
100
AcDbEntity
  8
0
  6
Continuous
 62
     7
370
    25
100
AcDbSpline
210
0.0
220
0.0
230
1.0
 70
     8
 71
     3
 72
     8
 73
     4
 74
     0
 42
0.00000001
 43
0.00000001
 40
0.0
 40
0.0
 40
0.0
 40
0.0
 40
1.0
 40
1.0
 40
1.0
 40
1.0
 10
0.0629796289067454
 20
-1.048109520204242
 30
0.0
 10
0.0582220167257694
 20
-1.03844707947735
 30
0.0
 10
0.0538900715706119
 20
-1.028665838278217
 30
0.0
 10
0.0499706814711507
 20
-1.018775211218504
 30
0.0
  0
SPLINE
  5
23E
330
1F
100
AcDbEntity
  8
0
  6
Continuous
 62
     7
370
    25
100
AcDbSpline
210
0.0
220
0.0
230
1.0
 70
     8
 71
     3
 72
     8
 73
     4
 74
     0
 42
0.00000001
 43
0.00000001
 40
0.0
 40
0.0
 40
0.0
 40
0.0
 40
1.0
 40
1.0
 40
1.0
 40
1.0
 10
0.1100160957025816
 20
-1.0140495346315
 30
0.0
 10
0.1076921947520983
 20
-1.024431519353045
 30
0.0
 10
0.104943706264668
 20
-1.03477000276491
 30
0.0
 10
0.1017562069305393
 20
-1.045057737328953
 30
0.0
  0
SPLINE
  5
240
330
1F
100
AcDbEntity
  8
0
  6
Continuous
 62
     7
370
    25
100
AcDbSpline
210
0.0
220
0.0
230
1.0
 70
     8
 71
     3
 72
     8
 73
     4
 74
     0
 42
0.00000001
 43
0.00000001
 40
0.0
 40
0.0
 40
0.0
 40
0.0
 40
1.0
 40
1.0
 40
1.0
 40
1.0
 10
0.0499706814711295
 20
1.018775211218506
 30
0.0
 10
0.0538900715705905
 20
1.028665838278219
 30
0.0
 10
0.0582220167257477
 20
1.038447079477352
 30
0.0
 10
0.0629796289067235
 20
1.048109520204244
 30
0.0
  0
SPLINE
  5
241
330
1F
100
AcDbEntity
  8
0
  6
Continuous
 62
     7
370
    25
100
AcDbSpline
210
0.0
220
0.0
230
1.0
 70
     8
 71
     3
 72
     8
 73
     4
 74
     0
 42
0.00000001
 43
0.00000001
 40
0.0
 40
0.0
 40
0.0
 40
0.0
 40
1.0
 40
1.0
 40
1.0
 40
1.0
 10
0.1017562069305174
 20
1.045057737328955
 30
0.0
 10
0.1049437062646463
 20
1.034770002764911
 30
0.0
 10
0.107692194752077
 20
1.024431519353047
 30
0.0
 10
0.1100160957025601
 20
1.014049534631502
 30
0.0
  0
SPLINE
  5
243
330
1F
100
AcDbEntity
  8
0
  6
Continuous
 62
     7
370
    25
100
AcDbSpline
210
0.0
220
0.0
230
1.0
 70
     8
 71
     3
 72
     8
 73
     4
 74
     0
 42
0.00000001
 43
0.00000001
 40
0.0
 40
0.0
 40
0.0
 40
0.0
 40
1.0
 40
1.0
 40
1.0
 40
1.0
 10
-0.101756206930523
 20
-1.045057737328953
 30
0.0
 10
-0.1049437062646519
 20
-1.03477000276491
 30
0.0
 10
-0.1076921947520826
 20
-1.024431519353045
 30
0.0
 10
-0.1100160957025663
 20
-1.0140495346315
 30
0.0
  0
SPLINE
  5
244
330
1F
100
AcDbEntity
  8
0
  6
Continuous
 62
     7
370
    25
100
AcDbSpline
210
0.0
220
0.0
230
1.0
 70
     8
 71
     3
 72
     8
 73
     4
 74
     0
 42
0.00000001
 43
0.00000001
 40
0.0
 40
0.0
 40
0.0
 40
0.0
 40
1.0
 40
1.0
 40
1.0
 40
1.0
 10
-0.0499706814711348
 20
-1.018775211218506
 30
0.0
 10
-0.0538900715705959
 20
-1.028665838278217
 30
0.0
 10
-0.0582220167257532
 20
-1.03844707947735
 30
0.0
 10
-0.0629796289067291
 20
-1.048109520204244
 30
0.0
  0
SPLINE
  5
246
330
1F
100
AcDbEntity
  8
0
  6
Continuous
 62
     7
370
    25
100
AcDbSpline
210
0.0
220
0.0
230
1.0
 70
     8
 71
     3
 72
     8
 73
     4
 74
     0
 42
0.00000001
 43
0.00000001
 40
0.0
 40
0.0
 40
0.0
 40
0.0
 40
1.0
 40
1.0
 40
1.0
 40
1.0
 10
-0.1100160957025879
 20
1.014049534631498
 30
0.0
 10
-0.1076921947521046
 20
1.024431519353043
 30
0.0
 10
-0.1049437062646743
 20
1.034770002764908
 30
0.0
 10
-0.1017562069305456
 20
1.045057737328951
 30
0.0
  0
SPLINE
  5
247
330
1F
100
AcDbEntity
  8
0
  6
Continuous
 62
     7
370
    25
100
AcDbSpline
210
0.0
220
0.0
230
1.0
 70
     8
 71
     3
 72
     8
 73
     4
 74
     0
 42
0.00000001
 43
0.00000001
 40
0.0
 40
0.0
 40
0.0
 40
0.0
 40
1.0
 40
1.0
 40
1.0
 40
1.0
 10
-0.0629796289067517
 20
1.048109520204242
 30
0.0
 10
-0.0582220167257754
 20
1.03844707947735
 30
0.0
 10
-0.0538900715706186
 20
1.028665838278217
 30
0.0
 10
-0.0499706814711425
 20
1.018775211218506
 30
0.0
  0
SPLINE
  5
249
330
1F
100
AcDbEntity
  8
0
  6
Continuous
 62
     7
370
    25
100
AcDbSpline
210
0.0
220
0.0
230
1.0
 70
     8
 71
     3
 72
     8
 73
     4
 74
     0
 42
0.00000001
 43
0.00000001
 40
0.0
 40
0.0
 40
0.0
 40
0.0
 40
1.0
 40
1.0
 40
1.0
 40
1.0
 10
-0.263986467243673
 20
-1.016273164612844
 30
0.0
 10
-0.265525366918645
 20
-1.00561345437965
 30
0.0
 10
-0.2666227218300781
 20
-0.9949722965281161
 30
0.0
 10
-0.2672939114775973
 20
-0.9843545930644134
 30
0.0
  0
SPLINE
  5
24A
330
1F
100
AcDbEntity
  8
0
  6
Continuous
 62
     7
370
    25
100
AcDbSpline
210
0.0
220
0.0
230
1.0
 70
     8
 71
     3
 72
     8
 73
     4
 74
     0
 42
0.00000001
 43
0.00000001
 40
0.0
 40
0.0
 40
0.0
 40
0.0
 40
1.0
 40
1.0
 40
1.0
 40
1.0
 10
-0.2087270146238489
 20
-0.9984152609842323
 30
0.0
 10
-0.2141453854803289
 20
-1.007570990318793
 30
0.0
 10
-0.2199541204365914
 20
-1.016554142684795
 30
0.0
 10
-0.2261646972629092
 20
-1.025353368216039
 30
0.0
  0
SPLINE
  5
24C
330
1F
100
AcDbEntity
  8
0
  6
Continuous
 62
     7
370
    25
100
AcDbSpline
210
0.0
220
0.0
230
1.0
 70
     8
 71
     3
 72
     8
 73
     4
 74
     0
 42
0.00000001
 43
0.00000001
 40
0.0
 40
0.0
 40
0.0
 40
0.0
 40
1.0
 40
1.0
 40
1.0
 40
1.0
 10
-0.2672939114776045
 20
0.9843545930644115
 30
0.0
 10
-0.2666227218300852
 20
0.9949722965281143
 30
0.0
 10
-0.2655253669186521
 20
1.005613454379648
 30
0.0
 10
-0.2639864672436804
 20
1.016273164612842
 30
0.0
  0
SPLINE
  5
24D
330
1F
100
AcDbEntity
  8
0
  6
Continuous
 62
     7
370
    25
100
AcDbSpline
210
0.0
220
0.0
230
1.0
 70
     8
 71
     3
 72
     8
 73
     4
 74
     0
 42
0.00000001
 43
0.00000001
 40
0.0
 40
0.0
 40
0.0
 40
0.0
 40
1.0
 40
1.0
 40
1.0
 40
1.0
 10
-0.2261646972629167
 20
1.025353368216037
 30
0.0
 10
-0.2199541204365989
 20
1.016554142684793
 30
0.0
 10
-0.2141453854803363
 20
1.007570990318791
 30
0.0
 10
-0.208727014623856
 20
0.9984152609842323
 30
0.0
  0
SPLINE
  5
24F
330
1F
100
AcDbEntity
  8
0
  6
Continuous
 62
     7
370
    25
100
AcDbSpline
210
0.0
220
0.0
230
1.0
 70
     8
 71
     3
 72
     8
 73
     4
 74
     0
 42
0.00000001
 43
0.00000001
 40
0.0
 40
0.0
 40
0.0
 40
0.0
 40
1.0
 40
1.0
 40
1.0
 40
1.0
 10
-0.4179900640544246
 20
0.9304215745304805
 30
0.0
 10
-0.418988112626541
 20
0.9410135536389252
 30
0.0
 10
-0.4195689118109379
 20
0.9516953653078485
 30
0.0
 10
-0.4197165046124363
 20
0.9624645737667008
 30
0.0
  0
SPLINE
  5
250
330
1F
100
AcDbEntity
  8
0
  6
Continuous
 62
     7
370
    25
100
AcDbSpline
210
0.0
220
0.0
230
1.0
 70
     8
 71
     3
 72
     8
 73
     4
 74
     0
 42
0.00000001
 43
0.00000001
 40
0.0
 40
0.0
 40
0.0
 40
0.0
 40
1.0
 40
1.0
 40
1.0
 40
1.0
 10
-0.3837808401748867
 20
0.977349613349622
 30
0.0
 10
-0.3762702237164143
 20
0.9696302691495631
 30
0.0
 10
-0.3691277292917556
 20
0.961666400641315
 30
0.0
 10
-0.3623437959512848
 20
0.95347101347425
 30
0.0
  0
SPLINE
  5
252
330
1F
100
AcDbEntity
  8
0
  6
Continuous
 62
     7
370
    25
100
AcDbSpline
210
0.0
220
0.0
230
1.0
 70
     8
 71
     3
 72
     8
 73
     4
 74
     0
 42
0.00000001
 43
0.00000001
 40
0.0
 40
0.0
 40
0.0
 40
0.0
 40
1.0
 40
1.0
 40
1.0
 40
1.0
 10
-0.4197165046124293
 20
-0.9624645737667047
 30
0.0
 10
-0.4195689118109309
 20
-0.9516953653078505
 30
0.0
 10
-0.4189881126265347
 20
-0.9410135536389291
 30
0.0
 10
-0.4179900640544175
 20
-0.9304215745304824
 30
0.0
  0
SPLINE
  5
253
330
1F
100
AcDbEntity
  8
0
  6
Continuous
 62
     7
370
    25
100
AcDbSpline
210
0.0
220
0.0
230
1.0
 70
     8
 71
     3
 72
     8
 73
     4
 74
     0
 42
0.00000001
 43
0.00000001
 40
0.0
 40
0.0
 40
0.0
 40
0.0
 40
1.0
 40
1.0
 40
1.0
 40
1.0
 10
-0.3623437959512777
 20
-0.9534710134742519
 30
0.0
 10
-0.3691277292917485
 20
-0.9616664006413189
 30
0.0
 10
-0.3762702237164072
 20
-0.969630269149565
 30
0.0
 10
-0.38378084017488
 20
-0.977349613349626
 30
0.0
  0
SPLINE
  5
255
330
1F
100
AcDbEntity
  8
0
  6
Continuous
 62
     7
370
    25
100
AcDbSpline
210
0.0
220
0.0
230
1.0
 70
     8
 71
     3
 72
     8
 73
     4
 74
     0
 42
0.00000001
 43
0.00000001
 40
0.0
 40
0.0
 40
0.0
 40
0.0
 40
1.0
 40
1.0
 40
1.0
 40
1.0
 10
-0.5651117286784104
 20
-0.8849569108776417
 30
0.0
 10
-0.5632812776250474
 20
-0.8743433778463405
 30
0.0
 10
-0.5610366255483032
 20
-0.8638839340142185
 30
0.0
 10
-0.5583939140247285
 20
-0.853578488939443
 30
0.0
  0
SPLINE
  5
256
330
1F
100
AcDbEntity
  8
0
  6
Continuous
 62
     7
370
    25
100
AcDbSpline
210
0.0
220
0.0
230
1.0
 70
     8
 71
     3
 72
     8
 73
     4
 74
     0
 42
0.00000001
 43
0.00000001
 40
0.0
 40
0.0
 40
0.0
 40
0.0
 40
1.0
 40
1.0
 40
1.0
 40
1.0
 10
-0.5070384704722718
 20
-0.8850491452236634
 30
0.0
 10
-0.5150209233433072
 20
-0.892082392592252
 30
0.0
 10
-0.5233213053190465
 20
-0.8988308803695059
 30
0.0
 10
-0.5319470251061608
 20
-0.9052802673651438
 30
0.0
  0
SPLINE
  5
258
330
1F
100
AcDbEntity
  8
0
  6
Continuous
 62
     7
370
    25
100
AcDbSpline
210
0.0
220
0.0
230
1.0
 70
     8
 71
     3
 72
     8
 73
     4
 74
     0
 42
0.00000001
 43
0.00000001
 40
0.0
 40
0.0
 40
0.0
 40
0.0
 40
1.0
 40
1.0
 40
1.0
 40
1.0
 10
-0.5583939140247356
 20
0.853578488939439
 30
0.0
 10
-0.5610366255483095
 20
0.8638839340142145
 30
0.0
 10
-0.5632812776250536
 20
0.8743433778463365
 30
0.0
 10
-0.5651117286784166
 20
0.8849569108776378
 30
0.0
  0
SPLINE
  5
259
330
1F
100
AcDbEntity
  8
0
  6
Continuous
 62
     7
370
    25
100
AcDbSpline
210
0.0
220
0.0
230
1.0
 70
     8
 71
     3
 72
     8
 73
     4
 74
     0
 42
0.00000001
 43
0.00000001
 40
0.0
 40
0.0
 40
0.0
 40
0.0
 40
1.0
 40
1.0
 40
1.0
 40
1.0
 10
-0.531947025106167
 20
0.9052802673651398
 30
0.0
 10
-0.5233213053190536
 20
0.8988308803695021
 30
0.0
 10
-0.5150209233433143
 20
0.8920823925922481
 30
0.0
 10
-0.5070384704722789
 20
0.8850491452236595
 30
0.0
  0
SPLINE
  5
25B
330
1F
100
AcDbEntity
  8
0
  6
Continuous
 62
     7
370
    25
100
AcDbSpline
210
0.0
220
0.0
230
1.0
 70
     8
 71
     3
 72
     8
 73
     4
 74
     0
 42
0.00000001
 43
0.00000001
 40
0.0
 40
0.0
 40
0.0
 40
0.0
 40
1.0
 40
1.0
 40
1.0
 40
1.0
 10
-0.6965920264860289
 20
-0.7856586718391692
 30
0.0
 10
-0.693123788960653
 20
-0.7754621546429469
 30
0.0
 10
-0.6892705547752651
 20
-0.7654826248676773
 30
0.0
 10
-0.6850482526285997
 20
-0.7557174680861241
 30
0.0
  0
SPLINE
  5
25C
330
1F
100
AcDbEntity
  8
0
  6
Continuous
 62
     7
370
    25
100
AcDbSpline
210
0.0
220
0.0
230
1.0
 70
     8
 71
     3
 72
     8
 73
     4
 74
     0
 42
0.00000001
 43
0.00000001
 40
0.0
 40
0.0
 40
0.0
 40
0.0
 40
1.0
 40
1.0
 40
1.0
 40
1.0
 10
-0.6392481750860328
 20
-0.7948344297079587
 30
0.0
 10
-0.6482325930057061
 20
-0.8005323553858444
 30
0.0
 10
-0.657486479580895
 20
-0.8058992922660847
 30
0.0
 10
-0.6670149088483673
 20
-0.8109199167451772
 30
0.0
  0
SPLINE
  5
25E
330
1F
100
AcDbEntity
  8
0
  6
Continuous
 62
     7
370
    25
100
AcDbSpline
210
0.0
220
0.0
230
1.0
 70
     8
 71
     3
 72
     8
 73
     4
 74
     0
 42
0.00000001
 43
0.00000001
 40
0.0
 40
0.0
 40
0.0
 40
0.0
 40
1.0
 40
1.0
 40
1.0
 40
1.0
 10
-0.6850482526286037
 20
0.7557174680861182
 30
0.0
 10
-0.689270554775269
 20
0.7654826248676734
 30
0.0
 10
-0.6931237889606588
 20
0.775462154642941
 30
0.0
 10
-0.6965920264860348
 20
0.7856586718391634
 30
0.0
  0
SPLINE
  5
25F
330
1F
100
AcDbEntity
  8
0
  6
Continuous
 62
     7
370
    25
100
AcDbSpline
210
0.0
220
0.0
230
1.0
 70
     8
 71
     3
 72
     8
 73
     4
 74
     0
 42
0.00000001
 43
0.00000001
 40
0.0
 40
0.0
 40
0.0
 40
0.0
 40
1.0
 40
1.0
 40
1.0
 40
1.0
 10
-0.6670149088483733
 20
0.8109199167451713
 30
0.0
 10
-0.6574864795809009
 20
0.8058992922660788
 30
0.0
 10
-0.648232593005712
 20
0.8005323553858404
 30
0.0
 10
-0.6392481750860388
 20
0.7948344297079528
 30
0.0
  0
SPLINE
  5
261
330
1F
100
AcDbEntity
  8
0
  6
Continuous
 62
     7
370
    25
100
AcDbSpline
210
0.0
220
0.0
230
1.0
 70
     8
 71
     3
 72
     8
 73
     4
 74
     0
 42
0.00000001
 43
0.00000001
 40
0.0
 40
0.0
 40
0.0
 40
0.0
 40
1.0
 40
1.0
 40
1.0
 40
1.0
 10
-0.7948344297079559
 20
0.6392481750860375
 30
0.0
 10
-0.8005323553858418
 20
0.6482325930057087
 30
0.0
 10
-0.80589929226608
 20
0.6574864795808977
 30
0.0
 10
-0.8109199167451726
 20
0.6670149088483701
 30
0.0
  0
SPLINE
  5
262
330
1F
100
AcDbEntity
  8
0
  6
Continuous
 62
     7
370
    25
100
AcDbSpline
210
0.0
220
0.0
230
1.0
 70
     8
 71
     3
 72
     8
 73
     4
 74
     0
 42
0.00000001
 43
0.00000001
 40
0.0
 40
0.0
 40
0.0
 40
0.0
 40
1.0
 40
1.0
 40
1.0
 40
1.0
 10
-0.7856586718391666
 20
0.6965920264860315
 30
0.0
 10
-0.7754621546429441
 20
0.6931237889606574
 30
0.0
 10
-0.7654826248676746
 20
0.6892705547752678
 30
0.0
 10
-0.7557174680861215
 20
0.6850482526286024
 30
0.0
  0
SPLINE
  5
264
330
1F
100
AcDbEntity
  8
0
  6
Continuous
 62
     7
370
    25
100
AcDbSpline
210
0.0
220
0.0
230
1.0
 70
     8
 71
     3
 72
     8
 73
     4
 74
     0
 42
0.00000001
 43
0.00000001
 40
0.0
 40
0.0
 40
0.0
 40
0.0
 40
1.0
 40
1.0
 40
1.0
 40
1.0
 10
-0.8109199167451686
 20
-0.667014908848376
 30
0.0
 10
-0.8058992922660762
 20
-0.6574864795809036
 30
0.0
 10
-0.8005323553858379
 20
-0.6482325930057146
 30
0.0
 10
-0.7948344297079502
 20
-0.6392481750860434
 30
0.0
  0
SPLINE
  5
265
330
1F
100
AcDbEntity
  8
0
  6
Continuous
 62
     7
370
    25
100
AcDbSpline
210
0.0
220
0.0
230
1.0
 70
     8
 71
     3
 72
     8
 73
     4
 74
     0
 42
0.00000001
 43
0.00000001
 40
0.0
 40
0.0
 40
0.0
 40
0.0
 40
1.0
 40
1.0
 40
1.0
 40
1.0
 10
-0.7557174680861155
 20
-0.6850482526286082
 30
0.0
 10
-0.7654826248676687
 20
-0.6892705547752737
 30
0.0
 10
-0.7754621546429382
 20
-0.6931237889606614
 30
0.0
 10
-0.7856586718391607
 20
-0.6965920264860374
 30
0.0
  0
SPLINE
  5
267
330
1F
100
AcDbEntity
  8
0
  6
Continuous
 62
     7
370
    25
100
AcDbSpline
210
0.0
220
0.0
230
1.0
 70
     8
 71
     3
 72
     8
 73
     4
 74
     0
 42
0.00000001
 43
0.00000001
 40
0.0
 40
0.0
 40
0.0
 40
0.0
 40
1.0
 40
1.0
 40
1.0
 40
1.0
 10
-0.8850491452236607
 20
0.5070384704722765
 30
0.0
 10
-0.8920823925922493
 20
0.5150209233433111
 30
0.0
 10
-0.8988308803695033
 20
0.5233213053190512
 30
0.0
 10
-0.905280267365141
 20
0.5319470251061638
 30
0.0
  0
SPLINE
  5
268
330
1F
100
AcDbEntity
  8
0
  6
Continuous
 62
     7
370
    25
100
AcDbSpline
210
0.0
220
0.0
230
1.0
 70
     8
 71
     3
 72
     8
 73
     4
 74
     0
 42
0.00000001
 43
0.00000001
 40
0.0
 40
0.0
 40
0.0
 40
0.0
 40
1.0
 40
1.0
 40
1.0
 40
1.0
 10
-0.8849569108776391
 20
0.5651117286784142
 30
0.0
 10
-0.8743433778463379
 20
0.5632812776250512
 30
0.0
 10
-0.8638839340142158
 20
0.561036625548307
 30
0.0
 10
-0.8535784889394403
 20
0.5583939140247323
 30
0.0
  0
SPLINE
  5
26A
330
1F
100
AcDbEntity
  8
0
  6
Continuous
 62
     7
370
    25
100
AcDbSpline
210
0.0
220
0.0
230
1.0
 70
     8
 71
     3
 72
     8
 73
     4
 74
     0
 42
0.00000001
 43
0.00000001
 40
0.0
 40
0.0
 40
0.0
 40
0.0
 40
1.0
 40
1.0
 40
1.0
 40
1.0
 10
-0.9052802673651371
 20
-0.5319470251061709
 30
0.0
 10
-0.8988308803695013
 20
-0.5233213053190574
 30
0.0
 10
-0.8920823925922453
 20
-0.5150209233433182
 30
0.0
 10
-0.8850491452236569
 20
-0.5070384704722827
 30
0.0
  0
SPLINE
  5
26B
330
1F
100
AcDbEntity
  8
0
  6
Continuous
 62
     7
370
    25
100
AcDbSpline
210
0.0
220
0.0
230
1.0
 70
     8
 71
     3
 72
     8
 73
     4
 74
     0
 42
0.00000001
 43
0.00000001
 40
0.0
 40
0.0
 40
0.0
 40
0.0
 40
1.0
 40
1.0
 40
1.0
 40
1.0
 10
-0.8535784889394363
 20
-0.5583939140247386
 30
0.0
 10
-0.8638839340142119
 20
-0.5610366255483134
 30
0.0
 10
-0.8743433778463339
 20
-0.5632812776250575
 30
0.0
 10
-0.8849569108776351
 20
-0.5651117286784212
 30
0.0
  0
SPLINE
  5
26D
330
1F
100
AcDbEntity
  8
0
  6
Continuous
 62
     7
370
    25
100
AcDbSpline
210
0.0
220
0.0
230
1.0
 70
     8
 71
     3
 72
     8
 73
     4
 74
     0
 42
0.00000001
 43
0.00000001
 40
0.0
 40
0.0
 40
0.0
 40
0.0
 40
1.0
 40
1.0
 40
1.0
 40
1.0
 10
-0.9534710134742493
 20
0.3623437959512815
 30
0.0
 10
-0.9616664006413164
 20
0.3691277292917527
 30
0.0
 10
-0.9696302691495624
 20
0.3762702237164111
 30
0.0
 10
-0.9773496133496233
 20
0.3837808401748838
 30
0.0
  0
SPLINE
  5
26E
330
1F
100
AcDbEntity
  8
0
  6
Continuous
 62
     7
370
    25
100
AcDbSpline
210
0.0
220
0.0
230
1.0
 70
     8
 71
     3
 72
     8
 73
     4
 74
     0
 42
0.00000001
 43
0.00000001
 40
0.0
 40
0.0
 40
0.0
 40
0.0
 40
1.0
 40
1.0
 40
1.0
 40
1.0
 10
-0.9624645737667021
 20
0.4197165046124331
 30
0.0
 10
-0.9516953653078497
 20
0.4195689118109347
 30
0.0
 10
-0.9410135536389265
 20
0.4189881126265386
 30
0.0
 10
-0.9304215745304817
 20
0.4179900640544221
 30
0.0
  0
SPLINE
  5
270
330
1F
100
AcDbEntity
  8
0
  6
Continuous
 62
     7
370
    25
100
AcDbSpline
210
0.0
220
0.0
230
1.0
 70
     8
 71
     3
 72
     8
 73
     4
 74
     0
 42
0.00000001
 43
0.00000001
 40
0.0
 40
0.0
 40
0.0
 40
0.0
 40
1.0
 40
1.0
 40
1.0
 40
1.0
 10
-0.9773496133496213
 20
-0.3837808401748909
 30
0.0
 10
-0.9696302691495603
 20
-0.3762702237164182
 30
0.0
 10
-0.9616664006413143
 20
-0.3691277292917594
 30
0.0
 10
-0.9534710134742475
 20
-0.362343795951289
 30
0.0
  0
SPLINE
  5
271
330
1F
100
AcDbEntity
  8
0
  6
Continuous
 62
     7
370
    25
100
AcDbSpline
210
0.0
220
0.0
230
1.0
 70
     8
 71
     3
 72
     8
 73
     4
 74
     0
 42
0.00000001
 43
0.00000001
 40
0.0
 40
0.0
 40
0.0
 40
0.0
 40
1.0
 40
1.0
 40
1.0
 40
1.0
 10
-0.9304215745304777
 20
-0.4179900640544284
 30
0.0
 10
-0.9410135536389225
 20
-0.4189881126265448
 30
0.0
 10
-0.9516953653078458
 20
-0.4195689118109417
 30
0.0
 10
-0.9624645737667001
 20
-0.419716504612441
 30
0.0
  0
SPLINE
  5
273
330
1F
100
AcDbEntity
  8
0
  6
Continuous
 62
     7
370
    25
100
AcDbSpline
210
0.0
220
0.0
230
1.0
 70
     8
 71
     3
 72
     8
 73
     4
 74
     0
 42
0.00000001
 43
0.00000001
 40
0.0
 40
0.0
 40
0.0
 40
0.0
 40
1.0
 40
1.0
 40
1.0
 40
1.0
 10
-1.025353368216037
 20
-0.2261646972629209
 30
0.0
 10
-1.016554142684793
 20
-0.2199541204366031
 30
0.0
 10
-1.007570990318789
 20
-0.2141453854803406
 30
0.0
 10
-0.9984152609842296
 20
-0.2087270146238603
 30
0.0
  0
SPLINE
  5
274
330
1F
100
AcDbEntity
  8
0
  6
Continuous
 62
     7
370
    25
100
AcDbSpline
210
0.0
220
0.0
230
1.0
 70
     8
 71
     3
 72
     8
 73
     4
 74
     0
 42
0.00000001
 43
0.00000001
 40
0.0
 40
0.0
 40
0.0
 40
0.0
 40
1.0
 40
1.0
 40
1.0
 40
1.0
 10
-0.9843545930644088
 20
-0.2672939114776087
 30
0.0
 10
-0.9949722965281116
 20
-0.2666227218300894
 30
0.0
 10
-1.005613454379647
 20
-0.2655253669186563
 30
0.0
 10
-1.01627316461284
 20
-0.2639864672436847
 30
0.0
  0
SPLINE
  5
276
330
1F
100
AcDbEntity
  8
0
  6
Continuous
 62
     7
370
    25
100
AcDbSpline
210
0.0
220
0.0
230
1.0
 70
     8
 71
     3
 72
     8
 73
     4
 74
     0
 42
0.00000001
 43
0.00000001
 40
0.0
 40
0.0
 40
0.0
 40
0.0
 40
1.0
 40
1.0
 40
1.0
 40
1.0
 10
-0.9984152609842316
 20
0.2087270146238532
 30
0.0
 10
-1.007570990318791
 20
0.2141453854803335
 30
0.0
 10
-1.016554142684793
 20
0.2199541204365961
 30
0.0
 10
-1.025353368216037
 20
0.2261646972629138
 30
0.0
  0
SPLINE
  5
277
330
1F
100
AcDbEntity
  8
0
  6
Continuous
 62
     7
370
    25
100
AcDbSpline
210
0.0
220
0.0
230
1.0
 70
     8
 71
     3
 72
     8
 73
     4
 74
     0
 42
0.00000001
 43
0.00000001
 40
0.0
 40
0.0
 40
0.0
 40
0.0
 40
1.0
 40
1.0
 40
1.0
 40
1.0
 10
-1.016273164612842
 20
0.2639864672436776
 30
0.0
 10
-1.005613454379649
 20
0.2655253669186493
 30
0.0
 10
-0.9949722965281135
 20
0.2666227218300823
 30
0.0
 10
-0.9843545930644109
 20
0.267293911477602
 30
0.0
  0
SPLINE
  5
279
330
1F
100
AcDbEntity
  8
0
  6
Continuous
 62
     7
370
    25
100
AcDbSpline
210
0.0
220
0.0
230
1.0
 70
     8
 71
     3
 72
     8
 73
     4
 74
     0
 42
0.00000001
 43
0.00000001
 40
0.0
 40
0.0
 40
0.0
 40
0.0
 40
1.0
 40
1.0
 40
1.0
 40
1.0
 10
-1.018775211218505
 20
0.0499706814711394
 30
0.0
 10
-1.028665838278216
 20
0.0538900715706004
 30
0.0
 10
-1.03844707947735
 20
0.0582220167257577
 30
0.0
 10
-1.048109520204243
 20
0.0629796289067337
 30
0.0
  0
SPLINE
  5
27A
330
1F
100
AcDbEntity
  8
0
  6
Continuous
 62
     7
370
    25
100
AcDbSpline
210
0.0
220
0.0
230
1.0
 70
     8
 71
     3
 72
     8
 73
     4
 74
     0
 42
0.00000001
 43
0.00000001
 40
0.0
 40
0.0
 40
0.0
 40
0.0
 40
1.0
 40
1.0
 40
1.0
 40
1.0
 10
-1.045057737328952
 20
0.1017562069305276
 30
0.0
 10
-1.034770002764909
 20
0.1049437062646565
 30
0.0
 10
-1.024431519353045
 20
0.107692194752087
 30
0.0
 10
-1.014049534631499
 20
0.1100160957025701
 30
0.0
  0
SPLINE
  5
27C
330
1F
100
AcDbEntity
  8
0
  6
Continuous
 62
     7
370
    25
100
AcDbSpline
210
0.0
220
0.0
230
1.0
 70
     8
 71
     3
 72
     8
 73
     4
 74
     0
 42
0.00000001
 43
0.00000001
 40
0.0
 40
0.0
 40
0.0
 40
0.0
 40
1.0
 40
1.0
 40
1.0
 40
1.0
 10
-1.048109520204243
 20
-0.0629796289067413
 30
0.0
 10
-1.03844707947735
 20
-0.0582220167257654
 30
0.0
 10
-1.028665838278216
 20
-0.0538900715706079
 30
0.0
 10
-1.018775211218505
 20
-0.0499706814711466
 30
0.0
  0
SPLINE
  5
27D
330
1F
100
AcDbEntity
  8
0
  6
Continuous
 62
     7
370
    25
100
AcDbSpline
210
0.0
220
0.0
230
1.0
 70
     8
 71
     3
 72
     8
 73
     4
 74
     0
 42
0.00000001
 43
0.00000001
 40
0.0
 40
0.0
 40
0.0
 40
0.0
 40
1.0
 40
1.0
 40
1.0
 40
1.0
 10
-1.014049534631499
 20
-0.1100160957025778
 30
0.0
 10
-1.024431519353045
 20
-0.1076921947520945
 30
0.0
 10
-1.034770002764909
 20
-0.104943706264664
 30
0.0
 10
-1.045057737328952
 20
-0.1017562069305352
 30
0.0
  0
LINE
  5
27E
330
1F
100
AcDbEntity
  8
0
  6
Continuous
 62
     7
370
    25
100
AcDbLine
 10
0.2886751346
 20
0.0
 30
0.0
 11
0.305
 21
0.0
 31
0.0
  0
LINE
  5
27F
330
1F
100
AcDbEntity
  8
0
  6
Continuous
 62
     7
370
    25
100
AcDbLine
 10
-0.2886751346
 20
0.0
 30
0.0
 11
-0.305
 21
0.0
 31
0.0
  0
ARC
  5
280
330
1F
100
AcDbEntity
  8
0
  6
Continuous
 62
     7
370
    25
100
AcDbCircle
 10
0.0
 20
0.0
 30
0.0
 40
0.305
100
AcDbArc
 50
180.0
 51
0.0
  0
ARC
  5
281
330
1F
100
AcDbEntity
  8
0
  6
Continuous
 62
     7
370
    25
100
AcDbCircle
 10
0.0
 20
0.0
 30
0.0
 40
0.3750000000000001
100
AcDbArc
 50
0.0
 51
180.0
  0
ARC
  5
282
330
1F
100
AcDbEntity
  8
0
  6
Continuous
 62
     7
370
    25
100
AcDbCircle
 10
0.0
 20
0.0
 30
0.0
 40
1.04999999999411
100
AcDbArc
 50
354.4386991641
 51
356.5613008359
  0
ARC
  5
283
330
1F
100
AcDbEntity
  8
0
  6
Continuous
 62
     7
370
    25
100
AcDbCircle
 10
0.0
 20
0.0
 30
0.0
 40
1.020000000000452
100
AcDbArc
 50
353.808093804
 51
357.191906196
  0
ARC
  5
284
330
1F
100
AcDbEntity
  8
0
  6
Continuous
 62
     7
370
    25
100
AcDbCircle
 10
0.0
 20
0.0
 30
0.0
 40
1.049999999993902
100
AcDbArc
 50
3.4386991641
 51
5.5613008359
  0
ARC
  5
285
330
1F
100
AcDbEntity
  8
0
  6
Continuous
 62
     7
370
    25
100
AcDbCircle
 10
0.0
 20
0.0
 30
0.0
 40
1.020000000000084
100
AcDbArc
 50
2.808093804
 51
6.191906196
  0
ARC
  5
286
330
1F
100
AcDbEntity
  8
0
  6
Continuous
 62
     7
370
    25
100
AcDbCircle
 10
-0.7714736872
 20
0.5849258104
 30
0.0
 40
0.4000000000000513
100
AcDbArc
 50
36.5243514544
 51
48.6170940698
  0
ARC
  5
287
330
1F
100
AcDbEntity
  8
0
  6
Continuous
 62
     7
370
    25
100
AcDbCircle
 10
0.0
 20
0.0
 30
0.0
 40
0.9379999999989154
100
AcDbArc
 50
115.3290731059
 51
118.6709268941
  0
ARC
  5
288
330
1F
100
AcDbEntity
  8
0
  6
Continuous
 62
     7
370
    25
100
AcDbCircle
 10
-0.0197540651
 20
0.9679460887
 30
0.0
 40
0.4000000000000322
100
AcDbArc
 50
185.3829059302
 51
197.4756485456
  0
ARC
  5
289
330
1F
100
AcDbEntity
  8
0
  6
Continuous
 62
     7
370
    25
100
AcDbCircle
 10
0.0
 20
0.0
 30
0.0
 40
1.020000000001129
100
AcDbArc
 50
110.808093804
 51
114.191906196
  0
ARC
  5
28A
330
1F
100
AcDbEntity
  8
0
  6
Continuous
 62
     7
370
    25
100
AcDbCircle
 10
-0.6704730097
 20
0.6984094766
 30
0.0
 40
0.399999999999942
100
AcDbArc
 50
27.5243514544
 51
39.6170940698
  0
ARC
  5
28B
330
1F
100
AcDbEntity
  8
0
  6
Continuous
 62
     7
370
    25
100
AcDbCircle
 10
0.0
 20
0.0
 30
0.0
 40
0.9380000000005742
100
AcDbArc
 50
106.3290731059
 51
109.6709268941
  0
ARC
  5
28C
330
1F
100
AcDbEntity
  8
0
  6
Continuous
 62
     7
370
    25
100
AcDbCircle
 10
0.1319092688
 20
0.9591192827
 30
0.0
 40
0.3999999999999775
100
AcDbArc
 50
176.3829059302
 51
188.4756485456
  0
ARC
  5
28D
330
1F
100
AcDbEntity
  8
0
  6
Continuous
 62
     7
370
    25
100
AcDbCircle
 10
0.0
 20
0.0
 30
0.0
 40
1.020000000000685
100
AcDbArc
 50
101.808093804
 51
105.191906196
  0
ARC
  5
28E
330
1F
100
AcDbEntity
  8
0
  6
Continuous
 62
     7
370
    25
100
AcDbCircle
 10
-0.5529630615
 20
0.7946959836
 30
0.0
 40
0.4000000000000111
100
AcDbArc
 50
18.5243514544
 51
30.6170940698
  0
ARC
  5
28F
330
1F
100
AcDbEntity
  8
0
  6
Continuous
 62
     7
370
    25
100
AcDbCircle
 10
0.0
 20
0.0
 30
0.0
 40
0.9379999999982586
100
AcDbArc
 50
97.3290731059
 51
100.6709268941
  0
ARC
  5
290
330
1F
100
AcDbEntity
  8
0
  6
Continuous
 62
     7
370
    25
100
AcDbCircle
 10
0.2803245587
 20
0.9266757769
 30
0.0
 40
0.400000000001534
100
AcDbArc
 50
167.3829059302
 51
179.4756485456
  0
ARC
  5
291
330
1F
100
AcDbEntity
  8
0
  6
Continuous
 62
     7
370
    25
100
AcDbCircle
 10
0.0
 20
0.0
 30
0.0
 40
1.019999999998458
100
AcDbArc
 50
92.808093804
 51
96.191906196
  0
ARC
  5
292
330
1F
100
AcDbEntity
  8
0
  6
Continuous
 62
     7
370
    25
100
AcDbCircle
 10
-0.4218373276
 20
0.871414438
 30
0.0
 40
0.3999999999999773
100
AcDbArc
 50
9.5243514544
 51
21.6170940698
  0
ARC
  5
293
330
1F
100
AcDbEntity
  8
0
  6
Continuous
 62
     7
370
    25
100
AcDbCircle
 10
0.0
 20
0.0
 30
0.0
 40
0.9379999999996232
100
AcDbArc
 50
88.3290731059
 51
91.6709268941
  0
ARC
  5
294
330
1F
100
AcDbEntity
  8
0
  6
Continuous
 62
     7
370
    25
100
AcDbCircle
 10
0.4218373276
 20
0.871414438
 30
0.0
 40
0.4000000000015007
100
AcDbArc
 50
158.3829059302
 51
170.4756485456
  0
ARC
  5
295
330
1F
100
AcDbEntity
  8
0
  6
Continuous
 62
     7
370
    25
100
AcDbCircle
 10
0.0
 20
0.0
 30
0.0
 40
1.020000000000368
100
AcDbArc
 50
83.808093804
 51
87.191906196
  0
ARC
  5
296
330
1F
100
AcDbEntity
  8
0
  6
Continuous
 62
     7
370
    25
100
AcDbCircle
 10
-0.2803245587
 20
0.9266757769
 30
0.0
 40
0.4000000000000022
100
AcDbArc
 50
0.5243514544
 51
12.6170940698
  0
ARC
  5
297
330
1F
100
AcDbEntity
  8
0
  6
Continuous
 62
     7
370
    25
100
AcDbCircle
 10
0.0
 20
0.0
 30
0.0
 40
0.9379999999994519
100
AcDbArc
 50
79.3290731059
 51
82.6709268941
  0
ARC
  5
298
330
1F
100
AcDbEntity
  8
0
  6
Continuous
 62
     7
370
    25
100
AcDbCircle
 10
0.5529630615
 20
0.7946959836
 30
0.0
 40
0.4000000000000085
100
AcDbArc
 50
149.3829059302
 51
161.4756485456
  0
ARC
  5
299
330
1F
100
AcDbEntity
  8
0
  6
Continuous
 62
     7
370
    25
100
AcDbCircle
 10
0.0
 20
0.0
 30
0.0
 40
1.01999999999842
100
AcDbArc
 50
74.808093804
 51
78.191906196
  0
ARC
  5
29A
330
1F
100
AcDbEntity
  8
0
  6
Continuous
 62
     7
370
    25
100
AcDbCircle
 10
-0.1319092688
 20
0.9591192827
 30
0.0
 40
0.399999999999987
100
AcDbArc
 50
351.5243514544
 51
3.6170940698
  0
ARC
  5
29B
330
1F
100
AcDbEntity
  8
0
  6
Continuous
 62
     7
370
    25
100
AcDbCircle
 10
0.0
 20
0.0
 30
0.0
 40
0.938000000000152
100
AcDbArc
 50
70.3290731059
 51
73.6709268941
  0
ARC
  5
29C
330
1F
100
AcDbEntity
  8
0
  6
Continuous
 62
     7
370
    25
100
AcDbCircle
 10
0.6704730097
 20
0.6984094766
 30
0.0
 40
0.400000000000006
100
AcDbArc
 50
140.3829059302
 51
152.4756485456
  0
ARC
  5
29D
330
1F
100
AcDbEntity
  8
0
  6
Continuous
 62
     7
370
    25
100
AcDbCircle
 10
0.0
 20
0.0
 30
0.0
 40
1.019999999998172
100
AcDbArc
 50
65.808093804
 51
69.191906196
  0
ARC
  5
29E
330
1F
100
AcDbEntity
  8
0
  6
Continuous
 62
     7
370
    25
100
AcDbCircle
 10
0.0197540651
 20
0.9679460887
 30
0.0
 40
0.3999999999999983
100
AcDbArc
 50
342.5243514544
 51
354.6170940698
  0
ARC
  5
29F
330
1F
100
AcDbEntity
  8
0
  6
Continuous
 62
     7
370
    25
100
AcDbCircle
 10
0.0
 20
0.0
 30
0.0
 40
0.9379999999986143
100
AcDbArc
 50
61.3290731059
 51
64.6709268941
  0
ARC
  5
2A0
330
1F
100
AcDbEntity
  8
0
  6
Continuous
 62
     7
370
    25
100
AcDbCircle
 10
0.7714736872
 20
0.5849258104
 30
0.0
 40
0.4000000000000297
100
AcDbArc
 50
131.3829059302
 51
143.4756485456
  0
ARC
  5
2A1
330
1F
100
AcDbEntity
  8
0
  6
Continuous
 62
     7
370
    25
100
AcDbCircle
 10
0.0
 20
0.0
 30
0.0
 40
1.020000000001078
100
AcDbArc
 50
56.808093804
 51
60.191906196
  0
ARC
  5
2A2
330
1F
100
AcDbEntity
  8
0
  6
Continuous
 62
     7
370
    25
100
AcDbCircle
 10
0.1709309884
 20
0.9529388495
 30
0.0
 40
0.4000000000001209
100
AcDbArc
 50
333.5243514544
 51
345.6170940698
  0
ARC
  5
2A3
330
1F
100
AcDbEntity
  8
0
  6
Continuous
 62
     7
370
    25
100
AcDbCircle
 10
0.0
 20
0.0
 30
0.0
 40
0.9379999999991535
100
AcDbArc
 50
52.3290731059
 51
55.6709268941
  0
ARC
  5
2A4
330
1F
100
AcDbEntity
  8
0
  6
Continuous
 62
     7
370
    25
100
AcDbCircle
 10
0.8534781222
 20
0.4570393294
 30
0.0
 40
0.4000000000000993
100
AcDbArc
 50
122.3829059302
 51
134.4756485456
  0
ARC
  5
2A5
330
1F
100
AcDbEntity
  8
0
  6
Continuous
 62
     7
370
    25
100
AcDbCircle
 10
0.0
 20
0.0
 30
0.0
 40
1.020000000000308
100
AcDbArc
 50
47.808093804
 51
51.191906196
  0
ARC
  5
2A6
330
1F
100
AcDbEntity
  8
0
  6
Continuous
 62
     7
370
    25
100
AcDbCircle
 10
0.3178990234
 20
0.9144670932
 30
0.0
 40
0.3999999999999259
100
AcDbArc
 50
324.5243514544
 51
336.6170940698
  0
ARC
  5
2A7
330
1F
100
AcDbEntity
  8
0
  6
Continuous
 62
     7
370
    25
100
AcDbCircle
 10
0.0
 20
0.0
 30
0.0
 40
0.9380000000006543
100
AcDbArc
 50
43.3290731059
 51
46.6709268941
  0
ARC
  5
2A8
330
1F
100
AcDbEntity
  8
0
  6
Continuous
 62
     7
370
    25
100
AcDbCircle
 10
0.9144670932
 20
0.3178990234
 30
0.0
 40
0.3999999999998604
100
AcDbArc
 50
113.3829059302
 51
125.4756485456
  0
ARC
  5
2A9
330
1F
100
AcDbEntity
  8
0
  6
Continuous
 62
     7
370
    25
100
AcDbCircle
 10
0.0
 20
0.0
 30
0.0
 40
1.020000000000645
100
AcDbArc
 50
38.808093804
 51
42.191906196
  0
ARC
  5
2AA
330
1F
100
AcDbEntity
  8
0
  6
Continuous
 62
     7
370
    25
100
AcDbCircle
 10
0.4570393294
 20
0.8534781222
 30
0.0
 40
0.3999999999999306
100
AcDbArc
 50
315.5243514544
 51
327.6170940698
  0
ARC
  5
2AB
330
1F
100
AcDbEntity
  8
0
  6
Continuous
 62
     7
370
    25
100
AcDbCircle
 10
0.0
 20
0.0
 30
0.0
 40
0.9380000000008755
100
AcDbArc
 50
34.3290731059
 51
37.6709268941
  0
ARC
  5
2AC
330
1F
100
AcDbEntity
  8
0
  6
Continuous
 62
     7
370
    25
100
AcDbCircle
 10
0.9529388495
 20
0.1709309884
 30
0.0
 40
0.4000000000000124
100
AcDbArc
 50
104.3829059302
 51
116.4756485456
  0
ARC
  5
2AD
330
1F
100
AcDbEntity
  8
0
  6
Continuous
 62
     7
370
    25
100
AcDbCircle
 10
0.0
 20
0.0
 30
0.0
 40
1.020000000002294
100
AcDbArc
 50
29.808093804
 51
33.191906196
  0
ARC
  5
2AE
330
1F
100
AcDbEntity
  8
0
  6
Continuous
 62
     7
370
    25
100
AcDbCircle
 10
0.5849258104
 20
0.7714736872
 30
0.0
 40
0.4000000000000879
100
AcDbArc
 50
306.5243514544
 51
318.6170940698
  0
ARC
  5
2AF
330
1F
100
AcDbEntity
  8
0
  6
Continuous
 62
     7
370
    25
100
AcDbCircle
 10
0.0
 20
0.0
 30
0.0
 40
0.9379999999988382
100
AcDbArc
 50
25.3290731059
 51
28.6709268941
  0
ARC
  5
2B0
330
1F
100
AcDbEntity
  8
0
  6
Continuous
 62
     7
370
    25
100
AcDbCircle
 10
0.9679460887
 20
0.0197540651
 30
0.0
 40
0.4000000000000682
100
AcDbArc
 50
95.3829059302
 51
107.4756485456
  0
ARC
  5
2B1
330
1F
100
AcDbEntity
  8
0
  6
Continuous
 62
     7
370
    25
100
AcDbCircle
 10
0.0
 20
0.0
 30
0.0
 40
1.019999999999312
100
AcDbArc
 50
20.808093804
 51
24.191906196
  0
ARC
  5
2B2
330
1F
100
AcDbEntity
  8
0
  6
Continuous
 62
     7
370
    25
100
AcDbCircle
 10
0.6984094766
 20
0.6704730097
 30
0.0
 40
0.3999999999999084
100
AcDbArc
 50
297.5243514544
 51
309.6170940698
  0
ARC
  5
2B3
330
1F
100
AcDbEntity
  8
0
  6
Continuous
 62
     7
370
    25
100
AcDbCircle
 10
0.0
 20
0.0
 30
0.0
 40
0.9379999999992875
100
AcDbArc
 50
16.3290731059
 51
19.6709268941
  0
ARC
  5
2B4
330
1F
100
AcDbEntity
  8
0
  6
Continuous
 62
     7
370
    25
100
AcDbCircle
 10
0.9591192827
 20
-0.1319092688
 30
0.0
 40
0.3999999999999919
100
AcDbArc
 50
86.3829059302
 51
98.4756485456
  0
ARC
  5
2B5
330
1F
100
AcDbEntity
  8
0
  6
Continuous
 62
     7
370
    25
100
AcDbCircle
 10
0.0
 20
0.0
 30
0.0
 40
1.019999999998949
100
AcDbArc
 50
11.808093804
 51
15.191906196
  0
ARC
  5
2B6
330
1F
100
AcDbEntity
  8
0
  6
Continuous
 62
     7
370
    25
100
AcDbCircle
 10
0.7946959836
 20
0.5529630615
 30
0.0
 40
0.4000000000000042
100
AcDbArc
 50
288.5243514544
 51
300.6170940698
  0
ARC
  5
2B7
330
1F
100
AcDbEntity
  8
0
  6
Continuous
 62
     7
370
    25
100
AcDbCircle
 10
0.0
 20
0.0
 30
0.0
 40
0.9379999999973344
100
AcDbArc
 50
7.3290731059
 51
10.6709268941
  0
ARC
  5
2B8
330
1F
100
AcDbEntity
  8
0
  6
Continuous
 62
     7
370
    25
100
AcDbCircle
 10
0.0
 20
0.0
 30
0.0
 40
0.9380000000016588
100
AcDbArc
 50
358.3290731059
 51
1.6709268941
  0
ARC
  5
2B9
330
1F
100
AcDbEntity
  8
0
  6
Continuous
 62
     7
370
    25
100
AcDbCircle
 10
0.0
 20
0.0
 30
0.0
 40
0.9379999999996776
100
AcDbArc
 50
349.3290731059
 51
352.6709268941
  0
ARC
  5
2BA
330
1F
100
AcDbEntity
  8
0
  6
Continuous
 62
     7
370
    25
100
AcDbCircle
 10
0.7946959836
 20
-0.5529630615
 30
0.0
 40
0.3999999999999957
100
AcDbArc
 50
59.3829059302
 51
71.4756485456
  0
ARC
  5
2BB
330
1F
100
AcDbEntity
  8
0
  6
Continuous
 62
     7
370
    25
100
AcDbCircle
 10
0.0
 20
0.0
 30
0.0
 40
1.020000000000733
100
AcDbArc
 50
344.808093804
 51
348.191906196
  0
ARC
  5
2BC
330
1F
100
AcDbEntity
  8
0
  6
Continuous
 62
     7
370
    25
100
AcDbCircle
 10
0.9591192827
 20
0.1319092688
 30
0.0
 40
0.3999999999999952
100
AcDbArc
 50
261.5243514544
 51
273.6170940698
  0
ARC
  5
2BD
330
1F
100
AcDbEntity
  8
0
  6
Continuous
 62
     7
370
    25
100
AcDbCircle
 10
0.0
 20
0.0
 30
0.0
 40
0.938000000000342
100
AcDbArc
 50
340.3290731059
 51
343.6709268941
  0
ARC
  5
2BE
330
1F
100
AcDbEntity
  8
0
  6
Continuous
 62
     7
370
    25
100
AcDbCircle
 10
0.6984094766
 20
-0.6704730097
 30
0.0
 40
0.4000000000001395
100
AcDbArc
 50
50.3829059302
 51
62.4756485456
  0
ARC
  5
2BF
330
1F
100
AcDbEntity
  8
0
  6
Continuous
 62
     7
370
    25
100
AcDbCircle
 10
0.0
 20
0.0
 30
0.0
 40
1.020000000000626
100
AcDbArc
 50
335.808093804
 51
339.191906196
  0
ARC
  5
2C0
330
1F
100
AcDbEntity
  8
0
  6
Continuous
 62
     7
370
    25
100
AcDbCircle
 10
0.9679460887
 20
-0.0197540651
 30
0.0
 40
0.400000000000046
100
AcDbArc
 50
252.5243514544
 51
264.6170940698
  0
ARC
  5
2C1
330
1F
100
AcDbEntity
  8
0
  6
Continuous
 62
     7
370
    25
100
AcDbCircle
 10
0.0
 20
0.0
 30
0.0
 40
0.9379999999990959
100
AcDbArc
 50
331.3290731059
 51
334.6709268941
  0
ARC
  5
2C2
330
1F
100
AcDbEntity
  8
0
  6
Continuous
 62
     7
370
    25
100
AcDbCircle
 10
0.5849258104
 20
-0.7714736872
 30
0.0
 40
0.4000000000000724
100
AcDbArc
 50
41.3829059302
 51
53.4756485456
  0
ARC
  5
2C3
330
1F
100
AcDbEntity
  8
0
  6
Continuous
 62
     7
370
    25
100
AcDbCircle
 10
0.0
 20
0.0
 30
0.0
 40
1.020000000000691
100
AcDbArc
 50
326.808093804
 51
330.191906196
  0
ARC
  5
2C4
330
1F
100
AcDbEntity
  8
0
  6
Continuous
 62
     7
370
    25
100
AcDbCircle
 10
0.9529388495
 20
-0.1709309884
 30
0.0
 40
0.3999999999999176
100
AcDbArc
 50
243.5243514544
 51
255.6170940698
  0
ARC
  5
2C5
330
1F
100
AcDbEntity
  8
0
  6
Continuous
 62
     7
370
    25
100
AcDbCircle
 10
0.0
 20
0.0
 30
0.0
 40
0.9379999999979929
100
AcDbArc
 50
322.3290731059
 51
325.6709268941
  0
ARC
  5
2C6
330
1F
100
AcDbEntity
  8
0
  6
Continuous
 62
     7
370
    25
100
AcDbCircle
 10
0.4570393294
 20
-0.8534781222
 30
0.0
 40
0.4000000000000503
100
AcDbArc
 50
32.3829059302
 51
44.4756485456
  0
ARC
  5
2C7
330
1F
100
AcDbEntity
  8
0
  6
Continuous
 62
     7
370
    25
100
AcDbCircle
 10
0.0
 20
0.0
 30
0.0
 40
1.02000000000194
100
AcDbArc
 50
317.808093804
 51
321.191906196
  0
ARC
  5
2C8
330
1F
100
AcDbEntity
  8
0
  6
Continuous
 62
     7
370
    25
100
AcDbCircle
 10
0.9144670932
 20
-0.3178990234
 30
0.0
 40
0.3999999999999579
100
AcDbArc
 50
234.5243514544
 51
246.6170940698
  0
ARC
  5
2C9
330
1F
100
AcDbEntity
  8
0
  6
Continuous
 62
     7
370
    25
100
AcDbCircle
 10
0.0
 20
0.0
 30
0.0
 40
0.9379999999986377
100
AcDbArc
 50
313.3290731059
 51
316.6709268941
  0
ARC
  5
2CA
330
1F
100
AcDbEntity
  8
0
  6
Continuous
 62
     7
370
    25
100
AcDbCircle
 10
0.3178990234
 20
-0.9144670932
 30
0.0
 40
0.4000000000001095
100
AcDbArc
 50
23.3829059302
 51
35.4756485456
  0
ARC
  5
2CB
330
1F
100
AcDbEntity
  8
0
  6
Continuous
 62
     7
370
    25
100
AcDbCircle
 10
0.0
 20
0.0
 30
0.0
 40
1.020000000000228
100
AcDbArc
 50
308.808093804
 51
312.191906196
  0
ARC
  5
2CC
330
1F
100
AcDbEntity
  8
0
  6
Continuous
 62
     7
370
    25
100
AcDbCircle
 10
0.8534781222
 20
-0.4570393294
 30
0.0
 40
0.3999999999999954
100
AcDbArc
 50
225.5243514544
 51
237.6170940698
  0
ARC
  5
2CD
330
1F
100
AcDbEntity
  8
0
  6
Continuous
 62
     7
370
    25
100
AcDbCircle
 10
0.0
 20
0.0
 30
0.0
 40
0.9380000000004001
100
AcDbArc
 50
304.3290731059
 51
307.6709268941
  0
ARC
  5
2CE
330
1F
100
AcDbEntity
  8
0
  6
Continuous
 62
     7
370
    25
100
AcDbCircle
 10
0.1709309884
 20
-0.9529388495
 30
0.0
 40
0.3999999999999939
100
AcDbArc
 50
14.3829059302
 51
26.4756485456
  0
ARC
  5
2CF
330
1F
100
AcDbEntity
  8
0
  6
Continuous
 62
     7
370
    25
100
AcDbCircle
 10
0.0
 20
0.0
 30
0.0
 40
1.020000000001595
100
AcDbArc
 50
299.808093804
 51
303.191906196
  0
ARC
  5
2D0
330
1F
100
AcDbEntity
  8
0
  6
Continuous
 62
     7
370
    25
100
AcDbCircle
 10
0.7714736872
 20
-0.5849258104
 30
0.0
 40
0.4000000000000618
100
AcDbArc
 50
216.5243514544
 51
228.6170940698
  0
ARC
  5
2D1
330
1F
100
AcDbEntity
  8
0
  6
Continuous
 62
     7
370
    25
100
AcDbCircle
 10
0.0
 20
0.0
 30
0.0
 40
0.9380000000013773
100
AcDbArc
 50
295.3290731059
 51
298.6709268941
  0
ARC
  5
2D2
330
1F
100
AcDbEntity
  8
0
  6
Continuous
 62
     7
370
    25
100
AcDbCircle
 10
0.0197540651
 20
-0.9679460887
 30
0.0
 40
0.4000000000000202
100
AcDbArc
 50
5.3829059302
 51
17.4756485456
  0
ARC
  5
2D3
330
1F
100
AcDbEntity
  8
0
  6
Continuous
 62
     7
370
    25
100
AcDbCircle
 10
0.0
 20
0.0
 30
0.0
 40
1.019999999998644
100
AcDbArc
 50
290.808093804
 51
294.191906196
  0
ARC
  5
2D4
330
1F
100
AcDbEntity
  8
0
  6
Continuous
 62
     7
370
    25
100
AcDbCircle
 10
0.6704730097
 20
-0.6984094766
 30
0.0
 40
0.3999999999999415
100
AcDbArc
 50
207.5243514544
 51
219.6170940698
  0
ARC
  5
2D5
330
1F
100
AcDbEntity
  8
0
  6
Continuous
 62
     7
370
    25
100
AcDbCircle
 10
0.0
 20
0.0
 30
0.0
 40
0.9380000000000479
100
AcDbArc
 50
286.3290731059
 51
289.6709268941
  0
ARC
  5
2D6
330
1F
100
AcDbEntity
  8
0
  6
Continuous
 62
     7
370
    25
100
AcDbCircle
 10
-0.1319092688
 20
-0.9591192827
 30
0.0
 40
0.3999999999992938
100
AcDbArc
 50
356.3829059302
 51
8.4756485456
  0
ARC
  5
2D7
330
1F
100
AcDbEntity
  8
0
  6
Continuous
 62
     7
370
    25
100
AcDbCircle
 10
0.0
 20
0.0
 30
0.0
 40
1.020000000001674
100
AcDbArc
 50
281.808093804
 51
285.191906196
  0
ARC
  5
2D8
330
1F
100
AcDbEntity
  8
0
  6
Continuous
 62
     7
370
    25
100
AcDbCircle
 10
0.5529630615
 20
-0.7946959836
 30
0.0
 40
0.4000000000000117
100
AcDbArc
 50
198.5243514544
 51
210.6170940698
  0
ARC
  5
2D9
330
1F
100
AcDbEntity
  8
0
  6
Continuous
 62
     7
370
    25
100
AcDbCircle
 10
0.0
 20
0.0
 30
0.0
 40
0.9380000000004914
100
AcDbArc
 50
277.3290731059
 51
280.6709268941
  0
ARC
  5
2DA
330
1F
100
AcDbEntity
  8
0
  6
Continuous
 62
     7
370
    25
100
AcDbCircle
 10
-0.2803245587
 20
-0.9266757769
 30
0.0
 40
0.400000000000007
100
AcDbArc
 50
347.3829059302
 51
359.4756485456
  0
ARC
  5
2DB
330
1F
100
AcDbEntity
  8
0
  6
Continuous
 62
     7
370
    25
100
AcDbCircle
 10
0.0
 20
0.0
 30
0.0
 40
1.020000000001939
100
AcDbArc
 50
272.808093804
 51
276.191906196
  0
ARC
  5
2DC
330
1F
100
AcDbEntity
  8
0
  6
Continuous
 62
     7
370
    25
100
AcDbCircle
 10
0.4218373276
 20
-0.871414438
 30
0.0
 40
0.400000000000001
100
AcDbArc
 50
189.5243514544
 51
201.6170940698
  0
ARC
  5
2DD
330
1F
100
AcDbEntity
  8
0
  6
Continuous
 62
     7
370
    25
100
AcDbCircle
 10
0.0
 20
0.0
 30
0.0
 40
0.9379999999991078
100
AcDbArc
 50
268.3290731059
 51
271.6709268941
  0
ARC
  5
2DE
330
1F
100
AcDbEntity
  8
0
  6
Continuous
 62
     7
370
    25
100
AcDbCircle
 10
-0.4218373276
 20
-0.871414438
 30
0.0
 40
0.4000000000000923
100
AcDbArc
 50
338.3829059302
 51
350.4756485456
  0
ARC
  5
2DF
330
1F
100
AcDbEntity
  8
0
  6
Continuous
 62
     7
370
    25
100
AcDbCircle
 10
0.0
 20
0.0
 30
0.0
 40
1.020000000002355
100
AcDbArc
 50
263.808093804
 51
267.191906196
  0
ARC
  5
2E0
330
1F
100
AcDbEntity
  8
0
  6
Continuous
 62
     7
370
    25
100
AcDbCircle
 10
0.2803245587
 20
-0.9266757769
 30
0.0
 40
0.4000000000000232
100
AcDbArc
 50
180.5243514544
 51
192.6170940698
  0
ARC
  5
2E1
330
1F
100
AcDbEntity
  8
0
  6
Continuous
 62
     7
370
    25
100
AcDbCircle
 10
0.0
 20
0.0
 30
0.0
 40
0.9379999999971664
100
AcDbArc
 50
259.3290731059
 51
262.6709268941
  0
ARC
  5
2E2
330
1F
100
AcDbEntity
  8
0
  6
Continuous
 62
     7
370
    25
100
AcDbCircle
 10
-0.5529630615
 20
-0.7946959836
 30
0.0
 40
0.3999999999999963
100
AcDbArc
 50
329.3829059302
 51
341.4756485456
  0
ARC
  5
2E3
330
1F
100
AcDbEntity
  8
0
  6
Continuous
 62
     7
370
    25
100
AcDbCircle
 10
0.0
 20
0.0
 30
0.0
 40
1.019999999997952
100
AcDbArc
 50
254.808093804
 51
258.191906196
  0
ARC
  5
2E4
330
1F
100
AcDbEntity
  8
0
  6
Continuous
 62
     7
370
    25
100
AcDbCircle
 10
0.1319092688
 20
-0.9591192827
 30
0.0
 40
0.4000000000001084
100
AcDbArc
 50
171.5243514544
 51
183.6170940698
  0
ARC
  5
2E5
330
1F
100
AcDbEntity
  8
0
  6
Continuous
 62
     7
370
    25
100
AcDbCircle
 10
0.0
 20
0.0
 30
0.0
 40
0.9379999999975982
100
AcDbArc
 50
250.3290731059
 51
253.6709268941
  0
ARC
  5
2E6
330
1F
100
AcDbEntity
  8
0
  6
Continuous
 62
     7
370
    25
100
AcDbCircle
 10
-0.6704730097
 20
-0.6984094766
 30
0.0
 40
0.39999999999998
100
AcDbArc
 50
320.3829059302
 51
332.4756485456
  0
ARC
  5
2E7
330
1F
100
AcDbEntity
  8
0
  6
Continuous
 62
     7
370
    25
100
AcDbCircle
 10
0.0
 20
0.0
 30
0.0
 40
1.020000000000446
100
AcDbArc
 50
245.808093804
 51
249.191906196
  0
ARC
  5
2E8
330
1F
100
AcDbEntity
  8
0
  6
Continuous
 62
     7
370
    25
100
AcDbCircle
 10
-0.0197540651
 20
-0.9679460887
 30
0.0
 40
0.4000000000000056
100
AcDbArc
 50
162.5243514544
 51
174.6170940698
  0
ARC
  5
2E9
330
1F
100
AcDbEntity
  8
0
  6
Continuous
 62
     7
370
    25
100
AcDbCircle
 10
0.0
 20
0.0
 30
0.0
 40
0.9379999999991441
100
AcDbArc
 50
241.3290731059
 51
244.6709268941
  0
ARC
  5
2EA
330
1F
100
AcDbEntity
  8
0
  6
Continuous
 62
     7
370
    25
100
AcDbCircle
 10
-0.7714736872
 20
-0.5849258104
 30
0.0
 40
0.4000000000000737
100
AcDbArc
 50
311.3829059302
 51
323.4756485456
  0
ARC
  5
2EB
330
1F
100
AcDbEntity
  8
0
  6
Continuous
 62
     7
370
    25
100
AcDbCircle
 10
0.0
 20
0.0
 30
0.0
 40
1.019999999999995
100
AcDbArc
 50
236.808093804
 51
240.191906196
  0
ARC
  5
2EC
330
1F
100
AcDbEntity
  8
0
  6
Continuous
 62
     7
370
    25
100
AcDbCircle
 10
-0.1709309884
 20
-0.9529388495
 30
0.0
 40
0.4000000000000235
100
AcDbArc
 50
153.5243514544
 51
165.6170940698
  0
ARC
  5
2ED
330
1F
100
AcDbEntity
  8
0
  6
Continuous
 62
     7
370
    25
100
AcDbCircle
 10
0.0
 20
0.0
 30
0.0
 40
0.9379999999972187
100
AcDbArc
 50
232.3290731059
 51
235.6709268941
  0
ARC
  5
2EE
330
1F
100
AcDbEntity
  8
0
  6
Continuous
 62
     7
370
    25
100
AcDbCircle
 10
-0.8534781222
 20
-0.4570393294
 30
0.0
 40
0.4000000000001407
100
AcDbArc
 50
302.3829059302
 51
314.4756485456
  0
ARC
  5
2EF
330
1F
100
AcDbEntity
  8
0
  6
Continuous
 62
     7
370
    25
100
AcDbCircle
 10
0.0
 20
0.0
 30
0.0
 40
1.019999999999851
100
AcDbArc
 50
227.808093804
 51
231.191906196
  0
ARC
  5
2F0
330
1F
100
AcDbEntity
  8
0
  6
Continuous
 62
     7
370
    25
100
AcDbCircle
 10
-0.3178990234
 20
-0.9144670932
 30
0.0
 40
0.4000000000001287
100
AcDbArc
 50
144.5243514544
 51
156.6170940698
  0
ARC
  5
2F1
330
1F
100
AcDbEntity
  8
0
  6
Continuous
 62
     7
370
    25
100
AcDbCircle
 10
0.0
 20
0.0
 30
0.0
 40
0.9379999999989894
100
AcDbArc
 50
223.3290731059
 51
226.6709268941
  0
ARC
  5
2F2
330
1F
100
AcDbEntity
  8
0
  6
Continuous
 62
     7
370
    25
100
AcDbCircle
 10
-0.9144670932
 20
-0.3178990234
 30
0.0
 40
0.4000000000001063
100
AcDbArc
 50
293.3829059302
 51
305.4756485456
  0
ARC
  5
2F3
330
1F
100
AcDbEntity
  8
0
  6
Continuous
 62
     7
370
    25
100
AcDbCircle
 10
0.0
 20
0.0
 30
0.0
 40
1.020000000000148
100
AcDbArc
 50
218.808093804
 51
222.191906196
  0
ARC
  5
2F4
330
1F
100
AcDbEntity
  8
0
  6
Continuous
 62
     7
370
    25
100
AcDbCircle
 10
-0.4570393294
 20
-0.8534781222
 30
0.0
 40
0.4000000000000824
100
AcDbArc
 50
135.5243514544
 51
147.6170940698
  0
ARC
  5
2F5
330
1F
100
AcDbEntity
  8
0
  6
Continuous
 62
     7
370
    25
100
AcDbCircle
 10
0.0
 20
0.0
 30
0.0
 40
0.9380000000008784
100
AcDbArc
 50
214.3290731059
 51
217.6709268941
  0
ARC
  5
2F6
330
1F
100
AcDbEntity
  8
0
  6
Continuous
 62
     7
370
    25
100
AcDbCircle
 10
-0.9529388495
 20
-0.1709309884
 30
0.0
 40
0.4000000000000591
100
AcDbArc
 50
284.3829059302
 51
296.4756485456
  0
ARC
  5
2F7
330
1F
100
AcDbEntity
  8
0
  6
Continuous
 62
     7
370
    25
100
AcDbCircle
 10
0.0
 20
0.0
 30
0.0
 40
1.020000000000953
100
AcDbArc
 50
209.808093804
 51
213.191906196
  0
ARC
  5
2F8
330
1F
100
AcDbEntity
  8
0
  6
Continuous
 62
     7
370
    25
100
AcDbCircle
 10
-0.5849258104
 20
-0.7714736872
 30
0.0
 40
0.400000000000093
100
AcDbArc
 50
126.5243514544
 51
138.6170940698
  0
ARC
  5
2F9
330
1F
100
AcDbEntity
  8
0
  6
Continuous
 62
     7
370
    25
100
AcDbCircle
 10
0.0
 20
0.0
 30
0.0
 40
0.9379999999991284
100
AcDbArc
 50
205.3290731059
 51
208.6709268941
  0
ARC
  5
2FA
330
1F
100
AcDbEntity
  8
0
  6
Continuous
 62
     7
370
    25
100
AcDbCircle
 10
-0.9679460887
 20
-0.0197540651
 30
0.0
 40
0.3999999999999935
100
AcDbArc
 50
275.3829059302
 51
287.4756485456
  0
ARC
  5
2FB
330
1F
100
AcDbEntity
  8
0
  6
Continuous
 62
     7
370
    25
100
AcDbCircle
 10
0.0
 20
0.0
 30
0.0
 40
1.020000000000852
100
AcDbArc
 50
200.808093804
 51
204.191906196
  0
ARC
  5
2FC
330
1F
100
AcDbEntity
  8
0
  6
Continuous
 62
     7
370
    25
100
AcDbCircle
 10
-0.6984094766
 20
-0.6704730097
 30
0.0
 40
0.4000000000000868
100
AcDbArc
 50
117.5243514544
 51
129.6170940698
  0
ARC
  5
2FD
330
1F
100
AcDbEntity
  8
0
  6
Continuous
 62
     7
370
    25
100
AcDbCircle
 10
0.0
 20
0.0
 30
0.0
 40
0.937999999997596
100
AcDbArc
 50
196.3290731059
 51
199.6709268941
  0
ARC
  5
2FE
330
1F
100
AcDbEntity
  8
0
  6
Continuous
 62
     7
370
    25
100
AcDbCircle
 10
-0.9591192827
 20
0.1319092688
 30
0.0
 40
0.4000000000000212
100
AcDbArc
 50
266.3829059302
 51
278.4756485456
  0
ARC
  5
2FF
330
1F
100
AcDbEntity
  8
0
  6
Continuous
 62
     7
370
    25
100
AcDbCircle
 10
0.0
 20
0.0
 30
0.0
 40
1.020000000000947
100
AcDbArc
 50
191.808093804
 51
195.191906196
  0
ARC
  5
300
330
1F
100
AcDbEntity
  8
0
  6
Continuous
 62
     7
370
    25
100
AcDbCircle
 10
-0.7946959836
 20
-0.5529630615
 30
0.0
 40
0.4000000000000946
100
AcDbArc
 50
108.5243514544
 51
120.6170940698
  0
ARC
  5
301
330
1F
100
AcDbEntity
  8
0
  6
Continuous
 62
     7
370
    25
100
AcDbCircle
 10
0.0
 20
0.0
 30
0.0
 40
0.9379999999980553
100
AcDbArc
 50
187.3290731059
 51
190.6709268941
  0
ARC
  5
302
330
1F
100
AcDbEntity
  8
0
  6
Continuous
 62
     7
370
    25
100
AcDbCircle
 10
-0.9266757769
 20
0.2803245587
 30
0.0
 40
0.4000000000000612
100
AcDbArc
 50
257.3829059302
 51
269.4756485456
  0
ARC
  5
303
330
1F
100
AcDbEntity
  8
0
  6
Continuous
 62
     7
370
    25
100
AcDbCircle
 10
0.0
 20
0.0
 30
0.0
 40
1.019999999998994
100
AcDbArc
 50
182.808093804
 51
186.191906196
  0
ARC
  5
304
330
1F
100
AcDbEntity
  8
0
  6
Continuous
 62
     7
370
    25
100
AcDbCircle
 10
-0.871414438
 20
-0.4218373276
 30
0.0
 40
0.3999999999999347
100
AcDbArc
 50
99.5243514544
 51
111.6170940698
  0
ARC
  5
305
330
1F
100
AcDbEntity
  8
0
  6
Continuous
 62
     7
370
    25
100
AcDbCircle
 10
0.0
 20
0.0
 30
0.0
 40
0.9380000000058384
100
AcDbArc
 50
178.3290731059
 51
181.6709268941
  0
ARC
  5
306
330
1F
100
AcDbEntity
  8
0
  6
Continuous
 62
     7
370
    25
100
AcDbCircle
 10
-0.871414438
 20
0.4218373276
 30
0.0
 40
0.4000000000000551
100
AcDbArc
 50
248.3829059302
 51
260.4756485456
  0
ARC
  5
307
330
1F
100
AcDbEntity
  8
0
  6
Continuous
 62
     7
370
    25
100
AcDbCircle
 10
0.0
 20
0.0
 30
0.0
 40
1.020000000002331
100
AcDbArc
 50
173.808093804
 51
177.191906196
  0
ARC
  5
308
330
1F
100
AcDbEntity
  8
0
  6
Continuous
 62
     7
370
    25
100
AcDbCircle
 10
-0.9266757769
 20
-0.2803245587
 30
0.0
 40
0.400000000000021
100
AcDbArc
 50
90.5243514544
 51
102.6170940698
  0
ARC
  5
309
330
1F
100
AcDbEntity
  8
0
  6
Continuous
 62
     7
370
    25
100
AcDbCircle
 10
0.0
 20
0.0
 30
0.0
 40
0.9380000000002346
100
AcDbArc
 50
169.3290731059
 51
172.6709268941
  0
ARC
  5
30A
330
1F
100
AcDbEntity
  8
0
  6
Continuous
 62
     7
370
    25
100
AcDbCircle
 10
-0.7946959836
 20
0.5529630615
 30
0.0
 40
0.4000000000000161
100
AcDbArc
 50
239.3829059302
 51
251.4756485456
  0
ARC
  5
30B
330
1F
100
AcDbEntity
  8
0
  6
Continuous
 62
     7
370
    25
100
AcDbCircle
 10
0.0
 20
0.0
 30
0.0
 40
1.020000000000152
100
AcDbArc
 50
164.808093804
 51
168.191906196
  0
ARC
  5
30C
330
1F
100
AcDbEntity
  8
0
  6
Continuous
 62
     7
370
    25
100
AcDbCircle
 10
-0.9591192827
 20
-0.1319092688
 30
0.0
 40
0.4000000000000166
100
AcDbArc
 50
81.5243514544
 51
93.6170940698
  0
ARC
  5
30D
330
1F
100
AcDbEntity
  8
0
  6
Continuous
 62
     7
370
    25
100
AcDbCircle
 10
0.0
 20
0.0
 30
0.0
 40
0.93800000000102
100
AcDbArc
 50
160.3290731059
 51
163.6709268941
  0
ARC
  5
30E
330
1F
100
AcDbEntity
  8
0
  6
Continuous
 62
     7
370
    25
100
AcDbCircle
 10
-0.6984094766
 20
0.6704730097
 30
0.0
 40
0.3999999999999938
100
AcDbArc
 50
230.3829059302
 51
242.4756485456
  0
ARC
  5
30F
330
1F
100
AcDbEntity
  8
0
  6
Continuous
 62
     7
370
    25
100
AcDbCircle
 10
0.0
 20
0.0
 30
0.0
 40
1.019999999997395
100
AcDbArc
 50
155.808093804
 51
159.191906196
  0
ARC
  5
310
330
1F
100
AcDbEntity
  8
0
  6
Continuous
 62
     7
370
    25
100
AcDbCircle
 10
-0.9679460887
 20
0.0197540651
 30
0.0
 40
0.4000000000000235
100
AcDbArc
 50
72.5243514544
 51
84.6170940698
  0
ARC
  5
311
330
1F
100
AcDbEntity
  8
0
  6
Continuous
 62
     7
370
    25
100
AcDbCircle
 10
0.0
 20
0.0
 30
0.0
 40
0.9379999999988322
100
AcDbArc
 50
151.3290731059
 51
154.6709268941
  0
ARC
  5
312
330
1F
100
AcDbEntity
  8
0
  6
Continuous
 62
     7
370
    25
100
AcDbCircle
 10
-0.5849258104
 20
0.7714736872
 30
0.0
 40
0.399999999999927
100
AcDbArc
 50
221.3829059302
 51
233.4756485456
  0
ARC
  5
313
330
1F
100
AcDbEntity
  8
0
  6
Continuous
 62
     7
370
    25
100
AcDbCircle
 10
0.0
 20
0.0
 30
0.0
 40
1.020000000000136
100
AcDbArc
 50
146.808093804
 51
150.191906196
  0
ARC
  5
314
330
1F
100
AcDbEntity
  8
0
  6
Continuous
 62
     7
370
    25
100
AcDbCircle
 10
-0.9529388495
 20
0.1709309884
 30
0.0
 40
0.3999999999999612
100
AcDbArc
 50
63.5243514544
 51
75.6170940698
  0
ARC
  5
315
330
1F
100
AcDbEntity
  8
0
  6
Continuous
 62
     7
370
    25
100
AcDbCircle
 10
0.0
 20
0.0
 30
0.0
 40
0.9379999999979983
100
AcDbArc
 50
142.3290731059
 51
145.6709268941
  0
ARC
  5
316
330
1F
100
AcDbEntity
  8
0
  6
Continuous
 62
     7
370
    25
100
AcDbCircle
 10
-0.4570393294
 20
0.8534781222
 30
0.0
 40
0.4000000000001085
100
AcDbArc
 50
212.3829059302
 51
224.4756485456
  0
ARC
  5
317
330
1F
100
AcDbEntity
  8
0
  6
Continuous
 62
     7
370
    25
100
AcDbCircle
 10
0.0
 20
0.0
 30
0.0
 40
1.020000000001203
100
AcDbArc
 50
137.808093804
 51
141.191906196
  0
ARC
  5
318
330
1F
100
AcDbEntity
  8
0
  6
Continuous
 62
     7
370
    25
100
AcDbCircle
 10
-0.9144670932
 20
0.3178990234
 30
0.0
 40
0.4000000000001306
100
AcDbArc
 50
54.5243514544
 51
66.6170940698
  0
ARC
  5
319
330
1F
100
AcDbEntity
  8
0
  6
Continuous
 62
     7
370
    25
100
AcDbCircle
 10
0.0
 20
0.0
 30
0.0
 40
0.9379999999994519
100
AcDbArc
 50
133.3290731059
 51
136.6709268941
  0
ARC
  5
31A
330
1F
100
AcDbEntity
  8
0
  6
Continuous
 62
     7
370
    25
100
AcDbCircle
 10
-0.3178990234
 20
0.9144670932
 30
0.0
 40
0.3999999999999202
100
AcDbArc
 50
203.3829059302
 51
215.4756485456
  0
ARC
  5
31B
330
1F
100
AcDbEntity
  8
0
  6
Continuous
 62
     7
370
    25
100
AcDbCircle
 10
0.0
 20
0.0
 30
0.0
 40
1.019999999999624
100
AcDbArc
 50
128.808093804
 51
132.191906196
  0
ARC
  5
31C
330
1F
100
AcDbEntity
  8
0
  6
Continuous
 62
     7
370
    25
100
AcDbCircle
 10
-0.8534781222
 20
0.4570393294
 30
0.0
 40
0.4000000000000544
100
AcDbArc
 50
45.5243514544
 51
57.6170940698
  0
ARC
  5
31D
330
1F
100
AcDbEntity
  8
0
  6
Continuous
 62
     7
370
    25
100
AcDbCircle
 10
0.0
 20
0.0
 30
0.0
 40
0.9380000000003322
100
AcDbArc
 50
124.3290731059
 51
127.6709268941
  0
ARC
  5
31E
330
1F
100
AcDbEntity
  8
0
  6
Continuous
 62
     7
370
    25
100
AcDbCircle
 10
-0.1709309884
 20
0.9529388495
 30
0.0
 40
0.4000000000002104
100
AcDbArc
 50
194.3829059302
 51
206.4756485456
  0
ARC
  5
31F
330
1F
100
AcDbEntity
  8
0
  6
Continuous
 62
     7
370
    25
100
AcDbCircle
 10
0.0
 20
0.0
 30
0.0
 40
1.020000000001322
100
AcDbArc
 50
119.808093804
 51
123.191906196
  0
ARC
  5
320
330
1F
100
AcDbEntity
  8
0
  6
Continuous
 62
     7
370
    25
100
AcDbCircle
 10
0.9266757769
 20
-0.2803245587
 30
0.0
 40
0.4000000000000238
100
AcDbArc
 50
77.3829059302
 51
89.4756485456
  0
ARC
  5
321
330
1F
100
AcDbEntity
  8
0
  6
Continuous
 62
     7
370
    25
100
AcDbCircle
 10
0.9266757769
 20
0.2803245587
 30
0.0
 40
0.3999999999999791
100
AcDbArc
 50
270.5243514544
 51
282.6170940698
  0
ARC
  5
322
330
1F
100
AcDbEntity
  8
0
  6
Continuous
 62
     7
370
    25
100
AcDbCircle
 10
0.871414438
 20
-0.4218373276
 30
0.0
 40
0.4000000000000514
100
AcDbArc
 50
68.3829059302
 51
80.4756485456
  0
ARC
  5
323
330
1F
100
AcDbEntity
  8
0
  6
Continuous
 62
     7
370
    25
100
AcDbCircle
 10
0.871414438
 20
0.4218373276
 30
0.0
 40
0.4000000000000141
100
AcDbArc
 50
279.5243514544
 51
291.6170940698
  0
ARC
  5
324
330
1F
100
AcDbEntity
  8
0
  6
Continuous
 62
     7
370
    25
100
AcDbCircle
 10
0.0
 20
0.0
 30
0.0
 40
1.050000000002371
100
AcDbArc
 50
12.4386991641
 51
14.5613008359
  0
ARC
  5
325
330
1F
100
AcDbEntity
  8
0
  6
Continuous
 62
     7
370
    25
100
AcDbCircle
 10
0.0
 20
0.0
 30
0.0
 40
1.049999999998665
100
AcDbArc
 50
345.4386991641
 51
347.5613008359
  0
ARC
  5
326
330
1F
100
AcDbEntity
  8
0
  6
Continuous
 62
     7
370
    25
100
AcDbCircle
 10
0.0
 20
0.0
 30
0.0
 40
1.049999999998758
100
AcDbArc
 50
336.4386991641
 51
338.5613008359
  0
ARC
  5
327
330
1F
100
AcDbEntity
  8
0
  6
Continuous
 62
     7
370
    25
100
AcDbCircle
 10
0.0
 20
0.0
 30
0.0
 40
1.049999999996998
100
AcDbArc
 50
21.4386991641
 51
23.5613008359
  0
ARC
  5
328
330
1F
100
AcDbEntity
  8
0
  6
Continuous
 62
     7
370
    25
100
AcDbCircle
 10
0.0
 20
0.0
 30
0.0
 40
1.049999999998392
100
AcDbArc
 50
30.4386991641
 51
32.5613008359
  0
ARC
  5
329
330
1F
100
AcDbEntity
  8
0
  6
Continuous
 62
     7
370
    25
100
AcDbCircle
 10
0.0
 20
0.0
 30
0.0
 40
1.049999999998602
100
AcDbArc
 50
327.4386991641
 51
329.5613008359
  0
ARC
  5
32A
330
1F
100
AcDbEntity
  8
0
  6
Continuous
 62
     7
370
    25
100
AcDbCircle
 10
0.0
 20
0.0
 30
0.0
 40
1.049999999996355
100
AcDbArc
 50
318.4386991641
 51
320.5613008359
  0
ARC
  5
32B
330
1F
100
AcDbEntity
  8
0
  6
Continuous
 62
     7
370
    25
100
AcDbCircle
 10
0.0
 20
0.0
 30
0.0
 40
1.049999999998863
100
AcDbArc
 50
39.4386991641
 51
41.5613008359
  0
ARC
  5
32C
330
1F
100
AcDbEntity
  8
0
  6
Continuous
 62
     7
370
    25
100
AcDbCircle
 10
0.0
 20
0.0
 30
0.0
 40
1.050000000001896
100
AcDbArc
 50
48.4386991641
 51
50.5613008359
  0
ARC
  5
32D
330
1F
100
AcDbEntity
  8
0
  6
Continuous
 62
     7
370
    25
100
AcDbCircle
 10
0.0
 20
0.0
 30
0.0
 40
1.05000000000371
100
AcDbArc
 50
309.4386991641
 51
311.5613008359
  0
ARC
  5
32E
330
1F
100
AcDbEntity
  8
0
  6
Continuous
 62
     7
370
    25
100
AcDbCircle
 10
0.0
 20
0.0
 30
0.0
 40
1.049999999998896
100
AcDbArc
 50
300.4386991641
 51
302.5613008359
  0
ARC
  5
32F
330
1F
100
AcDbEntity
  8
0
  6
Continuous
 62
     7
370
    25
100
AcDbCircle
 10
0.0
 20
0.0
 30
0.0
 40
1.049999999997717
100
AcDbArc
 50
57.4386991641
 51
59.5613008359
  0
ARC
  5
330
330
1F
100
AcDbEntity
  8
0
  6
Continuous
 62
     7
370
    25
100
AcDbCircle
 10
0.0
 20
0.0
 30
0.0
 40
1.049999999998756
100
AcDbArc
 50
66.4386991641
 51
68.5613008359
  0
ARC
  5
331
330
1F
100
AcDbEntity
  8
0
  6
Continuous
 62
     7
370
    25
100
AcDbCircle
 10
0.0
 20
0.0
 30
0.0
 40
1.049999999997437
100
AcDbArc
 50
291.4386991641
 51
293.5613008359
  0
ARC
  5
332
330
1F
100
AcDbEntity
  8
0
  6
Continuous
 62
     7
370
    25
100
AcDbCircle
 10
0.0
 20
0.0
 30
0.0
 40
1.04999999999804
100
AcDbArc
 50
282.4386991641
 51
284.5613008359
  0
ARC
  5
333
330
1F
100
AcDbEntity
  8
0
  6
Continuous
 62
     7
370
    25
100
AcDbCircle
 10
0.0
 20
0.0
 30
0.0
 40
1.049999999998066
100
AcDbArc
 50
75.4386991641
 51
77.5613008359
  0
ARC
  5
334
330
1F
100
AcDbEntity
  8
0
  6
Continuous
 62
     7
370
    25
100
AcDbCircle
 10
0.0
 20
0.0
 30
0.0
 40
1.04999999999391
100
AcDbArc
 50
273.4386991641
 51
275.5613008359
  0
ARC
  5
335
330
1F
100
AcDbEntity
  8
0
  6
Continuous
 62
     7
370
    25
100
AcDbCircle
 10
0.0
 20
0.0
 30
0.0
 40
1.050000000000472
100
AcDbArc
 50
84.4386991641
 51
86.5613008359
  0
ARC
  5
336
330
1F
100
AcDbEntity
  8
0
  6
Continuous
 62
     7
370
    25
100
AcDbCircle
 10
0.0
 20
0.0
 30
0.0
 40
1.049999999995129
100
AcDbArc
 50
264.4386991641
 51
266.5613008359
  0
ARC
  5
337
330
1F
100
AcDbEntity
  8
0
  6
Continuous
 62
     7
370
    25
100
AcDbCircle
 10
0.0
 20
0.0
 30
0.0
 40
1.049999999999684
100
AcDbArc
 50
93.4386991641
 51
95.5613008359
  0
ARC
  5
338
330
1F
100
AcDbEntity
  8
0
  6
Continuous
 62
     7
370
    25
100
AcDbCircle
 10
0.0
 20
0.0
 30
0.0
 40
1.049999999999651
100
AcDbArc
 50
255.4386991641
 51
257.5613008359
  0
ARC
  5
339
330
1F
100
AcDbEntity
  8
0
  6
Continuous
 62
     7
370
    25
100
AcDbCircle
 10
0.0
 20
0.0
 30
0.0
 40
1.049999999998033
100
AcDbArc
 50
102.4386991641
 51
104.5613008359
  0
ARC
  5
33A
330
1F
100
AcDbEntity
  8
0
  6
Continuous
 62
     7
370
    25
100
AcDbCircle
 10
0.0
 20
0.0
 30
0.0
 40
1.049999999997552
100
AcDbArc
 50
111.4386991641
 51
113.5613008359
  0
ARC
  5
33B
330
1F
100
AcDbEntity
  8
0
  6
Continuous
 62
     7
370
    25
100
AcDbCircle
 10
0.0
 20
0.0
 30
0.0
 40
1.049999999998964
100
AcDbArc
 50
246.4386991641
 51
248.5613008359
  0
ARC
  5
33C
330
1F
100
AcDbEntity
  8
0
  6
Continuous
 62
     7
370
    25
100
AcDbCircle
 10
0.0
 20
0.0
 30
0.0
 40
1.049999999997446
100
AcDbArc
 50
237.4386991641
 51
239.5613008359
  0
ARC
  5
33D
330
1F
100
AcDbEntity
  8
0
  6
Continuous
 62
     7
370
    25
100
AcDbCircle
 10
0.0
 20
0.0
 30
0.0
 40
1.049999999999266
100
AcDbArc
 50
120.4386991641
 51
122.5613008359
  0
ARC
  5
33E
330
1F
100
AcDbEntity
  8
0
  6
Continuous
 62
     7
370
    25
100
AcDbCircle
 10
0.0
 20
0.0
 30
0.0
 40
1.049999999997448
100
AcDbArc
 50
228.4386991641
 51
230.5613008359
  0
ARC
  5
33F
330
1F
100
AcDbEntity
  8
0
  6
Continuous
 62
     7
370
    25
100
AcDbCircle
 10
0.0
 20
0.0
 30
0.0
 40
1.050000000000093
100
AcDbArc
 50
129.4386991641
 51
131.5613008359
  0
ARC
  5
340
330
1F
100
AcDbEntity
  8
0
  6
Continuous
 62
     7
370
    25
100
AcDbCircle
 10
0.0
 20
0.0
 30
0.0
 40
1.050000000002534
100
AcDbArc
 50
138.4386991641
 51
140.5613008359
  0
ARC
  5
341
330
1F
100
AcDbEntity
  8
0
  6
Continuous
 62
     7
370
    25
100
AcDbCircle
 10
0.0
 20
0.0
 30
0.0
 40
1.04999999999941
100
AcDbArc
 50
219.4386991641
 51
221.5613008359
  0
ARC
  5
342
330
1F
100
AcDbEntity
  8
0
  6
Continuous
 62
     7
370
    25
100
AcDbCircle
 10
0.0
 20
0.0
 30
0.0
 40
1.04999999999948
100
AcDbArc
 50
147.4386991641
 51
149.5613008359
  0
ARC
  5
343
330
1F
100
AcDbEntity
  8
0
  6
Continuous
 62
     7
370
    25
100
AcDbCircle
 10
0.0
 20
0.0
 30
0.0
 40
1.049999999997789
100
AcDbArc
 50
210.4386991641
 51
212.5613008359
  0
ARC
  5
344
330
1F
100
AcDbEntity
  8
0
  6
Continuous
 62
     7
370
    25
100
AcDbCircle
 10
0.0
 20
0.0
 30
0.0
 40
1.049999999999454
100
AcDbArc
 50
156.4386991641
 51
158.5613008359
  0
ARC
  5
345
330
1F
100
AcDbEntity
  8
0
  6
Continuous
 62
     7
370
    25
100
AcDbCircle
 10
0.0
 20
0.0
 30
0.0
 40
1.049999999996635
100
AcDbArc
 50
201.4386991641
 51
203.5613008359
  0
ARC
  5
346
330
1F
100
AcDbEntity
  8
0
  6
Continuous
 62
     7
370
    25
100
AcDbCircle
 10
0.0
 20
0.0
 30
0.0
 40
1.050000000003195
100
AcDbArc
 50
192.4386991641
 51
194.5613008359
  0
ARC
  5
347
330
1F
100
AcDbEntity
  8
0
  6
Continuous
 62
     7
370
    25
100
AcDbCircle
 10
0.0
 20
0.0
 30
0.0
 40
1.049999999999633
100
AcDbArc
 50
165.4386991641
 51
167.5613008359
  0
ARC
  5
348
330
1F
100
AcDbEntity
  8
0
  6
Continuous
 62
     7
370
    25
100
AcDbCircle
 10
0.0
 20
0.0
 30
0.0
 40
1.049999999995486
100
AcDbArc
 50
174.4386991641
 51
176.5613008359
  0
ARC
  5
349
330
1F
100
AcDbEntity
  8
0
  6
Continuous
 62
     7
370
    25
100
AcDbCircle
 10
0.0
 20
0.0
 30
0.0
 40
1.050000000000693
100
AcDbArc
 50
183.4386991641
 51
185.5613008359
  0
MTEXT
  5
34B
330
1F
100
AcDbEntity
  8
0
  6
Continuous
 62
     7
100
AcDbMText
 10
-1.0481095202
 20
-1.0882499293
 30
0.0
 40
0.1903
 41
0.0
 71
     1
 72
     1
  1
SOLIDWORKS Educational Product.
  7
SLDTEXTSTYLE0
 73
     1
 44
1.0
  0
MTEXT
  5
34C
330
1F
100
AcDbEntity
  8
0
  6
Continuous
 62
     7
100
AcDbMText
 10
-1.0481095202
 20
-1.3736999293
 30
0.0
 40
0.1903
 41
0.0
 71
     1
 72
     1
  1
For Instructional Use Only.
  7
SLDTEXTSTYLE0
 73
     1
 44
1.0
  0
ENDSEC
  0
SECTION
  2
OBJECTS
  0
DICTIONARY
  5
C
330
0
100
AcDbDictionary
281
     1
  3
ACAD_GROUP
350
D
  3
ACAD_LAYOUT
350
1A
  3
ACAD_MLINESTYLE
350
17
  3
ACAD_PLOTSETTINGS
350
19
  3
ACAD_PLOTSTYLENAME
350
E
  3
ACAD_SCALELIST
350
47
  3
DWGPROPS
350
34D
  0
DICTIONARY
  5
D
102
{ACAD_REACTORS
330
C
102
}
330
C
100
AcDbDictionary
281
     1
  0
DICTIONARY
  5
1A
102
{ACAD_REACTORS
330
C
102
}
330
C
100
AcDbDictionary
281
     1
  3
Layout1
350
1E
  3
Layout2
350
26
  3
Model
350
22
  0
DICTIONARY
  5
17
102
{ACAD_REACTORS
330
C
102
}
330
C
100
AcDbDictionary
281
     1
  3
Standard
350
18
  0
DICTIONARY
  5
19
102
{ACAD_REACTORS
330
C
102
}
330
C
100
AcDbDictionary
281
     1
  0
ACDBDICTIONARYWDFLT
  5
E
102
{ACAD_REACTORS
330
C
102
}
330
C
100
AcDbDictionary
281
     1
  3
Normal
350
F
100
AcDbDictionaryWithDefault
340
F
  0
DICTIONARY
  5
47
102
{ACAD_REACTORS
330
C
102
}
330
C
100
AcDbDictionary
281
     1
  3
A0
350
48
  3
A1
350
49
  3
A2
350
4A
  3
A3
350
4B
  3
A4
350
4C
  3
A5
350
4D
  3
A6
350
4E
  3
A7
350
4F
  3
A8
350
50
  3
A9
350
51
  3
B1
350
52
  3
B2
350
53
  3
B3
350
54
  3
B4
350
55
  3
B5
350
56
  3
B6
350
57
  3
B7
350
58
  0
XRECORD
  5
34D
102
{ACAD_REACTORS
330
C
102
}
330
C
100
AcDbXrecord
280
     1
  1
DWGPROPS COOKIE
  2

  3

  4

  6

  7

  8
willi
  9

300
=
301
=
302
=
303
=
304
=
305
=
306
=
307
=
308
=
309
=
 40
0.0
 41
2460063.102451713
 42
2460063.102587593
  1

 90
        0
  0
LAYOUT
  5
1E
102
{ACAD_REACTORS
330
1A
102
}
330
1A
100
AcDbPlotSettings
  1

  2
none_device
  4

  6

 40
0.0
 41
0.0
 42
0.0
 43
0.0
 44
0.0
 45
0.0
 46
0.0
 47
0.0
 48
0.0
 49
0.0
140
0.0
141
0.0
142
1.0
143
1.0
 70
   688
 72
     0
 73
     0
 74
     5
  7

 75
    16
147
1.0
148
0.0
149
0.0
100
AcDbLayout
  1
Layout1
 70
     1
 71
     1
 10
0.0
 20
0.0
 11
12.0
 21
9.0
 12
0.0
 22
0.0
 32
0.0
 14
1.0000000000E+20
 24
1.0000000000E+20
 34
1.0000000000E+20
 15
-1.0000000000E+20
 25
-1.0000000000E+20
 35
-1.0000000000E+20
146
0.0
 13
0.0
 23
0.0
 33
0.0
 16
1.0
 26
0.0
 36
0.0
 17
0.0
 27
1.0
 37
0.0
 76
     0
330
1B
  0
LAYOUT
  5
26
102
{ACAD_REACTORS
330
1A
102
}
330
1A
100
AcDbPlotSettings
  1

  2
none_device
  4

  6

 40
0.0
 41
0.0
 42
0.0
 43
0.0
 44
0.0
 45
0.0
 46
0.0
 47
0.0
 48
0.0
 49
0.0
140
0.0
141
0.0
142
1.0
143
1.0
 70
   688
 72
     0
 73
     0
 74
     5
  7

 75
    16
147
1.0
148
0.0
149
0.0
100
AcDbLayout
  1
Layout2
 70
     1
 71
     2
 10
0.0
 20
0.0
 11
0.0
 21
0.0
 12
0.0
 22
0.0
 32
0.0
 14
0.0
 24
0.0
 34
0.0
 15
0.0
 25
0.0
 35
0.0
146
0.0
 13
0.0
 23
0.0
 33
0.0
 16
1.0
 26
0.0
 36
0.0
 17
0.0
 27
1.0
 37
0.0
 76
     0
330
23
  0
LAYOUT
  5
22
102
{ACAD_REACTORS
330
1A
102
}
330
1A
100
AcDbPlotSettings
  1

  2
none_device
  4
ANSI_A_(11.00_x_8.50_Inches)
  6

 40
6.35
 41
19.05
 42
6.35000508
 43
19.05000254
 44
279.4
 45
215.9
 46
133.34999746
 47
88.89999873
 48
0.0
 49
0.0
140
0.0
141
0.0
142
4.0143705585
143
1.0
 70
  1696
 72
     0
 73
     0
 74
     0
  7

 75
     0
147
0.5913241897
148
-39.4088153714
149
0.0
100
AcDbLayout
  1
Model
 70
     1
 71
     0
 10
0.0
 20
0.0
 11
12.0
 21
9.0
 12
0.0
 22
0.0
 32
0.0
 14
-1.0481095202
 24
-1.0481095202
 34
0.0
 15
1.0481095202
 25
1.0481095202
 35
0.0
146
0.0
 13
0.0
 23
0.0
 33
0.0
 16
1.0
 26
0.0
 36
0.0
 17
0.0
 27
1.0
 37
0.0
 76
     0
330
1F
331
29
  0
MLINESTYLE
  5
18
102
{ACAD_REACTORS
330
17
102
}
330
17
100
AcDbMlineStyle
  2
Standard
 70
     0
  3

 62
   256
 51
90.0
 52
90.0
 71
     2
 49
0.5
 62
   256
  6
BYLAYER
 49
-0.5
 62
   256
  6
BYLAYER
  0
ACDBPLACEHOLDER
  5
F
102
{ACAD_REACTORS
330
E
102
}
330
E
  0
SCALE
  5
48
102
{ACAD_REACTORS
330
47
102
}
330
47
100
AcDbScale
 70
     0
300
1:1
140
1.0
141
1.0
290
     1
  0
SCALE
  5
49
102
{ACAD_REACTORS
330
47
102
}
330
47
100
AcDbScale
 70
     0
300
1/128" = 1'-0"
140
0.0078125
141
12.0
290
     0
  0
SCALE
  5
4A
102
{ACAD_REACTORS
330
47
102
}
330
47
100
AcDbScale
 70
     0
300
1/64" = 1'-0"
140
0.015625
141
12.0
290
     0
  0
SCALE
  5
4B
102
{ACAD_REACTORS
330
47
102
}
330
47
100
AcDbScale
 70
     0
300
1/32" = 1'-0"
140
0.03125
141
12.0
290
     0
  0
SCALE
  5
4C
102
{ACAD_REACTORS
330
47
102
}
330
47
100
AcDbScale
 70
     0
300
1/16" = 1'-0"
140
0.0625
141
12.0
290
     0
  0
SCALE
  5
4D
102
{ACAD_REACTORS
330
47
102
}
330
47
100
AcDbScale
 70
     0
300
3/32" = 1'-0"
140
0.09375
141
12.0
290
     0
  0
SCALE
  5
4E
102
{ACAD_REACTORS
330
47
102
}
330
47
100
AcDbScale
 70
     0
300
1/8" = 1'-0"
140
0.125
141
12.0
290
     0
  0
SCALE
  5
4F
102
{ACAD_REACTORS
330
47
102
}
330
47
100
AcDbScale
 70
     0
300
3/16" = 1'-0"
140
0.1875
141
12.0
290
     0
  0
SCALE
  5
50
102
{ACAD_REACTORS
330
47
102
}
330
47
100
AcDbScale
 70
     0
300
1/4" = 1'-0"
140
0.25
141
12.0
290
     0
  0
SCALE
  5
51
102
{ACAD_REACTORS
330
47
102
}
330
47
100
AcDbScale
 70
     0
300
3/8" = 1'-0"
140
0.375
141
12.0
290
     0
  0
SCALE
  5
52
102
{ACAD_REACTORS
330
47
102
}
330
47
100
AcDbScale
 70
     0
300
1/2" = 1'-0"
140
0.5
141
12.0
290
     0
  0
SCALE
  5
53
102
{ACAD_REACTORS
330
47
102
}
330
47
100
AcDbScale
 70
     0
300
3/4" = 1'-0"
140
0.75
141
12.0
290
     0
  0
SCALE
  5
54
102
{ACAD_REACTORS
330
47
102
}
330
47
100
AcDbScale
 70
     0
300
1" = 1'-0"
140
1.0
141
12.0
290
     0
  0
SCALE
  5
55
102
{ACAD_REACTORS
330
47
102
}
330
47
100
AcDbScale
 70
     0
300
1-1/2" = 1'-0"
140
1.5
141
12.0
290
     0
  0
SCALE
  5
56
102
{ACAD_REACTORS
330
47
102
}
330
47
100
AcDbScale
 70
     0
300
3" = 1'-0"
140
3.0
141
12.0
290
     0
  0
SCALE
  5
57
102
{ACAD_REACTORS
330
47
102
}
330
47
100
AcDbScale
 70
     0
300
6" = 1'-0"
140
6.0
141
12.0
290
     0
  0
SCALE
  5
58
102
{ACAD_REACTORS
330
47
102
}
330
47
100
AcDbScale
 70
     0
300
1'-0" = 1'-0"
140
12.0
141
12.0
290
     0
  0
ENDSEC
  0
EOF
